G04 #@! TF.GenerationSoftware,KiCad,Pcbnew,5.0.2-bee76a0~70~ubuntu18.04.1*
G04 #@! TF.CreationDate,2019-01-08T14:18:49+01:00*
G04 #@! TF.ProjectId,lightmeter,6c696768-746d-4657-9465-722e6b696361,rev?*
G04 #@! TF.SameCoordinates,Original*
G04 #@! TF.FileFunction,Soldermask,Bot*
G04 #@! TF.FilePolarity,Negative*
%FSLAX46Y46*%
G04 Gerber Fmt 4.6, Leading zero omitted, Abs format (unit mm)*
G04 Created by KiCad (PCBNEW 5.0.2-bee76a0~70~ubuntu18.04.1) date mar. 08 janv. 2019 14:18:49 CET*
%MOMM*%
%LPD*%
G01*
G04 APERTURE LIST*
%ADD10C,0.100000*%
G04 APERTURE END LIST*
D10*
G04 #@! TO.C,U2*
G36*
X40106000Y-65158000D02*
X40082182Y-64946605D01*
X40011920Y-64745810D01*
X39898740Y-64565685D01*
X39748315Y-64415260D01*
X39568190Y-64302080D01*
X39156000Y-64208000D01*
X38944605Y-64231818D01*
X38743810Y-64302080D01*
X38563685Y-64415260D01*
X38413260Y-64565685D01*
X38300080Y-64745810D01*
X38206000Y-65158000D01*
X38229818Y-65369395D01*
X38300080Y-65570190D01*
X38413260Y-65750315D01*
X38563685Y-65900740D01*
X38743810Y-66013920D01*
X39156000Y-66108000D01*
X39367395Y-66084182D01*
X39568190Y-66013920D01*
X39748315Y-65900740D01*
X39898740Y-65750315D01*
X40011920Y-65570190D01*
X40106000Y-65158000D01*
G37*
G36*
X42606000Y-65158000D02*
X42582182Y-64946605D01*
X42511920Y-64745810D01*
X42398740Y-64565685D01*
X42248315Y-64415260D01*
X42068190Y-64302080D01*
X41656000Y-64208000D01*
X41444605Y-64231818D01*
X41243810Y-64302080D01*
X41063685Y-64415260D01*
X40913260Y-64565685D01*
X40800080Y-64745810D01*
X40706000Y-65158000D01*
X40729818Y-65369395D01*
X40800080Y-65570190D01*
X40913260Y-65750315D01*
X41063685Y-65900740D01*
X41243810Y-66013920D01*
X41656000Y-66108000D01*
X41867395Y-66084182D01*
X42068190Y-66013920D01*
X42248315Y-65900740D01*
X42398740Y-65750315D01*
X42511920Y-65570190D01*
X42606000Y-65158000D01*
G37*
G36*
X45106000Y-65158000D02*
X45082182Y-64946605D01*
X45011920Y-64745810D01*
X44898740Y-64565685D01*
X44748315Y-64415260D01*
X44568190Y-64302080D01*
X44156000Y-64208000D01*
X43944605Y-64231818D01*
X43743810Y-64302080D01*
X43563685Y-64415260D01*
X43413260Y-64565685D01*
X43300080Y-64745810D01*
X43206000Y-65158000D01*
X43229818Y-65369395D01*
X43300080Y-65570190D01*
X43413260Y-65750315D01*
X43563685Y-65900740D01*
X43743810Y-66013920D01*
X44156000Y-66108000D01*
X44367395Y-66084182D01*
X44568190Y-66013920D01*
X44748315Y-65900740D01*
X44898740Y-65750315D01*
X45011920Y-65570190D01*
X45106000Y-65158000D01*
G37*
G36*
X39606000Y-50658000D02*
X39582182Y-50446605D01*
X39511920Y-50245810D01*
X39398740Y-50065685D01*
X39248315Y-49915260D01*
X39068190Y-49802080D01*
X38656000Y-49708000D01*
X38444605Y-49731818D01*
X38243810Y-49802080D01*
X38063685Y-49915260D01*
X37913260Y-50065685D01*
X37800080Y-50245810D01*
X37706000Y-50658000D01*
X37729818Y-50869395D01*
X37800080Y-51070190D01*
X37913260Y-51250315D01*
X38063685Y-51400740D01*
X38243810Y-51513920D01*
X38656000Y-51608000D01*
X38867395Y-51584182D01*
X39068190Y-51513920D01*
X39248315Y-51400740D01*
X39398740Y-51250315D01*
X39511920Y-51070190D01*
X39606000Y-50658000D01*
G37*
G36*
X41606000Y-50658000D02*
X41582182Y-50446605D01*
X41511920Y-50245810D01*
X41398740Y-50065685D01*
X41248315Y-49915260D01*
X41068190Y-49802080D01*
X40656000Y-49708000D01*
X40444605Y-49731818D01*
X40243810Y-49802080D01*
X40063685Y-49915260D01*
X39913260Y-50065685D01*
X39800080Y-50245810D01*
X39706000Y-50658000D01*
X39729818Y-50869395D01*
X39800080Y-51070190D01*
X39913260Y-51250315D01*
X40063685Y-51400740D01*
X40243810Y-51513920D01*
X40656000Y-51608000D01*
X40867395Y-51584182D01*
X41068190Y-51513920D01*
X41248315Y-51400740D01*
X41398740Y-51250315D01*
X41511920Y-51070190D01*
X41606000Y-50658000D01*
G37*
G36*
X43606000Y-50658000D02*
X43582182Y-50446605D01*
X43511920Y-50245810D01*
X43398740Y-50065685D01*
X43248315Y-49915260D01*
X43068190Y-49802080D01*
X42656000Y-49708000D01*
X42444605Y-49731818D01*
X42243810Y-49802080D01*
X42063685Y-49915260D01*
X41913260Y-50065685D01*
X41800080Y-50245810D01*
X41706000Y-50658000D01*
X41729818Y-50869395D01*
X41800080Y-51070190D01*
X41913260Y-51250315D01*
X42063685Y-51400740D01*
X42243810Y-51513920D01*
X42656000Y-51608000D01*
X42867395Y-51584182D01*
X43068190Y-51513920D01*
X43248315Y-51400740D01*
X43398740Y-51250315D01*
X43511920Y-51070190D01*
X43606000Y-50658000D01*
G37*
G36*
X45606000Y-50658000D02*
X45582182Y-50446605D01*
X45511920Y-50245810D01*
X45398740Y-50065685D01*
X45248315Y-49915260D01*
X45068190Y-49802080D01*
X44656000Y-49708000D01*
X44444605Y-49731818D01*
X44243810Y-49802080D01*
X44063685Y-49915260D01*
X43913260Y-50065685D01*
X43800080Y-50245810D01*
X43706000Y-50658000D01*
X43729818Y-50869395D01*
X43800080Y-51070190D01*
X43913260Y-51250315D01*
X44063685Y-51400740D01*
X44243810Y-51513920D01*
X44656000Y-51608000D01*
X44867395Y-51584182D01*
X45068190Y-51513920D01*
X45248315Y-51400740D01*
X45398740Y-51250315D01*
X45511920Y-51070190D01*
X45606000Y-50658000D01*
G37*
G36*
X45656000Y-57658000D02*
X45679548Y-57388845D01*
X45749476Y-57127869D01*
X45863661Y-56883000D01*
X46018631Y-56661679D01*
X46209679Y-56470631D01*
X46431000Y-56315661D01*
X46675869Y-56201476D01*
X46936845Y-56131548D01*
X47206000Y-56108000D01*
X47475155Y-56131548D01*
X47736131Y-56201476D01*
X47981000Y-56315661D01*
X48202321Y-56470631D01*
X48393369Y-56661679D01*
X48548339Y-56883000D01*
X48662524Y-57127869D01*
X48756000Y-57658000D01*
X48732452Y-57927155D01*
X48662524Y-58188131D01*
X48548339Y-58433000D01*
X48393369Y-58654321D01*
X48202321Y-58845369D01*
X47981000Y-59000339D01*
X47736131Y-59114524D01*
X47475155Y-59184452D01*
X47206000Y-59208000D01*
X46936845Y-59184452D01*
X46675869Y-59114524D01*
X46431000Y-59000339D01*
X46209679Y-58845369D01*
X46018631Y-58654321D01*
X45863661Y-58433000D01*
X45749476Y-58188131D01*
X45679548Y-57927155D01*
X45656000Y-57658000D01*
G37*
G36*
X34556000Y-57658000D02*
X34579548Y-57388845D01*
X34649476Y-57127869D01*
X34763661Y-56883000D01*
X34918631Y-56661679D01*
X35109679Y-56470631D01*
X35331000Y-56315661D01*
X35575869Y-56201476D01*
X35836845Y-56131548D01*
X36106000Y-56108000D01*
X36375155Y-56131548D01*
X36636131Y-56201476D01*
X36881000Y-56315661D01*
X37102321Y-56470631D01*
X37293369Y-56661679D01*
X37448339Y-56883000D01*
X37562524Y-57127869D01*
X37656000Y-57658000D01*
X37632452Y-57927155D01*
X37562524Y-58188131D01*
X37448339Y-58433000D01*
X37293369Y-58654321D01*
X37102321Y-58845369D01*
X36881000Y-59000339D01*
X36636131Y-59114524D01*
X36375155Y-59184452D01*
X36106000Y-59208000D01*
X35836845Y-59184452D01*
X35575869Y-59114524D01*
X35331000Y-59000339D01*
X35109679Y-58845369D01*
X34918631Y-58654321D01*
X34763661Y-58433000D01*
X34649476Y-58188131D01*
X34579548Y-57927155D01*
X34556000Y-57658000D01*
G37*
G36*
X68661734Y-77379232D02*
X68871202Y-77465996D01*
X69059723Y-77591962D01*
X69220038Y-77752277D01*
X69346004Y-77940798D01*
X69432768Y-78150266D01*
X69477000Y-78372635D01*
X69477000Y-78599365D01*
X69432768Y-78821734D01*
X69346004Y-79031202D01*
X69220038Y-79219723D01*
X69059723Y-79380038D01*
X68871202Y-79506004D01*
X68661734Y-79592768D01*
X68439365Y-79637000D01*
X68212635Y-79637000D01*
X67990266Y-79592768D01*
X67780798Y-79506004D01*
X67592277Y-79380038D01*
X67431962Y-79219723D01*
X67305996Y-79031202D01*
X67219232Y-78821734D01*
X67175000Y-78599365D01*
X67175000Y-78372635D01*
X67219232Y-78150266D01*
X67305996Y-77940798D01*
X67431962Y-77752277D01*
X67592277Y-77591962D01*
X67780798Y-77465996D01*
X67990266Y-77379232D01*
X68212635Y-77335000D01*
X68439365Y-77335000D01*
X68661734Y-77379232D01*
X68661734Y-77379232D01*
G37*
G36*
X31069734Y-77379232D02*
X31279202Y-77465996D01*
X31467723Y-77591962D01*
X31628038Y-77752277D01*
X31754004Y-77940798D01*
X31840768Y-78150266D01*
X31885000Y-78372635D01*
X31885000Y-78599365D01*
X31840768Y-78821734D01*
X31754004Y-79031202D01*
X31628038Y-79219723D01*
X31467723Y-79380038D01*
X31279202Y-79506004D01*
X31069734Y-79592768D01*
X30847365Y-79637000D01*
X30620635Y-79637000D01*
X30398266Y-79592768D01*
X30188798Y-79506004D01*
X30000277Y-79380038D01*
X29839962Y-79219723D01*
X29713996Y-79031202D01*
X29627232Y-78821734D01*
X29583000Y-78599365D01*
X29583000Y-78372635D01*
X29627232Y-78150266D01*
X29713996Y-77940798D01*
X29839962Y-77752277D01*
X30000277Y-77591962D01*
X30188798Y-77465996D01*
X30398266Y-77379232D01*
X30620635Y-77335000D01*
X30847365Y-77335000D01*
X31069734Y-77379232D01*
X31069734Y-77379232D01*
G37*
G36*
X64151000Y-70755000D02*
X62849000Y-70755000D01*
X62849000Y-69453000D01*
X64151000Y-69453000D01*
X64151000Y-70755000D01*
X64151000Y-70755000D01*
G37*
G36*
X58024916Y-68295334D02*
X58133492Y-68328271D01*
X58233557Y-68381756D01*
X58321264Y-68453736D01*
X58384374Y-68530635D01*
X58401701Y-68547962D01*
X58422076Y-68561576D01*
X58444715Y-68570954D01*
X58468748Y-68575734D01*
X58493252Y-68575734D01*
X58517286Y-68570953D01*
X58539925Y-68561576D01*
X58560299Y-68547962D01*
X58577626Y-68530635D01*
X58591240Y-68510260D01*
X58600618Y-68487621D01*
X58606000Y-68451336D01*
X58606000Y-68287000D01*
X59758000Y-68287000D01*
X59758000Y-69889000D01*
X58606000Y-69889000D01*
X58606000Y-69724663D01*
X58603598Y-69700277D01*
X58596485Y-69676828D01*
X58584934Y-69655217D01*
X58569388Y-69636275D01*
X58550446Y-69620729D01*
X58528835Y-69609178D01*
X58505386Y-69602065D01*
X58481000Y-69599663D01*
X58456614Y-69602065D01*
X58433165Y-69609178D01*
X58411554Y-69620729D01*
X58384377Y-69645361D01*
X58321264Y-69722264D01*
X58233556Y-69794244D01*
X58133491Y-69847729D01*
X58024915Y-69880666D01*
X57912000Y-69891787D01*
X57799084Y-69880666D01*
X57690508Y-69847729D01*
X57590443Y-69794244D01*
X57502736Y-69722264D01*
X57430756Y-69634556D01*
X57387240Y-69553142D01*
X57373627Y-69532767D01*
X57356299Y-69515440D01*
X57335925Y-69501826D01*
X57313286Y-69492449D01*
X57289253Y-69487668D01*
X57264748Y-69487668D01*
X57240715Y-69492448D01*
X57218076Y-69501826D01*
X57197701Y-69515439D01*
X57180374Y-69532767D01*
X57166767Y-69553131D01*
X57123244Y-69634557D01*
X57051264Y-69722264D01*
X56963556Y-69794244D01*
X56863491Y-69847729D01*
X56754915Y-69880666D01*
X56642000Y-69891787D01*
X56529084Y-69880666D01*
X56420508Y-69847729D01*
X56320443Y-69794244D01*
X56232736Y-69722264D01*
X56160756Y-69634556D01*
X56107271Y-69534491D01*
X56074334Y-69425915D01*
X56066000Y-69341297D01*
X56066000Y-68834702D01*
X56074334Y-68750084D01*
X56107271Y-68641508D01*
X56144983Y-68570954D01*
X56160755Y-68541446D01*
X56179183Y-68518992D01*
X56232737Y-68453736D01*
X56320444Y-68381756D01*
X56420509Y-68328271D01*
X56529085Y-68295334D01*
X56642000Y-68284213D01*
X56754916Y-68295334D01*
X56863492Y-68328271D01*
X56963557Y-68381756D01*
X57051264Y-68453736D01*
X57123244Y-68541443D01*
X57166760Y-68622857D01*
X57180373Y-68643232D01*
X57197701Y-68660559D01*
X57218075Y-68674173D01*
X57240714Y-68683550D01*
X57264747Y-68688331D01*
X57289252Y-68688331D01*
X57313285Y-68683551D01*
X57335924Y-68674173D01*
X57356299Y-68660560D01*
X57373626Y-68643232D01*
X57387240Y-68622857D01*
X57430755Y-68541446D01*
X57449183Y-68518992D01*
X57502737Y-68453736D01*
X57590444Y-68381756D01*
X57690509Y-68328271D01*
X57799085Y-68295334D01*
X57912000Y-68284213D01*
X58024916Y-68295334D01*
X58024916Y-68295334D01*
G37*
G36*
X53760821Y-67741313D02*
X53760824Y-67741314D01*
X53760825Y-67741314D01*
X53921239Y-67789975D01*
X53921241Y-67789976D01*
X53921244Y-67789977D01*
X54069078Y-67868995D01*
X54198659Y-67975341D01*
X54305005Y-68104922D01*
X54384023Y-68252756D01*
X54384024Y-68252759D01*
X54384025Y-68252761D01*
X54423155Y-68381756D01*
X54432687Y-68413179D01*
X54449117Y-68580000D01*
X54432687Y-68746821D01*
X54432686Y-68746824D01*
X54432686Y-68746825D01*
X54406029Y-68834703D01*
X54384023Y-68907244D01*
X54305005Y-69055078D01*
X54198659Y-69184659D01*
X54069078Y-69291005D01*
X53921244Y-69370023D01*
X53921241Y-69370024D01*
X53921239Y-69370025D01*
X53760825Y-69418686D01*
X53760824Y-69418686D01*
X53760821Y-69418687D01*
X53635804Y-69431000D01*
X53552196Y-69431000D01*
X53427179Y-69418687D01*
X53427176Y-69418686D01*
X53427175Y-69418686D01*
X53266761Y-69370025D01*
X53266759Y-69370024D01*
X53266756Y-69370023D01*
X53118922Y-69291005D01*
X52989341Y-69184659D01*
X52882995Y-69055078D01*
X52803977Y-68907244D01*
X52781972Y-68834703D01*
X52755314Y-68746825D01*
X52755314Y-68746824D01*
X52755313Y-68746821D01*
X52738883Y-68580000D01*
X52755313Y-68413179D01*
X52764845Y-68381756D01*
X52803975Y-68252761D01*
X52803976Y-68252759D01*
X52803977Y-68252756D01*
X52882995Y-68104922D01*
X52989341Y-67975341D01*
X53118922Y-67868995D01*
X53266756Y-67789977D01*
X53266759Y-67789976D01*
X53266761Y-67789975D01*
X53427175Y-67741314D01*
X53427176Y-67741314D01*
X53427179Y-67741313D01*
X53552196Y-67729000D01*
X53635804Y-67729000D01*
X53760821Y-67741313D01*
X53760821Y-67741313D01*
G37*
G36*
X35472821Y-67741313D02*
X35472824Y-67741314D01*
X35472825Y-67741314D01*
X35633239Y-67789975D01*
X35633241Y-67789976D01*
X35633244Y-67789977D01*
X35781078Y-67868995D01*
X35910659Y-67975341D01*
X36017005Y-68104922D01*
X36096023Y-68252756D01*
X36096024Y-68252759D01*
X36096025Y-68252761D01*
X36135155Y-68381756D01*
X36144687Y-68413179D01*
X36161117Y-68580000D01*
X36144687Y-68746821D01*
X36144686Y-68746824D01*
X36144686Y-68746825D01*
X36118029Y-68834703D01*
X36096023Y-68907244D01*
X36017005Y-69055078D01*
X35910659Y-69184659D01*
X35781078Y-69291005D01*
X35633244Y-69370023D01*
X35633241Y-69370024D01*
X35633239Y-69370025D01*
X35472825Y-69418686D01*
X35472824Y-69418686D01*
X35472821Y-69418687D01*
X35347804Y-69431000D01*
X35264196Y-69431000D01*
X35139179Y-69418687D01*
X35139176Y-69418686D01*
X35139175Y-69418686D01*
X34978761Y-69370025D01*
X34978759Y-69370024D01*
X34978756Y-69370023D01*
X34830922Y-69291005D01*
X34701341Y-69184659D01*
X34594995Y-69055078D01*
X34515977Y-68907244D01*
X34493972Y-68834703D01*
X34467314Y-68746825D01*
X34467314Y-68746824D01*
X34467313Y-68746821D01*
X34450883Y-68580000D01*
X34467313Y-68413179D01*
X34476845Y-68381756D01*
X34515975Y-68252761D01*
X34515976Y-68252759D01*
X34515977Y-68252756D01*
X34594995Y-68104922D01*
X34701341Y-67975341D01*
X34830922Y-67868995D01*
X34978756Y-67789977D01*
X34978759Y-67789976D01*
X34978761Y-67789975D01*
X35139175Y-67741314D01*
X35139176Y-67741314D01*
X35139179Y-67741313D01*
X35264196Y-67729000D01*
X35347804Y-67729000D01*
X35472821Y-67741313D01*
X35472821Y-67741313D01*
G37*
G36*
X43174228Y-67761703D02*
X43329100Y-67825853D01*
X43468481Y-67918985D01*
X43587015Y-68037519D01*
X43680147Y-68176900D01*
X43744297Y-68331772D01*
X43777000Y-68496184D01*
X43777000Y-68663816D01*
X43744297Y-68828228D01*
X43680147Y-68983100D01*
X43587015Y-69122481D01*
X43468481Y-69241015D01*
X43329100Y-69334147D01*
X43174228Y-69398297D01*
X43009816Y-69431000D01*
X42842184Y-69431000D01*
X42677772Y-69398297D01*
X42522900Y-69334147D01*
X42383519Y-69241015D01*
X42264985Y-69122481D01*
X42171853Y-68983100D01*
X42107703Y-68828228D01*
X42075000Y-68663816D01*
X42075000Y-68496184D01*
X42107703Y-68331772D01*
X42171853Y-68176900D01*
X42264985Y-68037519D01*
X42383519Y-67918985D01*
X42522900Y-67825853D01*
X42677772Y-67761703D01*
X42842184Y-67729000D01*
X43009816Y-67729000D01*
X43174228Y-67761703D01*
X43174228Y-67761703D01*
G37*
G36*
X46825000Y-69431000D02*
X45123000Y-69431000D01*
X45123000Y-67729000D01*
X46825000Y-67729000D01*
X46825000Y-69431000D01*
X46825000Y-69431000D01*
G37*
G36*
X63689890Y-67478017D02*
X63808361Y-67527089D01*
X63914992Y-67598338D01*
X64005662Y-67689008D01*
X64076911Y-67795639D01*
X64125983Y-67914110D01*
X64151000Y-68039881D01*
X64151000Y-68168119D01*
X64125983Y-68293890D01*
X64076911Y-68412361D01*
X64005662Y-68518992D01*
X63914992Y-68609662D01*
X63914989Y-68609664D01*
X63914988Y-68609665D01*
X63838820Y-68660559D01*
X63808361Y-68680911D01*
X63689890Y-68729983D01*
X63564119Y-68755000D01*
X63435881Y-68755000D01*
X63310110Y-68729983D01*
X63191639Y-68680911D01*
X63161180Y-68660559D01*
X63085012Y-68609665D01*
X63085011Y-68609664D01*
X63085008Y-68609662D01*
X62994338Y-68518992D01*
X62923089Y-68412361D01*
X62874017Y-68293890D01*
X62849000Y-68168119D01*
X62849000Y-68039881D01*
X62874017Y-67914110D01*
X62923089Y-67795639D01*
X62994338Y-67689008D01*
X63085008Y-67598338D01*
X63191639Y-67527089D01*
X63310110Y-67478017D01*
X63435881Y-67453000D01*
X63564119Y-67453000D01*
X63689890Y-67478017D01*
X63689890Y-67478017D01*
G37*
G36*
X41851403Y-64175646D02*
X41948156Y-64194891D01*
X42023658Y-64226165D01*
X42130434Y-64270393D01*
X42294486Y-64380009D01*
X42433991Y-64519514D01*
X42543607Y-64683566D01*
X42619109Y-64865845D01*
X42657600Y-65059350D01*
X42657600Y-65256650D01*
X42619109Y-65450155D01*
X42543607Y-65632434D01*
X42433991Y-65796486D01*
X42294486Y-65935991D01*
X42130434Y-66045607D01*
X42023658Y-66089835D01*
X41948156Y-66121109D01*
X41851403Y-66140354D01*
X41754650Y-66159600D01*
X41557350Y-66159600D01*
X41460597Y-66140354D01*
X41363844Y-66121109D01*
X41288342Y-66089835D01*
X41181566Y-66045607D01*
X41017514Y-65935991D01*
X40878009Y-65796486D01*
X40768393Y-65632434D01*
X40692891Y-65450155D01*
X40654400Y-65256650D01*
X40654400Y-65059350D01*
X40692891Y-64865845D01*
X40768393Y-64683566D01*
X40878009Y-64519514D01*
X41017514Y-64380009D01*
X41181566Y-64270393D01*
X41288342Y-64226165D01*
X41363844Y-64194891D01*
X41460597Y-64175646D01*
X41557350Y-64156400D01*
X41754650Y-64156400D01*
X41851403Y-64175646D01*
X41851403Y-64175646D01*
G37*
G36*
X44351403Y-64175646D02*
X44448156Y-64194891D01*
X44523658Y-64226165D01*
X44630434Y-64270393D01*
X44794486Y-64380009D01*
X44933991Y-64519514D01*
X45043607Y-64683566D01*
X45119109Y-64865845D01*
X45157600Y-65059350D01*
X45157600Y-65256650D01*
X45119109Y-65450155D01*
X45043607Y-65632434D01*
X44933991Y-65796486D01*
X44794486Y-65935991D01*
X44630434Y-66045607D01*
X44523658Y-66089835D01*
X44448156Y-66121109D01*
X44351403Y-66140354D01*
X44254650Y-66159600D01*
X44057350Y-66159600D01*
X43960597Y-66140354D01*
X43863844Y-66121109D01*
X43788342Y-66089835D01*
X43681566Y-66045607D01*
X43517514Y-65935991D01*
X43378009Y-65796486D01*
X43268393Y-65632434D01*
X43192891Y-65450155D01*
X43154400Y-65256650D01*
X43154400Y-65059350D01*
X43192891Y-64865845D01*
X43268393Y-64683566D01*
X43378009Y-64519514D01*
X43517514Y-64380009D01*
X43681566Y-64270393D01*
X43788342Y-64226165D01*
X43863844Y-64194891D01*
X43960597Y-64175646D01*
X44057350Y-64156400D01*
X44254650Y-64156400D01*
X44351403Y-64175646D01*
X44351403Y-64175646D01*
G37*
G36*
X39351403Y-64175646D02*
X39448156Y-64194891D01*
X39523658Y-64226165D01*
X39630434Y-64270393D01*
X39794486Y-64380009D01*
X39933991Y-64519514D01*
X40043607Y-64683566D01*
X40119109Y-64865845D01*
X40157600Y-65059350D01*
X40157600Y-65256650D01*
X40119109Y-65450155D01*
X40043607Y-65632434D01*
X39933991Y-65796486D01*
X39794486Y-65935991D01*
X39630434Y-66045607D01*
X39523658Y-66089835D01*
X39448156Y-66121109D01*
X39351403Y-66140354D01*
X39254650Y-66159600D01*
X39057350Y-66159600D01*
X38960597Y-66140354D01*
X38863844Y-66121109D01*
X38788342Y-66089835D01*
X38681566Y-66045607D01*
X38517514Y-65935991D01*
X38378009Y-65796486D01*
X38268393Y-65632434D01*
X38192891Y-65450155D01*
X38154400Y-65256650D01*
X38154400Y-65059350D01*
X38192891Y-64865845D01*
X38268393Y-64683566D01*
X38378009Y-64519514D01*
X38517514Y-64380009D01*
X38681566Y-64270393D01*
X38788342Y-64226165D01*
X38863844Y-64194891D01*
X38960597Y-64175646D01*
X39057350Y-64156400D01*
X39254650Y-64156400D01*
X39351403Y-64175646D01*
X39351403Y-64175646D01*
G37*
G36*
X53138565Y-63941389D02*
X53329834Y-64020615D01*
X53501976Y-64135637D01*
X53648363Y-64282024D01*
X53763385Y-64454166D01*
X53842611Y-64645435D01*
X53883000Y-64848484D01*
X53883000Y-65055516D01*
X53842611Y-65258565D01*
X53763385Y-65449834D01*
X53648363Y-65621976D01*
X53501976Y-65768363D01*
X53329834Y-65883385D01*
X53138565Y-65962611D01*
X52935516Y-66003000D01*
X52728484Y-66003000D01*
X52525435Y-65962611D01*
X52334166Y-65883385D01*
X52162024Y-65768363D01*
X52015637Y-65621976D01*
X51900615Y-65449834D01*
X51821389Y-65258565D01*
X51781000Y-65055516D01*
X51781000Y-64848484D01*
X51821389Y-64645435D01*
X51900615Y-64454166D01*
X52015637Y-64282024D01*
X52162024Y-64135637D01*
X52334166Y-64020615D01*
X52525435Y-63941389D01*
X52728484Y-63901000D01*
X52935516Y-63901000D01*
X53138565Y-63941389D01*
X53138565Y-63941389D01*
G37*
G36*
X59638565Y-63941389D02*
X59829834Y-64020615D01*
X60001976Y-64135637D01*
X60148363Y-64282024D01*
X60263385Y-64454166D01*
X60342611Y-64645435D01*
X60383000Y-64848484D01*
X60383000Y-65055516D01*
X60342611Y-65258565D01*
X60263385Y-65449834D01*
X60148363Y-65621976D01*
X60001976Y-65768363D01*
X59829834Y-65883385D01*
X59638565Y-65962611D01*
X59435516Y-66003000D01*
X59228484Y-66003000D01*
X59025435Y-65962611D01*
X58834166Y-65883385D01*
X58662024Y-65768363D01*
X58515637Y-65621976D01*
X58400615Y-65449834D01*
X58321389Y-65258565D01*
X58281000Y-65055516D01*
X58281000Y-64848484D01*
X58321389Y-64645435D01*
X58400615Y-64454166D01*
X58515637Y-64282024D01*
X58662024Y-64135637D01*
X58834166Y-64020615D01*
X59025435Y-63941389D01*
X59228484Y-63901000D01*
X59435516Y-63901000D01*
X59638565Y-63941389D01*
X59638565Y-63941389D01*
G37*
G36*
X53138565Y-59441389D02*
X53329834Y-59520615D01*
X53501976Y-59635637D01*
X53648363Y-59782024D01*
X53763385Y-59954166D01*
X53842611Y-60145435D01*
X53883000Y-60348484D01*
X53883000Y-60555516D01*
X53842611Y-60758565D01*
X53763385Y-60949834D01*
X53648363Y-61121976D01*
X53501976Y-61268363D01*
X53329834Y-61383385D01*
X53138565Y-61462611D01*
X52935516Y-61503000D01*
X52728484Y-61503000D01*
X52525435Y-61462611D01*
X52334166Y-61383385D01*
X52162024Y-61268363D01*
X52015637Y-61121976D01*
X51900615Y-60949834D01*
X51821389Y-60758565D01*
X51781000Y-60555516D01*
X51781000Y-60348484D01*
X51821389Y-60145435D01*
X51900615Y-59954166D01*
X52015637Y-59782024D01*
X52162024Y-59635637D01*
X52334166Y-59520615D01*
X52525435Y-59441389D01*
X52728484Y-59401000D01*
X52935516Y-59401000D01*
X53138565Y-59441389D01*
X53138565Y-59441389D01*
G37*
G36*
X59638565Y-59441389D02*
X59829834Y-59520615D01*
X60001976Y-59635637D01*
X60148363Y-59782024D01*
X60263385Y-59954166D01*
X60342611Y-60145435D01*
X60383000Y-60348484D01*
X60383000Y-60555516D01*
X60342611Y-60758565D01*
X60263385Y-60949834D01*
X60148363Y-61121976D01*
X60001976Y-61268363D01*
X59829834Y-61383385D01*
X59638565Y-61462611D01*
X59435516Y-61503000D01*
X59228484Y-61503000D01*
X59025435Y-61462611D01*
X58834166Y-61383385D01*
X58662024Y-61268363D01*
X58515637Y-61121976D01*
X58400615Y-60949834D01*
X58321389Y-60758565D01*
X58281000Y-60555516D01*
X58281000Y-60348484D01*
X58321389Y-60145435D01*
X58400615Y-59954166D01*
X58515637Y-59782024D01*
X58662024Y-59635637D01*
X58834166Y-59520615D01*
X59025435Y-59441389D01*
X59228484Y-59401000D01*
X59435516Y-59401000D01*
X59638565Y-59441389D01*
X59638565Y-59441389D01*
G37*
G36*
X36590085Y-56062177D02*
X36892116Y-56187282D01*
X37163936Y-56368907D01*
X37395093Y-56600064D01*
X37576718Y-56871884D01*
X37701823Y-57173915D01*
X37765600Y-57494542D01*
X37765600Y-57821458D01*
X37701823Y-58142085D01*
X37576718Y-58444116D01*
X37395093Y-58715936D01*
X37163936Y-58947093D01*
X36892116Y-59128718D01*
X36590085Y-59253823D01*
X36269458Y-59317600D01*
X35942542Y-59317600D01*
X35621915Y-59253823D01*
X35319884Y-59128718D01*
X35048064Y-58947093D01*
X34816907Y-58715936D01*
X34635282Y-58444116D01*
X34510177Y-58142085D01*
X34446400Y-57821458D01*
X34446400Y-57494542D01*
X34510177Y-57173915D01*
X34635282Y-56871884D01*
X34816907Y-56600064D01*
X35048064Y-56368907D01*
X35319884Y-56187282D01*
X35621915Y-56062177D01*
X35942542Y-55998400D01*
X36269458Y-55998400D01*
X36590085Y-56062177D01*
X36590085Y-56062177D01*
G37*
G36*
X47690085Y-56062177D02*
X47992116Y-56187282D01*
X48263936Y-56368907D01*
X48495093Y-56600064D01*
X48676718Y-56871884D01*
X48801823Y-57173915D01*
X48865600Y-57494542D01*
X48865600Y-57821458D01*
X48801823Y-58142085D01*
X48676718Y-58444116D01*
X48495093Y-58715936D01*
X48263936Y-58947093D01*
X47992116Y-59128718D01*
X47690085Y-59253823D01*
X47369458Y-59317600D01*
X47042542Y-59317600D01*
X46721915Y-59253823D01*
X46419884Y-59128718D01*
X46148064Y-58947093D01*
X45916907Y-58715936D01*
X45735282Y-58444116D01*
X45610177Y-58142085D01*
X45546400Y-57821458D01*
X45546400Y-57494542D01*
X45610177Y-57173915D01*
X45735282Y-56871884D01*
X45916907Y-56600064D01*
X46148064Y-56368907D01*
X46419884Y-56187282D01*
X46721915Y-56062177D01*
X47042542Y-55998400D01*
X47369458Y-55998400D01*
X47690085Y-56062177D01*
X47690085Y-56062177D01*
G37*
G36*
X59638565Y-54289389D02*
X59829834Y-54368615D01*
X60001976Y-54483637D01*
X60148363Y-54630024D01*
X60263385Y-54802166D01*
X60342611Y-54993435D01*
X60383000Y-55196484D01*
X60383000Y-55403516D01*
X60342611Y-55606565D01*
X60263385Y-55797834D01*
X60148363Y-55969976D01*
X60001976Y-56116363D01*
X59829834Y-56231385D01*
X59638565Y-56310611D01*
X59435516Y-56351000D01*
X59228484Y-56351000D01*
X59025435Y-56310611D01*
X58834166Y-56231385D01*
X58662024Y-56116363D01*
X58515637Y-55969976D01*
X58400615Y-55797834D01*
X58321389Y-55606565D01*
X58281000Y-55403516D01*
X58281000Y-55196484D01*
X58321389Y-54993435D01*
X58400615Y-54802166D01*
X58515637Y-54630024D01*
X58662024Y-54483637D01*
X58834166Y-54368615D01*
X59025435Y-54289389D01*
X59228484Y-54249000D01*
X59435516Y-54249000D01*
X59638565Y-54289389D01*
X59638565Y-54289389D01*
G37*
G36*
X53138565Y-54289389D02*
X53329834Y-54368615D01*
X53501976Y-54483637D01*
X53648363Y-54630024D01*
X53763385Y-54802166D01*
X53842611Y-54993435D01*
X53883000Y-55196484D01*
X53883000Y-55403516D01*
X53842611Y-55606565D01*
X53763385Y-55797834D01*
X53648363Y-55969976D01*
X53501976Y-56116363D01*
X53329834Y-56231385D01*
X53138565Y-56310611D01*
X52935516Y-56351000D01*
X52728484Y-56351000D01*
X52525435Y-56310611D01*
X52334166Y-56231385D01*
X52162024Y-56116363D01*
X52015637Y-55969976D01*
X51900615Y-55797834D01*
X51821389Y-55606565D01*
X51781000Y-55403516D01*
X51781000Y-55196484D01*
X51821389Y-54993435D01*
X51900615Y-54802166D01*
X52015637Y-54630024D01*
X52162024Y-54483637D01*
X52334166Y-54368615D01*
X52525435Y-54289389D01*
X52728484Y-54249000D01*
X52935516Y-54249000D01*
X53138565Y-54289389D01*
X53138565Y-54289389D01*
G37*
G36*
X59638565Y-49789389D02*
X59829834Y-49868615D01*
X60001976Y-49983637D01*
X60148363Y-50130024D01*
X60263385Y-50302166D01*
X60342611Y-50493435D01*
X60383000Y-50696484D01*
X60383000Y-50903516D01*
X60342611Y-51106565D01*
X60263385Y-51297834D01*
X60148363Y-51469976D01*
X60001976Y-51616363D01*
X59829834Y-51731385D01*
X59638565Y-51810611D01*
X59435516Y-51851000D01*
X59228484Y-51851000D01*
X59025435Y-51810611D01*
X58834166Y-51731385D01*
X58662024Y-51616363D01*
X58515637Y-51469976D01*
X58400615Y-51297834D01*
X58321389Y-51106565D01*
X58281000Y-50903516D01*
X58281000Y-50696484D01*
X58321389Y-50493435D01*
X58400615Y-50302166D01*
X58515637Y-50130024D01*
X58662024Y-49983637D01*
X58834166Y-49868615D01*
X59025435Y-49789389D01*
X59228484Y-49749000D01*
X59435516Y-49749000D01*
X59638565Y-49789389D01*
X59638565Y-49789389D01*
G37*
G36*
X53138565Y-49789389D02*
X53329834Y-49868615D01*
X53501976Y-49983637D01*
X53648363Y-50130024D01*
X53763385Y-50302166D01*
X53842611Y-50493435D01*
X53883000Y-50696484D01*
X53883000Y-50903516D01*
X53842611Y-51106565D01*
X53763385Y-51297834D01*
X53648363Y-51469976D01*
X53501976Y-51616363D01*
X53329834Y-51731385D01*
X53138565Y-51810611D01*
X52935516Y-51851000D01*
X52728484Y-51851000D01*
X52525435Y-51810611D01*
X52334166Y-51731385D01*
X52162024Y-51616363D01*
X52015637Y-51469976D01*
X51900615Y-51297834D01*
X51821389Y-51106565D01*
X51781000Y-50903516D01*
X51781000Y-50696484D01*
X51821389Y-50493435D01*
X51900615Y-50302166D01*
X52015637Y-50130024D01*
X52162024Y-49983637D01*
X52334166Y-49868615D01*
X52525435Y-49789389D01*
X52728484Y-49749000D01*
X52935516Y-49749000D01*
X53138565Y-49789389D01*
X53138565Y-49789389D01*
G37*
G36*
X38944947Y-49705468D02*
X39125224Y-49780141D01*
X39287474Y-49888553D01*
X39425447Y-50026526D01*
X39533859Y-50188775D01*
X39540515Y-50204845D01*
X39552066Y-50226456D01*
X39567611Y-50245398D01*
X39586553Y-50260944D01*
X39608164Y-50272495D01*
X39631613Y-50279608D01*
X39656000Y-50282010D01*
X39680386Y-50279608D01*
X39703835Y-50272495D01*
X39725446Y-50260944D01*
X39744388Y-50245399D01*
X39759934Y-50226457D01*
X39771485Y-50204845D01*
X39778141Y-50188775D01*
X39886553Y-50026526D01*
X40024526Y-49888553D01*
X40186776Y-49780141D01*
X40367053Y-49705468D01*
X40558433Y-49667400D01*
X40753567Y-49667400D01*
X40944947Y-49705468D01*
X41125224Y-49780141D01*
X41287474Y-49888553D01*
X41425447Y-50026526D01*
X41533859Y-50188775D01*
X41540515Y-50204845D01*
X41552066Y-50226456D01*
X41567611Y-50245398D01*
X41586553Y-50260944D01*
X41608164Y-50272495D01*
X41631613Y-50279608D01*
X41656000Y-50282010D01*
X41680386Y-50279608D01*
X41703835Y-50272495D01*
X41725446Y-50260944D01*
X41744388Y-50245399D01*
X41759934Y-50226457D01*
X41771485Y-50204845D01*
X41778141Y-50188775D01*
X41886553Y-50026526D01*
X42024526Y-49888553D01*
X42186776Y-49780141D01*
X42367053Y-49705468D01*
X42558433Y-49667400D01*
X42753567Y-49667400D01*
X42944947Y-49705468D01*
X43125224Y-49780141D01*
X43287474Y-49888553D01*
X43425447Y-50026526D01*
X43533859Y-50188775D01*
X43540515Y-50204845D01*
X43552066Y-50226456D01*
X43567611Y-50245398D01*
X43586553Y-50260944D01*
X43608164Y-50272495D01*
X43631613Y-50279608D01*
X43656000Y-50282010D01*
X43680386Y-50279608D01*
X43703835Y-50272495D01*
X43725446Y-50260944D01*
X43744388Y-50245399D01*
X43759934Y-50226457D01*
X43771485Y-50204845D01*
X43778141Y-50188775D01*
X43886553Y-50026526D01*
X44024526Y-49888553D01*
X44186776Y-49780141D01*
X44367053Y-49705468D01*
X44558433Y-49667400D01*
X44753567Y-49667400D01*
X44944947Y-49705468D01*
X45125224Y-49780141D01*
X45287474Y-49888553D01*
X45425447Y-50026526D01*
X45533859Y-50188776D01*
X45608532Y-50369053D01*
X45646600Y-50560433D01*
X45646600Y-50755567D01*
X45608532Y-50946947D01*
X45533859Y-51127224D01*
X45425447Y-51289474D01*
X45287474Y-51427447D01*
X45125224Y-51535859D01*
X44944947Y-51610532D01*
X44753567Y-51648600D01*
X44558433Y-51648600D01*
X44367053Y-51610532D01*
X44186776Y-51535859D01*
X44024526Y-51427447D01*
X43886553Y-51289474D01*
X43778141Y-51127225D01*
X43771485Y-51111155D01*
X43759934Y-51089544D01*
X43744389Y-51070602D01*
X43725447Y-51055056D01*
X43703836Y-51043505D01*
X43680387Y-51036392D01*
X43656000Y-51033990D01*
X43631614Y-51036392D01*
X43608165Y-51043505D01*
X43586554Y-51055056D01*
X43567612Y-51070601D01*
X43552066Y-51089543D01*
X43540515Y-51111155D01*
X43533859Y-51127225D01*
X43425447Y-51289474D01*
X43287474Y-51427447D01*
X43125224Y-51535859D01*
X42944947Y-51610532D01*
X42753567Y-51648600D01*
X42558433Y-51648600D01*
X42367053Y-51610532D01*
X42186776Y-51535859D01*
X42024526Y-51427447D01*
X41886553Y-51289474D01*
X41778141Y-51127225D01*
X41771485Y-51111155D01*
X41759934Y-51089544D01*
X41744389Y-51070602D01*
X41725447Y-51055056D01*
X41703836Y-51043505D01*
X41680387Y-51036392D01*
X41656000Y-51033990D01*
X41631614Y-51036392D01*
X41608165Y-51043505D01*
X41586554Y-51055056D01*
X41567612Y-51070601D01*
X41552066Y-51089543D01*
X41540515Y-51111155D01*
X41533859Y-51127225D01*
X41425447Y-51289474D01*
X41287474Y-51427447D01*
X41125224Y-51535859D01*
X40944947Y-51610532D01*
X40753567Y-51648600D01*
X40558433Y-51648600D01*
X40367053Y-51610532D01*
X40186776Y-51535859D01*
X40024526Y-51427447D01*
X39886553Y-51289474D01*
X39778141Y-51127225D01*
X39771485Y-51111155D01*
X39759934Y-51089544D01*
X39744389Y-51070602D01*
X39725447Y-51055056D01*
X39703836Y-51043505D01*
X39680387Y-51036392D01*
X39656000Y-51033990D01*
X39631614Y-51036392D01*
X39608165Y-51043505D01*
X39586554Y-51055056D01*
X39567612Y-51070601D01*
X39552066Y-51089543D01*
X39540515Y-51111155D01*
X39533859Y-51127225D01*
X39425447Y-51289474D01*
X39287474Y-51427447D01*
X39125224Y-51535859D01*
X38944947Y-51610532D01*
X38753567Y-51648600D01*
X38558433Y-51648600D01*
X38367053Y-51610532D01*
X38186776Y-51535859D01*
X38024526Y-51427447D01*
X37886553Y-51289474D01*
X37778141Y-51127224D01*
X37703468Y-50946947D01*
X37665400Y-50755567D01*
X37665400Y-50560433D01*
X37703468Y-50369053D01*
X37778141Y-50188776D01*
X37886553Y-50026526D01*
X38024526Y-49888553D01*
X38186776Y-49780141D01*
X38367053Y-49705468D01*
X38558433Y-49667400D01*
X38753567Y-49667400D01*
X38944947Y-49705468D01*
X38944947Y-49705468D01*
G37*
G36*
X56382228Y-43885703D02*
X56537100Y-43949853D01*
X56676481Y-44042985D01*
X56795015Y-44161519D01*
X56888147Y-44300900D01*
X56952297Y-44455772D01*
X56985000Y-44620184D01*
X56985000Y-44787816D01*
X56952297Y-44952228D01*
X56888147Y-45107100D01*
X56795015Y-45246481D01*
X56676481Y-45365015D01*
X56537100Y-45458147D01*
X56382228Y-45522297D01*
X56217816Y-45555000D01*
X56050184Y-45555000D01*
X55885772Y-45522297D01*
X55730900Y-45458147D01*
X55591519Y-45365015D01*
X55472985Y-45246481D01*
X55379853Y-45107100D01*
X55315703Y-44952228D01*
X55283000Y-44787816D01*
X55283000Y-44620184D01*
X55315703Y-44455772D01*
X55379853Y-44300900D01*
X55472985Y-44161519D01*
X55591519Y-44042985D01*
X55730900Y-43949853D01*
X55885772Y-43885703D01*
X56050184Y-43853000D01*
X56217816Y-43853000D01*
X56382228Y-43885703D01*
X56382228Y-43885703D01*
G37*
G36*
X66542228Y-43885703D02*
X66697100Y-43949853D01*
X66836481Y-44042985D01*
X66955015Y-44161519D01*
X67048147Y-44300900D01*
X67112297Y-44455772D01*
X67145000Y-44620184D01*
X67145000Y-44787816D01*
X67112297Y-44952228D01*
X67048147Y-45107100D01*
X66955015Y-45246481D01*
X66836481Y-45365015D01*
X66697100Y-45458147D01*
X66542228Y-45522297D01*
X66377816Y-45555000D01*
X66210184Y-45555000D01*
X66045772Y-45522297D01*
X65890900Y-45458147D01*
X65751519Y-45365015D01*
X65632985Y-45246481D01*
X65539853Y-45107100D01*
X65475703Y-44952228D01*
X65443000Y-44787816D01*
X65443000Y-44620184D01*
X65475703Y-44455772D01*
X65539853Y-44300900D01*
X65632985Y-44161519D01*
X65751519Y-44042985D01*
X65890900Y-43949853D01*
X66045772Y-43885703D01*
X66210184Y-43853000D01*
X66377816Y-43853000D01*
X66542228Y-43885703D01*
X66542228Y-43885703D01*
G37*
G36*
X64002228Y-43885703D02*
X64157100Y-43949853D01*
X64296481Y-44042985D01*
X64415015Y-44161519D01*
X64508147Y-44300900D01*
X64572297Y-44455772D01*
X64605000Y-44620184D01*
X64605000Y-44787816D01*
X64572297Y-44952228D01*
X64508147Y-45107100D01*
X64415015Y-45246481D01*
X64296481Y-45365015D01*
X64157100Y-45458147D01*
X64002228Y-45522297D01*
X63837816Y-45555000D01*
X63670184Y-45555000D01*
X63505772Y-45522297D01*
X63350900Y-45458147D01*
X63211519Y-45365015D01*
X63092985Y-45246481D01*
X62999853Y-45107100D01*
X62935703Y-44952228D01*
X62903000Y-44787816D01*
X62903000Y-44620184D01*
X62935703Y-44455772D01*
X62999853Y-44300900D01*
X63092985Y-44161519D01*
X63211519Y-44042985D01*
X63350900Y-43949853D01*
X63505772Y-43885703D01*
X63670184Y-43853000D01*
X63837816Y-43853000D01*
X64002228Y-43885703D01*
X64002228Y-43885703D01*
G37*
G36*
X61462228Y-43885703D02*
X61617100Y-43949853D01*
X61756481Y-44042985D01*
X61875015Y-44161519D01*
X61968147Y-44300900D01*
X62032297Y-44455772D01*
X62065000Y-44620184D01*
X62065000Y-44787816D01*
X62032297Y-44952228D01*
X61968147Y-45107100D01*
X61875015Y-45246481D01*
X61756481Y-45365015D01*
X61617100Y-45458147D01*
X61462228Y-45522297D01*
X61297816Y-45555000D01*
X61130184Y-45555000D01*
X60965772Y-45522297D01*
X60810900Y-45458147D01*
X60671519Y-45365015D01*
X60552985Y-45246481D01*
X60459853Y-45107100D01*
X60395703Y-44952228D01*
X60363000Y-44787816D01*
X60363000Y-44620184D01*
X60395703Y-44455772D01*
X60459853Y-44300900D01*
X60552985Y-44161519D01*
X60671519Y-44042985D01*
X60810900Y-43949853D01*
X60965772Y-43885703D01*
X61130184Y-43853000D01*
X61297816Y-43853000D01*
X61462228Y-43885703D01*
X61462228Y-43885703D01*
G37*
G36*
X58922228Y-43885703D02*
X59077100Y-43949853D01*
X59216481Y-44042985D01*
X59335015Y-44161519D01*
X59428147Y-44300900D01*
X59492297Y-44455772D01*
X59525000Y-44620184D01*
X59525000Y-44787816D01*
X59492297Y-44952228D01*
X59428147Y-45107100D01*
X59335015Y-45246481D01*
X59216481Y-45365015D01*
X59077100Y-45458147D01*
X58922228Y-45522297D01*
X58757816Y-45555000D01*
X58590184Y-45555000D01*
X58425772Y-45522297D01*
X58270900Y-45458147D01*
X58131519Y-45365015D01*
X58012985Y-45246481D01*
X57919853Y-45107100D01*
X57855703Y-44952228D01*
X57823000Y-44787816D01*
X57823000Y-44620184D01*
X57855703Y-44455772D01*
X57919853Y-44300900D01*
X58012985Y-44161519D01*
X58131519Y-44042985D01*
X58270900Y-43949853D01*
X58425772Y-43885703D01*
X58590184Y-43853000D01*
X58757816Y-43853000D01*
X58922228Y-43885703D01*
X58922228Y-43885703D01*
G37*
G36*
X53842228Y-43885703D02*
X53997100Y-43949853D01*
X54136481Y-44042985D01*
X54255015Y-44161519D01*
X54348147Y-44300900D01*
X54412297Y-44455772D01*
X54445000Y-44620184D01*
X54445000Y-44787816D01*
X54412297Y-44952228D01*
X54348147Y-45107100D01*
X54255015Y-45246481D01*
X54136481Y-45365015D01*
X53997100Y-45458147D01*
X53842228Y-45522297D01*
X53677816Y-45555000D01*
X53510184Y-45555000D01*
X53345772Y-45522297D01*
X53190900Y-45458147D01*
X53051519Y-45365015D01*
X52932985Y-45246481D01*
X52839853Y-45107100D01*
X52775703Y-44952228D01*
X52743000Y-44787816D01*
X52743000Y-44620184D01*
X52775703Y-44455772D01*
X52839853Y-44300900D01*
X52932985Y-44161519D01*
X53051519Y-44042985D01*
X53190900Y-43949853D01*
X53345772Y-43885703D01*
X53510184Y-43853000D01*
X53677816Y-43853000D01*
X53842228Y-43885703D01*
X53842228Y-43885703D01*
G37*
G36*
X51302228Y-43885703D02*
X51457100Y-43949853D01*
X51596481Y-44042985D01*
X51715015Y-44161519D01*
X51808147Y-44300900D01*
X51872297Y-44455772D01*
X51905000Y-44620184D01*
X51905000Y-44787816D01*
X51872297Y-44952228D01*
X51808147Y-45107100D01*
X51715015Y-45246481D01*
X51596481Y-45365015D01*
X51457100Y-45458147D01*
X51302228Y-45522297D01*
X51137816Y-45555000D01*
X50970184Y-45555000D01*
X50805772Y-45522297D01*
X50650900Y-45458147D01*
X50511519Y-45365015D01*
X50392985Y-45246481D01*
X50299853Y-45107100D01*
X50235703Y-44952228D01*
X50203000Y-44787816D01*
X50203000Y-44620184D01*
X50235703Y-44455772D01*
X50299853Y-44300900D01*
X50392985Y-44161519D01*
X50511519Y-44042985D01*
X50650900Y-43949853D01*
X50805772Y-43885703D01*
X50970184Y-43853000D01*
X51137816Y-43853000D01*
X51302228Y-43885703D01*
X51302228Y-43885703D01*
G37*
G36*
X48762228Y-43885703D02*
X48917100Y-43949853D01*
X49056481Y-44042985D01*
X49175015Y-44161519D01*
X49268147Y-44300900D01*
X49332297Y-44455772D01*
X49365000Y-44620184D01*
X49365000Y-44787816D01*
X49332297Y-44952228D01*
X49268147Y-45107100D01*
X49175015Y-45246481D01*
X49056481Y-45365015D01*
X48917100Y-45458147D01*
X48762228Y-45522297D01*
X48597816Y-45555000D01*
X48430184Y-45555000D01*
X48265772Y-45522297D01*
X48110900Y-45458147D01*
X47971519Y-45365015D01*
X47852985Y-45246481D01*
X47759853Y-45107100D01*
X47695703Y-44952228D01*
X47663000Y-44787816D01*
X47663000Y-44620184D01*
X47695703Y-44455772D01*
X47759853Y-44300900D01*
X47852985Y-44161519D01*
X47971519Y-44042985D01*
X48110900Y-43949853D01*
X48265772Y-43885703D01*
X48430184Y-43853000D01*
X48597816Y-43853000D01*
X48762228Y-43885703D01*
X48762228Y-43885703D01*
G37*
G36*
X46222228Y-43885703D02*
X46377100Y-43949853D01*
X46516481Y-44042985D01*
X46635015Y-44161519D01*
X46728147Y-44300900D01*
X46792297Y-44455772D01*
X46825000Y-44620184D01*
X46825000Y-44787816D01*
X46792297Y-44952228D01*
X46728147Y-45107100D01*
X46635015Y-45246481D01*
X46516481Y-45365015D01*
X46377100Y-45458147D01*
X46222228Y-45522297D01*
X46057816Y-45555000D01*
X45890184Y-45555000D01*
X45725772Y-45522297D01*
X45570900Y-45458147D01*
X45431519Y-45365015D01*
X45312985Y-45246481D01*
X45219853Y-45107100D01*
X45155703Y-44952228D01*
X45123000Y-44787816D01*
X45123000Y-44620184D01*
X45155703Y-44455772D01*
X45219853Y-44300900D01*
X45312985Y-44161519D01*
X45431519Y-44042985D01*
X45570900Y-43949853D01*
X45725772Y-43885703D01*
X45890184Y-43853000D01*
X46057816Y-43853000D01*
X46222228Y-43885703D01*
X46222228Y-43885703D01*
G37*
G36*
X43682228Y-43885703D02*
X43837100Y-43949853D01*
X43976481Y-44042985D01*
X44095015Y-44161519D01*
X44188147Y-44300900D01*
X44252297Y-44455772D01*
X44285000Y-44620184D01*
X44285000Y-44787816D01*
X44252297Y-44952228D01*
X44188147Y-45107100D01*
X44095015Y-45246481D01*
X43976481Y-45365015D01*
X43837100Y-45458147D01*
X43682228Y-45522297D01*
X43517816Y-45555000D01*
X43350184Y-45555000D01*
X43185772Y-45522297D01*
X43030900Y-45458147D01*
X42891519Y-45365015D01*
X42772985Y-45246481D01*
X42679853Y-45107100D01*
X42615703Y-44952228D01*
X42583000Y-44787816D01*
X42583000Y-44620184D01*
X42615703Y-44455772D01*
X42679853Y-44300900D01*
X42772985Y-44161519D01*
X42891519Y-44042985D01*
X43030900Y-43949853D01*
X43185772Y-43885703D01*
X43350184Y-43853000D01*
X43517816Y-43853000D01*
X43682228Y-43885703D01*
X43682228Y-43885703D01*
G37*
G36*
X41142228Y-43885703D02*
X41297100Y-43949853D01*
X41436481Y-44042985D01*
X41555015Y-44161519D01*
X41648147Y-44300900D01*
X41712297Y-44455772D01*
X41745000Y-44620184D01*
X41745000Y-44787816D01*
X41712297Y-44952228D01*
X41648147Y-45107100D01*
X41555015Y-45246481D01*
X41436481Y-45365015D01*
X41297100Y-45458147D01*
X41142228Y-45522297D01*
X40977816Y-45555000D01*
X40810184Y-45555000D01*
X40645772Y-45522297D01*
X40490900Y-45458147D01*
X40351519Y-45365015D01*
X40232985Y-45246481D01*
X40139853Y-45107100D01*
X40075703Y-44952228D01*
X40043000Y-44787816D01*
X40043000Y-44620184D01*
X40075703Y-44455772D01*
X40139853Y-44300900D01*
X40232985Y-44161519D01*
X40351519Y-44042985D01*
X40490900Y-43949853D01*
X40645772Y-43885703D01*
X40810184Y-43853000D01*
X40977816Y-43853000D01*
X41142228Y-43885703D01*
X41142228Y-43885703D01*
G37*
G36*
X36062228Y-43885703D02*
X36217100Y-43949853D01*
X36356481Y-44042985D01*
X36475015Y-44161519D01*
X36568147Y-44300900D01*
X36632297Y-44455772D01*
X36665000Y-44620184D01*
X36665000Y-44787816D01*
X36632297Y-44952228D01*
X36568147Y-45107100D01*
X36475015Y-45246481D01*
X36356481Y-45365015D01*
X36217100Y-45458147D01*
X36062228Y-45522297D01*
X35897816Y-45555000D01*
X35730184Y-45555000D01*
X35565772Y-45522297D01*
X35410900Y-45458147D01*
X35271519Y-45365015D01*
X35152985Y-45246481D01*
X35059853Y-45107100D01*
X34995703Y-44952228D01*
X34963000Y-44787816D01*
X34963000Y-44620184D01*
X34995703Y-44455772D01*
X35059853Y-44300900D01*
X35152985Y-44161519D01*
X35271519Y-44042985D01*
X35410900Y-43949853D01*
X35565772Y-43885703D01*
X35730184Y-43853000D01*
X35897816Y-43853000D01*
X36062228Y-43885703D01*
X36062228Y-43885703D01*
G37*
G36*
X38602228Y-43885703D02*
X38757100Y-43949853D01*
X38896481Y-44042985D01*
X39015015Y-44161519D01*
X39108147Y-44300900D01*
X39172297Y-44455772D01*
X39205000Y-44620184D01*
X39205000Y-44787816D01*
X39172297Y-44952228D01*
X39108147Y-45107100D01*
X39015015Y-45246481D01*
X38896481Y-45365015D01*
X38757100Y-45458147D01*
X38602228Y-45522297D01*
X38437816Y-45555000D01*
X38270184Y-45555000D01*
X38105772Y-45522297D01*
X37950900Y-45458147D01*
X37811519Y-45365015D01*
X37692985Y-45246481D01*
X37599853Y-45107100D01*
X37535703Y-44952228D01*
X37503000Y-44787816D01*
X37503000Y-44620184D01*
X37535703Y-44455772D01*
X37599853Y-44300900D01*
X37692985Y-44161519D01*
X37811519Y-44042985D01*
X37950900Y-43949853D01*
X38105772Y-43885703D01*
X38270184Y-43853000D01*
X38437816Y-43853000D01*
X38602228Y-43885703D01*
X38602228Y-43885703D01*
G37*
G36*
X33522228Y-43885703D02*
X33677100Y-43949853D01*
X33816481Y-44042985D01*
X33935015Y-44161519D01*
X34028147Y-44300900D01*
X34092297Y-44455772D01*
X34125000Y-44620184D01*
X34125000Y-44787816D01*
X34092297Y-44952228D01*
X34028147Y-45107100D01*
X33935015Y-45246481D01*
X33816481Y-45365015D01*
X33677100Y-45458147D01*
X33522228Y-45522297D01*
X33357816Y-45555000D01*
X33190184Y-45555000D01*
X33025772Y-45522297D01*
X32870900Y-45458147D01*
X32731519Y-45365015D01*
X32612985Y-45246481D01*
X32519853Y-45107100D01*
X32455703Y-44952228D01*
X32423000Y-44787816D01*
X32423000Y-44620184D01*
X32455703Y-44455772D01*
X32519853Y-44300900D01*
X32612985Y-44161519D01*
X32731519Y-44042985D01*
X32870900Y-43949853D01*
X33025772Y-43885703D01*
X33190184Y-43853000D01*
X33357816Y-43853000D01*
X33522228Y-43885703D01*
X33522228Y-43885703D01*
G37*
G36*
X33522228Y-41345703D02*
X33677100Y-41409853D01*
X33816481Y-41502985D01*
X33935015Y-41621519D01*
X34028147Y-41760900D01*
X34092297Y-41915772D01*
X34125000Y-42080184D01*
X34125000Y-42247816D01*
X34092297Y-42412228D01*
X34028147Y-42567100D01*
X33935015Y-42706481D01*
X33816481Y-42825015D01*
X33677100Y-42918147D01*
X33522228Y-42982297D01*
X33357816Y-43015000D01*
X33190184Y-43015000D01*
X33025772Y-42982297D01*
X32870900Y-42918147D01*
X32731519Y-42825015D01*
X32612985Y-42706481D01*
X32519853Y-42567100D01*
X32455703Y-42412228D01*
X32423000Y-42247816D01*
X32423000Y-42080184D01*
X32455703Y-41915772D01*
X32519853Y-41760900D01*
X32612985Y-41621519D01*
X32731519Y-41502985D01*
X32870900Y-41409853D01*
X33025772Y-41345703D01*
X33190184Y-41313000D01*
X33357816Y-41313000D01*
X33522228Y-41345703D01*
X33522228Y-41345703D01*
G37*
G36*
X64002228Y-41345703D02*
X64157100Y-41409853D01*
X64296481Y-41502985D01*
X64415015Y-41621519D01*
X64508147Y-41760900D01*
X64572297Y-41915772D01*
X64605000Y-42080184D01*
X64605000Y-42247816D01*
X64572297Y-42412228D01*
X64508147Y-42567100D01*
X64415015Y-42706481D01*
X64296481Y-42825015D01*
X64157100Y-42918147D01*
X64002228Y-42982297D01*
X63837816Y-43015000D01*
X63670184Y-43015000D01*
X63505772Y-42982297D01*
X63350900Y-42918147D01*
X63211519Y-42825015D01*
X63092985Y-42706481D01*
X62999853Y-42567100D01*
X62935703Y-42412228D01*
X62903000Y-42247816D01*
X62903000Y-42080184D01*
X62935703Y-41915772D01*
X62999853Y-41760900D01*
X63092985Y-41621519D01*
X63211519Y-41502985D01*
X63350900Y-41409853D01*
X63505772Y-41345703D01*
X63670184Y-41313000D01*
X63837816Y-41313000D01*
X64002228Y-41345703D01*
X64002228Y-41345703D01*
G37*
G36*
X58922228Y-41345703D02*
X59077100Y-41409853D01*
X59216481Y-41502985D01*
X59335015Y-41621519D01*
X59428147Y-41760900D01*
X59492297Y-41915772D01*
X59525000Y-42080184D01*
X59525000Y-42247816D01*
X59492297Y-42412228D01*
X59428147Y-42567100D01*
X59335015Y-42706481D01*
X59216481Y-42825015D01*
X59077100Y-42918147D01*
X58922228Y-42982297D01*
X58757816Y-43015000D01*
X58590184Y-43015000D01*
X58425772Y-42982297D01*
X58270900Y-42918147D01*
X58131519Y-42825015D01*
X58012985Y-42706481D01*
X57919853Y-42567100D01*
X57855703Y-42412228D01*
X57823000Y-42247816D01*
X57823000Y-42080184D01*
X57855703Y-41915772D01*
X57919853Y-41760900D01*
X58012985Y-41621519D01*
X58131519Y-41502985D01*
X58270900Y-41409853D01*
X58425772Y-41345703D01*
X58590184Y-41313000D01*
X58757816Y-41313000D01*
X58922228Y-41345703D01*
X58922228Y-41345703D01*
G37*
G36*
X53842228Y-41345703D02*
X53997100Y-41409853D01*
X54136481Y-41502985D01*
X54255015Y-41621519D01*
X54348147Y-41760900D01*
X54412297Y-41915772D01*
X54445000Y-42080184D01*
X54445000Y-42247816D01*
X54412297Y-42412228D01*
X54348147Y-42567100D01*
X54255015Y-42706481D01*
X54136481Y-42825015D01*
X53997100Y-42918147D01*
X53842228Y-42982297D01*
X53677816Y-43015000D01*
X53510184Y-43015000D01*
X53345772Y-42982297D01*
X53190900Y-42918147D01*
X53051519Y-42825015D01*
X52932985Y-42706481D01*
X52839853Y-42567100D01*
X52775703Y-42412228D01*
X52743000Y-42247816D01*
X52743000Y-42080184D01*
X52775703Y-41915772D01*
X52839853Y-41760900D01*
X52932985Y-41621519D01*
X53051519Y-41502985D01*
X53190900Y-41409853D01*
X53345772Y-41345703D01*
X53510184Y-41313000D01*
X53677816Y-41313000D01*
X53842228Y-41345703D01*
X53842228Y-41345703D01*
G37*
G36*
X56382228Y-41345703D02*
X56537100Y-41409853D01*
X56676481Y-41502985D01*
X56795015Y-41621519D01*
X56888147Y-41760900D01*
X56952297Y-41915772D01*
X56985000Y-42080184D01*
X56985000Y-42247816D01*
X56952297Y-42412228D01*
X56888147Y-42567100D01*
X56795015Y-42706481D01*
X56676481Y-42825015D01*
X56537100Y-42918147D01*
X56382228Y-42982297D01*
X56217816Y-43015000D01*
X56050184Y-43015000D01*
X55885772Y-42982297D01*
X55730900Y-42918147D01*
X55591519Y-42825015D01*
X55472985Y-42706481D01*
X55379853Y-42567100D01*
X55315703Y-42412228D01*
X55283000Y-42247816D01*
X55283000Y-42080184D01*
X55315703Y-41915772D01*
X55379853Y-41760900D01*
X55472985Y-41621519D01*
X55591519Y-41502985D01*
X55730900Y-41409853D01*
X55885772Y-41345703D01*
X56050184Y-41313000D01*
X56217816Y-41313000D01*
X56382228Y-41345703D01*
X56382228Y-41345703D01*
G37*
G36*
X51302228Y-38805703D02*
X51457100Y-38869853D01*
X51596481Y-38962985D01*
X51715015Y-39081519D01*
X51808147Y-39220900D01*
X51872297Y-39375772D01*
X51905000Y-39540184D01*
X51905000Y-39707816D01*
X51872297Y-39872228D01*
X51808147Y-40027100D01*
X51715015Y-40166481D01*
X51596481Y-40285015D01*
X51457100Y-40378147D01*
X51302228Y-40442297D01*
X51137816Y-40475000D01*
X50970184Y-40475000D01*
X50805772Y-40442297D01*
X50650900Y-40378147D01*
X50511519Y-40285015D01*
X50392985Y-40166481D01*
X50299853Y-40027100D01*
X50235703Y-39872228D01*
X50203000Y-39707816D01*
X50203000Y-39540184D01*
X50235703Y-39375772D01*
X50299853Y-39220900D01*
X50392985Y-39081519D01*
X50511519Y-38962985D01*
X50650900Y-38869853D01*
X50805772Y-38805703D01*
X50970184Y-38773000D01*
X51137816Y-38773000D01*
X51302228Y-38805703D01*
X51302228Y-38805703D01*
G37*
G36*
X33522228Y-38805703D02*
X33677100Y-38869853D01*
X33816481Y-38962985D01*
X33935015Y-39081519D01*
X34028147Y-39220900D01*
X34092297Y-39375772D01*
X34125000Y-39540184D01*
X34125000Y-39707816D01*
X34092297Y-39872228D01*
X34028147Y-40027100D01*
X33935015Y-40166481D01*
X33816481Y-40285015D01*
X33677100Y-40378147D01*
X33522228Y-40442297D01*
X33357816Y-40475000D01*
X33190184Y-40475000D01*
X33025772Y-40442297D01*
X32870900Y-40378147D01*
X32731519Y-40285015D01*
X32612985Y-40166481D01*
X32519853Y-40027100D01*
X32455703Y-39872228D01*
X32423000Y-39707816D01*
X32423000Y-39540184D01*
X32455703Y-39375772D01*
X32519853Y-39220900D01*
X32612985Y-39081519D01*
X32731519Y-38962985D01*
X32870900Y-38869853D01*
X33025772Y-38805703D01*
X33190184Y-38773000D01*
X33357816Y-38773000D01*
X33522228Y-38805703D01*
X33522228Y-38805703D01*
G37*
G36*
X36062228Y-38805703D02*
X36217100Y-38869853D01*
X36356481Y-38962985D01*
X36475015Y-39081519D01*
X36568147Y-39220900D01*
X36632297Y-39375772D01*
X36665000Y-39540184D01*
X36665000Y-39707816D01*
X36632297Y-39872228D01*
X36568147Y-40027100D01*
X36475015Y-40166481D01*
X36356481Y-40285015D01*
X36217100Y-40378147D01*
X36062228Y-40442297D01*
X35897816Y-40475000D01*
X35730184Y-40475000D01*
X35565772Y-40442297D01*
X35410900Y-40378147D01*
X35271519Y-40285015D01*
X35152985Y-40166481D01*
X35059853Y-40027100D01*
X34995703Y-39872228D01*
X34963000Y-39707816D01*
X34963000Y-39540184D01*
X34995703Y-39375772D01*
X35059853Y-39220900D01*
X35152985Y-39081519D01*
X35271519Y-38962985D01*
X35410900Y-38869853D01*
X35565772Y-38805703D01*
X35730184Y-38773000D01*
X35897816Y-38773000D01*
X36062228Y-38805703D01*
X36062228Y-38805703D01*
G37*
G36*
X38602228Y-38805703D02*
X38757100Y-38869853D01*
X38896481Y-38962985D01*
X39015015Y-39081519D01*
X39108147Y-39220900D01*
X39172297Y-39375772D01*
X39205000Y-39540184D01*
X39205000Y-39707816D01*
X39172297Y-39872228D01*
X39108147Y-40027100D01*
X39015015Y-40166481D01*
X38896481Y-40285015D01*
X38757100Y-40378147D01*
X38602228Y-40442297D01*
X38437816Y-40475000D01*
X38270184Y-40475000D01*
X38105772Y-40442297D01*
X37950900Y-40378147D01*
X37811519Y-40285015D01*
X37692985Y-40166481D01*
X37599853Y-40027100D01*
X37535703Y-39872228D01*
X37503000Y-39707816D01*
X37503000Y-39540184D01*
X37535703Y-39375772D01*
X37599853Y-39220900D01*
X37692985Y-39081519D01*
X37811519Y-38962985D01*
X37950900Y-38869853D01*
X38105772Y-38805703D01*
X38270184Y-38773000D01*
X38437816Y-38773000D01*
X38602228Y-38805703D01*
X38602228Y-38805703D01*
G37*
G36*
X46222228Y-38805703D02*
X46377100Y-38869853D01*
X46516481Y-38962985D01*
X46635015Y-39081519D01*
X46728147Y-39220900D01*
X46792297Y-39375772D01*
X46825000Y-39540184D01*
X46825000Y-39707816D01*
X46792297Y-39872228D01*
X46728147Y-40027100D01*
X46635015Y-40166481D01*
X46516481Y-40285015D01*
X46377100Y-40378147D01*
X46222228Y-40442297D01*
X46057816Y-40475000D01*
X45890184Y-40475000D01*
X45725772Y-40442297D01*
X45570900Y-40378147D01*
X45431519Y-40285015D01*
X45312985Y-40166481D01*
X45219853Y-40027100D01*
X45155703Y-39872228D01*
X45123000Y-39707816D01*
X45123000Y-39540184D01*
X45155703Y-39375772D01*
X45219853Y-39220900D01*
X45312985Y-39081519D01*
X45431519Y-38962985D01*
X45570900Y-38869853D01*
X45725772Y-38805703D01*
X45890184Y-38773000D01*
X46057816Y-38773000D01*
X46222228Y-38805703D01*
X46222228Y-38805703D01*
G37*
G36*
X48762228Y-38805703D02*
X48917100Y-38869853D01*
X49056481Y-38962985D01*
X49175015Y-39081519D01*
X49268147Y-39220900D01*
X49332297Y-39375772D01*
X49365000Y-39540184D01*
X49365000Y-39707816D01*
X49332297Y-39872228D01*
X49268147Y-40027100D01*
X49175015Y-40166481D01*
X49056481Y-40285015D01*
X48917100Y-40378147D01*
X48762228Y-40442297D01*
X48597816Y-40475000D01*
X48430184Y-40475000D01*
X48265772Y-40442297D01*
X48110900Y-40378147D01*
X47971519Y-40285015D01*
X47852985Y-40166481D01*
X47759853Y-40027100D01*
X47695703Y-39872228D01*
X47663000Y-39707816D01*
X47663000Y-39540184D01*
X47695703Y-39375772D01*
X47759853Y-39220900D01*
X47852985Y-39081519D01*
X47971519Y-38962985D01*
X48110900Y-38869853D01*
X48265772Y-38805703D01*
X48430184Y-38773000D01*
X48597816Y-38773000D01*
X48762228Y-38805703D01*
X48762228Y-38805703D01*
G37*
G36*
X43682228Y-38805703D02*
X43837100Y-38869853D01*
X43976481Y-38962985D01*
X44095015Y-39081519D01*
X44188147Y-39220900D01*
X44252297Y-39375772D01*
X44285000Y-39540184D01*
X44285000Y-39707816D01*
X44252297Y-39872228D01*
X44188147Y-40027100D01*
X44095015Y-40166481D01*
X43976481Y-40285015D01*
X43837100Y-40378147D01*
X43682228Y-40442297D01*
X43517816Y-40475000D01*
X43350184Y-40475000D01*
X43185772Y-40442297D01*
X43030900Y-40378147D01*
X42891519Y-40285015D01*
X42772985Y-40166481D01*
X42679853Y-40027100D01*
X42615703Y-39872228D01*
X42583000Y-39707816D01*
X42583000Y-39540184D01*
X42615703Y-39375772D01*
X42679853Y-39220900D01*
X42772985Y-39081519D01*
X42891519Y-38962985D01*
X43030900Y-38869853D01*
X43185772Y-38805703D01*
X43350184Y-38773000D01*
X43517816Y-38773000D01*
X43682228Y-38805703D01*
X43682228Y-38805703D01*
G37*
G36*
X41142228Y-38805703D02*
X41297100Y-38869853D01*
X41436481Y-38962985D01*
X41555015Y-39081519D01*
X41648147Y-39220900D01*
X41712297Y-39375772D01*
X41745000Y-39540184D01*
X41745000Y-39707816D01*
X41712297Y-39872228D01*
X41648147Y-40027100D01*
X41555015Y-40166481D01*
X41436481Y-40285015D01*
X41297100Y-40378147D01*
X41142228Y-40442297D01*
X40977816Y-40475000D01*
X40810184Y-40475000D01*
X40645772Y-40442297D01*
X40490900Y-40378147D01*
X40351519Y-40285015D01*
X40232985Y-40166481D01*
X40139853Y-40027100D01*
X40075703Y-39872228D01*
X40043000Y-39707816D01*
X40043000Y-39540184D01*
X40075703Y-39375772D01*
X40139853Y-39220900D01*
X40232985Y-39081519D01*
X40351519Y-38962985D01*
X40490900Y-38869853D01*
X40645772Y-38805703D01*
X40810184Y-38773000D01*
X40977816Y-38773000D01*
X41142228Y-38805703D01*
X41142228Y-38805703D01*
G37*
G36*
X60235981Y-36121468D02*
X60418150Y-36196925D01*
X60582103Y-36306475D01*
X60721525Y-36445897D01*
X60831075Y-36609850D01*
X60906532Y-36792019D01*
X60945000Y-36985410D01*
X60945000Y-37182590D01*
X60906532Y-37375981D01*
X60831075Y-37558150D01*
X60721525Y-37722103D01*
X60582103Y-37861525D01*
X60418150Y-37971075D01*
X60235981Y-38046532D01*
X60042590Y-38085000D01*
X59845410Y-38085000D01*
X59652019Y-38046532D01*
X59469850Y-37971075D01*
X59305897Y-37861525D01*
X59166475Y-37722103D01*
X59056925Y-37558150D01*
X58981468Y-37375981D01*
X58943000Y-37182590D01*
X58943000Y-36985410D01*
X58981468Y-36792019D01*
X59056925Y-36609850D01*
X59166475Y-36445897D01*
X59305897Y-36306475D01*
X59469850Y-36196925D01*
X59652019Y-36121468D01*
X59845410Y-36083000D01*
X60042590Y-36083000D01*
X60235981Y-36121468D01*
X60235981Y-36121468D01*
G37*
G36*
X56425981Y-36121468D02*
X56608150Y-36196925D01*
X56772103Y-36306475D01*
X56911525Y-36445897D01*
X57021075Y-36609850D01*
X57096532Y-36792019D01*
X57135000Y-36985410D01*
X57135000Y-37182590D01*
X57096532Y-37375981D01*
X57021075Y-37558150D01*
X56911525Y-37722103D01*
X56772103Y-37861525D01*
X56608150Y-37971075D01*
X56425981Y-38046532D01*
X56232590Y-38085000D01*
X56035410Y-38085000D01*
X55842019Y-38046532D01*
X55659850Y-37971075D01*
X55495897Y-37861525D01*
X55356475Y-37722103D01*
X55246925Y-37558150D01*
X55171468Y-37375981D01*
X55133000Y-37182590D01*
X55133000Y-36985410D01*
X55171468Y-36792019D01*
X55246925Y-36609850D01*
X55356475Y-36445897D01*
X55495897Y-36306475D01*
X55659850Y-36196925D01*
X55842019Y-36121468D01*
X56035410Y-36083000D01*
X56232590Y-36083000D01*
X56425981Y-36121468D01*
X56425981Y-36121468D01*
G37*
G36*
X41142228Y-36265703D02*
X41297100Y-36329853D01*
X41436481Y-36422985D01*
X41555015Y-36541519D01*
X41648147Y-36680900D01*
X41712297Y-36835772D01*
X41745000Y-37000184D01*
X41745000Y-37167816D01*
X41712297Y-37332228D01*
X41648147Y-37487100D01*
X41555015Y-37626481D01*
X41436481Y-37745015D01*
X41297100Y-37838147D01*
X41142228Y-37902297D01*
X40977816Y-37935000D01*
X40810184Y-37935000D01*
X40645772Y-37902297D01*
X40490900Y-37838147D01*
X40351519Y-37745015D01*
X40232985Y-37626481D01*
X40139853Y-37487100D01*
X40075703Y-37332228D01*
X40043000Y-37167816D01*
X40043000Y-37000184D01*
X40075703Y-36835772D01*
X40139853Y-36680900D01*
X40232985Y-36541519D01*
X40351519Y-36422985D01*
X40490900Y-36329853D01*
X40645772Y-36265703D01*
X40810184Y-36233000D01*
X40977816Y-36233000D01*
X41142228Y-36265703D01*
X41142228Y-36265703D01*
G37*
G36*
X36062228Y-36265703D02*
X36217100Y-36329853D01*
X36356481Y-36422985D01*
X36475015Y-36541519D01*
X36568147Y-36680900D01*
X36632297Y-36835772D01*
X36665000Y-37000184D01*
X36665000Y-37167816D01*
X36632297Y-37332228D01*
X36568147Y-37487100D01*
X36475015Y-37626481D01*
X36356481Y-37745015D01*
X36217100Y-37838147D01*
X36062228Y-37902297D01*
X35897816Y-37935000D01*
X35730184Y-37935000D01*
X35565772Y-37902297D01*
X35410900Y-37838147D01*
X35271519Y-37745015D01*
X35152985Y-37626481D01*
X35059853Y-37487100D01*
X34995703Y-37332228D01*
X34963000Y-37167816D01*
X34963000Y-37000184D01*
X34995703Y-36835772D01*
X35059853Y-36680900D01*
X35152985Y-36541519D01*
X35271519Y-36422985D01*
X35410900Y-36329853D01*
X35565772Y-36265703D01*
X35730184Y-36233000D01*
X35897816Y-36233000D01*
X36062228Y-36265703D01*
X36062228Y-36265703D01*
G37*
G36*
X33522228Y-36265703D02*
X33677100Y-36329853D01*
X33816481Y-36422985D01*
X33935015Y-36541519D01*
X34028147Y-36680900D01*
X34092297Y-36835772D01*
X34125000Y-37000184D01*
X34125000Y-37167816D01*
X34092297Y-37332228D01*
X34028147Y-37487100D01*
X33935015Y-37626481D01*
X33816481Y-37745015D01*
X33677100Y-37838147D01*
X33522228Y-37902297D01*
X33357816Y-37935000D01*
X33190184Y-37935000D01*
X33025772Y-37902297D01*
X32870900Y-37838147D01*
X32731519Y-37745015D01*
X32612985Y-37626481D01*
X32519853Y-37487100D01*
X32455703Y-37332228D01*
X32423000Y-37167816D01*
X32423000Y-37000184D01*
X32455703Y-36835772D01*
X32519853Y-36680900D01*
X32612985Y-36541519D01*
X32731519Y-36422985D01*
X32870900Y-36329853D01*
X33025772Y-36265703D01*
X33190184Y-36233000D01*
X33357816Y-36233000D01*
X33522228Y-36265703D01*
X33522228Y-36265703D01*
G37*
G36*
X43682228Y-36265703D02*
X43837100Y-36329853D01*
X43976481Y-36422985D01*
X44095015Y-36541519D01*
X44188147Y-36680900D01*
X44252297Y-36835772D01*
X44285000Y-37000184D01*
X44285000Y-37167816D01*
X44252297Y-37332228D01*
X44188147Y-37487100D01*
X44095015Y-37626481D01*
X43976481Y-37745015D01*
X43837100Y-37838147D01*
X43682228Y-37902297D01*
X43517816Y-37935000D01*
X43350184Y-37935000D01*
X43185772Y-37902297D01*
X43030900Y-37838147D01*
X42891519Y-37745015D01*
X42772985Y-37626481D01*
X42679853Y-37487100D01*
X42615703Y-37332228D01*
X42583000Y-37167816D01*
X42583000Y-37000184D01*
X42615703Y-36835772D01*
X42679853Y-36680900D01*
X42772985Y-36541519D01*
X42891519Y-36422985D01*
X43030900Y-36329853D01*
X43185772Y-36265703D01*
X43350184Y-36233000D01*
X43517816Y-36233000D01*
X43682228Y-36265703D01*
X43682228Y-36265703D01*
G37*
G36*
X51302228Y-36265703D02*
X51457100Y-36329853D01*
X51596481Y-36422985D01*
X51715015Y-36541519D01*
X51808147Y-36680900D01*
X51872297Y-36835772D01*
X51905000Y-37000184D01*
X51905000Y-37167816D01*
X51872297Y-37332228D01*
X51808147Y-37487100D01*
X51715015Y-37626481D01*
X51596481Y-37745015D01*
X51457100Y-37838147D01*
X51302228Y-37902297D01*
X51137816Y-37935000D01*
X50970184Y-37935000D01*
X50805772Y-37902297D01*
X50650900Y-37838147D01*
X50511519Y-37745015D01*
X50392985Y-37626481D01*
X50299853Y-37487100D01*
X50235703Y-37332228D01*
X50203000Y-37167816D01*
X50203000Y-37000184D01*
X50235703Y-36835772D01*
X50299853Y-36680900D01*
X50392985Y-36541519D01*
X50511519Y-36422985D01*
X50650900Y-36329853D01*
X50805772Y-36265703D01*
X50970184Y-36233000D01*
X51137816Y-36233000D01*
X51302228Y-36265703D01*
X51302228Y-36265703D01*
G37*
G36*
X48762228Y-36265703D02*
X48917100Y-36329853D01*
X49056481Y-36422985D01*
X49175015Y-36541519D01*
X49268147Y-36680900D01*
X49332297Y-36835772D01*
X49365000Y-37000184D01*
X49365000Y-37167816D01*
X49332297Y-37332228D01*
X49268147Y-37487100D01*
X49175015Y-37626481D01*
X49056481Y-37745015D01*
X48917100Y-37838147D01*
X48762228Y-37902297D01*
X48597816Y-37935000D01*
X48430184Y-37935000D01*
X48265772Y-37902297D01*
X48110900Y-37838147D01*
X47971519Y-37745015D01*
X47852985Y-37626481D01*
X47759853Y-37487100D01*
X47695703Y-37332228D01*
X47663000Y-37167816D01*
X47663000Y-37000184D01*
X47695703Y-36835772D01*
X47759853Y-36680900D01*
X47852985Y-36541519D01*
X47971519Y-36422985D01*
X48110900Y-36329853D01*
X48265772Y-36265703D01*
X48430184Y-36233000D01*
X48597816Y-36233000D01*
X48762228Y-36265703D01*
X48762228Y-36265703D01*
G37*
G36*
X46222228Y-36265703D02*
X46377100Y-36329853D01*
X46516481Y-36422985D01*
X46635015Y-36541519D01*
X46728147Y-36680900D01*
X46792297Y-36835772D01*
X46825000Y-37000184D01*
X46825000Y-37167816D01*
X46792297Y-37332228D01*
X46728147Y-37487100D01*
X46635015Y-37626481D01*
X46516481Y-37745015D01*
X46377100Y-37838147D01*
X46222228Y-37902297D01*
X46057816Y-37935000D01*
X45890184Y-37935000D01*
X45725772Y-37902297D01*
X45570900Y-37838147D01*
X45431519Y-37745015D01*
X45312985Y-37626481D01*
X45219853Y-37487100D01*
X45155703Y-37332228D01*
X45123000Y-37167816D01*
X45123000Y-37000184D01*
X45155703Y-36835772D01*
X45219853Y-36680900D01*
X45312985Y-36541519D01*
X45431519Y-36422985D01*
X45570900Y-36329853D01*
X45725772Y-36265703D01*
X45890184Y-36233000D01*
X46057816Y-36233000D01*
X46222228Y-36265703D01*
X46222228Y-36265703D01*
G37*
G36*
X38602228Y-36265703D02*
X38757100Y-36329853D01*
X38896481Y-36422985D01*
X39015015Y-36541519D01*
X39108147Y-36680900D01*
X39172297Y-36835772D01*
X39205000Y-37000184D01*
X39205000Y-37167816D01*
X39172297Y-37332228D01*
X39108147Y-37487100D01*
X39015015Y-37626481D01*
X38896481Y-37745015D01*
X38757100Y-37838147D01*
X38602228Y-37902297D01*
X38437816Y-37935000D01*
X38270184Y-37935000D01*
X38105772Y-37902297D01*
X37950900Y-37838147D01*
X37811519Y-37745015D01*
X37692985Y-37626481D01*
X37599853Y-37487100D01*
X37535703Y-37332228D01*
X37503000Y-37167816D01*
X37503000Y-37000184D01*
X37535703Y-36835772D01*
X37599853Y-36680900D01*
X37692985Y-36541519D01*
X37811519Y-36422985D01*
X37950900Y-36329853D01*
X38105772Y-36265703D01*
X38270184Y-36233000D01*
X38437816Y-36233000D01*
X38602228Y-36265703D01*
X38602228Y-36265703D01*
G37*
G36*
X33522228Y-33725703D02*
X33677100Y-33789853D01*
X33816481Y-33882985D01*
X33935015Y-34001519D01*
X34028147Y-34140900D01*
X34092297Y-34295772D01*
X34125000Y-34460184D01*
X34125000Y-34627816D01*
X34092297Y-34792228D01*
X34028147Y-34947100D01*
X33935015Y-35086481D01*
X33816481Y-35205015D01*
X33677100Y-35298147D01*
X33522228Y-35362297D01*
X33357816Y-35395000D01*
X33190184Y-35395000D01*
X33025772Y-35362297D01*
X32870900Y-35298147D01*
X32731519Y-35205015D01*
X32612985Y-35086481D01*
X32519853Y-34947100D01*
X32455703Y-34792228D01*
X32423000Y-34627816D01*
X32423000Y-34460184D01*
X32455703Y-34295772D01*
X32519853Y-34140900D01*
X32612985Y-34001519D01*
X32731519Y-33882985D01*
X32870900Y-33789853D01*
X33025772Y-33725703D01*
X33190184Y-33693000D01*
X33357816Y-33693000D01*
X33522228Y-33725703D01*
X33522228Y-33725703D01*
G37*
G36*
X33522228Y-31185703D02*
X33677100Y-31249853D01*
X33816481Y-31342985D01*
X33935015Y-31461519D01*
X34028147Y-31600900D01*
X34092297Y-31755772D01*
X34125000Y-31920184D01*
X34125000Y-32087816D01*
X34092297Y-32252228D01*
X34028147Y-32407100D01*
X33935015Y-32546481D01*
X33816481Y-32665015D01*
X33677100Y-32758147D01*
X33522228Y-32822297D01*
X33357816Y-32855000D01*
X33190184Y-32855000D01*
X33025772Y-32822297D01*
X32870900Y-32758147D01*
X32731519Y-32665015D01*
X32612985Y-32546481D01*
X32519853Y-32407100D01*
X32455703Y-32252228D01*
X32423000Y-32087816D01*
X32423000Y-31920184D01*
X32455703Y-31755772D01*
X32519853Y-31600900D01*
X32612985Y-31461519D01*
X32731519Y-31342985D01*
X32870900Y-31249853D01*
X33025772Y-31185703D01*
X33190184Y-31153000D01*
X33357816Y-31153000D01*
X33522228Y-31185703D01*
X33522228Y-31185703D01*
G37*
G36*
X43682228Y-28645703D02*
X43837100Y-28709853D01*
X43976481Y-28802985D01*
X44095015Y-28921519D01*
X44188147Y-29060900D01*
X44252297Y-29215772D01*
X44285000Y-29380184D01*
X44285000Y-29547816D01*
X44252297Y-29712228D01*
X44188147Y-29867100D01*
X44095015Y-30006481D01*
X43976481Y-30125015D01*
X43837100Y-30218147D01*
X43682228Y-30282297D01*
X43517816Y-30315000D01*
X43350184Y-30315000D01*
X43185772Y-30282297D01*
X43030900Y-30218147D01*
X42891519Y-30125015D01*
X42772985Y-30006481D01*
X42679853Y-29867100D01*
X42615703Y-29712228D01*
X42583000Y-29547816D01*
X42583000Y-29380184D01*
X42615703Y-29215772D01*
X42679853Y-29060900D01*
X42772985Y-28921519D01*
X42891519Y-28802985D01*
X43030900Y-28709853D01*
X43185772Y-28645703D01*
X43350184Y-28613000D01*
X43517816Y-28613000D01*
X43682228Y-28645703D01*
X43682228Y-28645703D01*
G37*
G36*
X53842228Y-28645703D02*
X53997100Y-28709853D01*
X54136481Y-28802985D01*
X54255015Y-28921519D01*
X54348147Y-29060900D01*
X54412297Y-29215772D01*
X54445000Y-29380184D01*
X54445000Y-29547816D01*
X54412297Y-29712228D01*
X54348147Y-29867100D01*
X54255015Y-30006481D01*
X54136481Y-30125015D01*
X53997100Y-30218147D01*
X53842228Y-30282297D01*
X53677816Y-30315000D01*
X53510184Y-30315000D01*
X53345772Y-30282297D01*
X53190900Y-30218147D01*
X53051519Y-30125015D01*
X52932985Y-30006481D01*
X52839853Y-29867100D01*
X52775703Y-29712228D01*
X52743000Y-29547816D01*
X52743000Y-29380184D01*
X52775703Y-29215772D01*
X52839853Y-29060900D01*
X52932985Y-28921519D01*
X53051519Y-28802985D01*
X53190900Y-28709853D01*
X53345772Y-28645703D01*
X53510184Y-28613000D01*
X53677816Y-28613000D01*
X53842228Y-28645703D01*
X53842228Y-28645703D01*
G37*
G36*
X56382228Y-28645703D02*
X56537100Y-28709853D01*
X56676481Y-28802985D01*
X56795015Y-28921519D01*
X56888147Y-29060900D01*
X56952297Y-29215772D01*
X56985000Y-29380184D01*
X56985000Y-29547816D01*
X56952297Y-29712228D01*
X56888147Y-29867100D01*
X56795015Y-30006481D01*
X56676481Y-30125015D01*
X56537100Y-30218147D01*
X56382228Y-30282297D01*
X56217816Y-30315000D01*
X56050184Y-30315000D01*
X55885772Y-30282297D01*
X55730900Y-30218147D01*
X55591519Y-30125015D01*
X55472985Y-30006481D01*
X55379853Y-29867100D01*
X55315703Y-29712228D01*
X55283000Y-29547816D01*
X55283000Y-29380184D01*
X55315703Y-29215772D01*
X55379853Y-29060900D01*
X55472985Y-28921519D01*
X55591519Y-28802985D01*
X55730900Y-28709853D01*
X55885772Y-28645703D01*
X56050184Y-28613000D01*
X56217816Y-28613000D01*
X56382228Y-28645703D01*
X56382228Y-28645703D01*
G37*
G36*
X48762228Y-28645703D02*
X48917100Y-28709853D01*
X49056481Y-28802985D01*
X49175015Y-28921519D01*
X49268147Y-29060900D01*
X49332297Y-29215772D01*
X49365000Y-29380184D01*
X49365000Y-29547816D01*
X49332297Y-29712228D01*
X49268147Y-29867100D01*
X49175015Y-30006481D01*
X49056481Y-30125015D01*
X48917100Y-30218147D01*
X48762228Y-30282297D01*
X48597816Y-30315000D01*
X48430184Y-30315000D01*
X48265772Y-30282297D01*
X48110900Y-30218147D01*
X47971519Y-30125015D01*
X47852985Y-30006481D01*
X47759853Y-29867100D01*
X47695703Y-29712228D01*
X47663000Y-29547816D01*
X47663000Y-29380184D01*
X47695703Y-29215772D01*
X47759853Y-29060900D01*
X47852985Y-28921519D01*
X47971519Y-28802985D01*
X48110900Y-28709853D01*
X48265772Y-28645703D01*
X48430184Y-28613000D01*
X48597816Y-28613000D01*
X48762228Y-28645703D01*
X48762228Y-28645703D01*
G37*
G36*
X46222228Y-28645703D02*
X46377100Y-28709853D01*
X46516481Y-28802985D01*
X46635015Y-28921519D01*
X46728147Y-29060900D01*
X46792297Y-29215772D01*
X46825000Y-29380184D01*
X46825000Y-29547816D01*
X46792297Y-29712228D01*
X46728147Y-29867100D01*
X46635015Y-30006481D01*
X46516481Y-30125015D01*
X46377100Y-30218147D01*
X46222228Y-30282297D01*
X46057816Y-30315000D01*
X45890184Y-30315000D01*
X45725772Y-30282297D01*
X45570900Y-30218147D01*
X45431519Y-30125015D01*
X45312985Y-30006481D01*
X45219853Y-29867100D01*
X45155703Y-29712228D01*
X45123000Y-29547816D01*
X45123000Y-29380184D01*
X45155703Y-29215772D01*
X45219853Y-29060900D01*
X45312985Y-28921519D01*
X45431519Y-28802985D01*
X45570900Y-28709853D01*
X45725772Y-28645703D01*
X45890184Y-28613000D01*
X46057816Y-28613000D01*
X46222228Y-28645703D01*
X46222228Y-28645703D01*
G37*
G36*
X41142228Y-28645703D02*
X41297100Y-28709853D01*
X41436481Y-28802985D01*
X41555015Y-28921519D01*
X41648147Y-29060900D01*
X41712297Y-29215772D01*
X41745000Y-29380184D01*
X41745000Y-29547816D01*
X41712297Y-29712228D01*
X41648147Y-29867100D01*
X41555015Y-30006481D01*
X41436481Y-30125015D01*
X41297100Y-30218147D01*
X41142228Y-30282297D01*
X40977816Y-30315000D01*
X40810184Y-30315000D01*
X40645772Y-30282297D01*
X40490900Y-30218147D01*
X40351519Y-30125015D01*
X40232985Y-30006481D01*
X40139853Y-29867100D01*
X40075703Y-29712228D01*
X40043000Y-29547816D01*
X40043000Y-29380184D01*
X40075703Y-29215772D01*
X40139853Y-29060900D01*
X40232985Y-28921519D01*
X40351519Y-28802985D01*
X40490900Y-28709853D01*
X40645772Y-28645703D01*
X40810184Y-28613000D01*
X40977816Y-28613000D01*
X41142228Y-28645703D01*
X41142228Y-28645703D01*
G37*
G36*
X58922228Y-28645703D02*
X59077100Y-28709853D01*
X59216481Y-28802985D01*
X59335015Y-28921519D01*
X59428147Y-29060900D01*
X59492297Y-29215772D01*
X59525000Y-29380184D01*
X59525000Y-29547816D01*
X59492297Y-29712228D01*
X59428147Y-29867100D01*
X59335015Y-30006481D01*
X59216481Y-30125015D01*
X59077100Y-30218147D01*
X58922228Y-30282297D01*
X58757816Y-30315000D01*
X58590184Y-30315000D01*
X58425772Y-30282297D01*
X58270900Y-30218147D01*
X58131519Y-30125015D01*
X58012985Y-30006481D01*
X57919853Y-29867100D01*
X57855703Y-29712228D01*
X57823000Y-29547816D01*
X57823000Y-29380184D01*
X57855703Y-29215772D01*
X57919853Y-29060900D01*
X58012985Y-28921519D01*
X58131519Y-28802985D01*
X58270900Y-28709853D01*
X58425772Y-28645703D01*
X58590184Y-28613000D01*
X58757816Y-28613000D01*
X58922228Y-28645703D01*
X58922228Y-28645703D01*
G37*
G36*
X51302228Y-28645703D02*
X51457100Y-28709853D01*
X51596481Y-28802985D01*
X51715015Y-28921519D01*
X51808147Y-29060900D01*
X51872297Y-29215772D01*
X51905000Y-29380184D01*
X51905000Y-29547816D01*
X51872297Y-29712228D01*
X51808147Y-29867100D01*
X51715015Y-30006481D01*
X51596481Y-30125015D01*
X51457100Y-30218147D01*
X51302228Y-30282297D01*
X51137816Y-30315000D01*
X50970184Y-30315000D01*
X50805772Y-30282297D01*
X50650900Y-30218147D01*
X50511519Y-30125015D01*
X50392985Y-30006481D01*
X50299853Y-29867100D01*
X50235703Y-29712228D01*
X50203000Y-29547816D01*
X50203000Y-29380184D01*
X50235703Y-29215772D01*
X50299853Y-29060900D01*
X50392985Y-28921519D01*
X50511519Y-28802985D01*
X50650900Y-28709853D01*
X50805772Y-28645703D01*
X50970184Y-28613000D01*
X51137816Y-28613000D01*
X51302228Y-28645703D01*
X51302228Y-28645703D01*
G37*
G36*
X67145000Y-30315000D02*
X65443000Y-30315000D01*
X65443000Y-28613000D01*
X67145000Y-28613000D01*
X67145000Y-30315000D01*
X67145000Y-30315000D01*
G37*
G36*
X38602228Y-28645703D02*
X38757100Y-28709853D01*
X38896481Y-28802985D01*
X39015015Y-28921519D01*
X39108147Y-29060900D01*
X39172297Y-29215772D01*
X39205000Y-29380184D01*
X39205000Y-29547816D01*
X39172297Y-29712228D01*
X39108147Y-29867100D01*
X39015015Y-30006481D01*
X38896481Y-30125015D01*
X38757100Y-30218147D01*
X38602228Y-30282297D01*
X38437816Y-30315000D01*
X38270184Y-30315000D01*
X38105772Y-30282297D01*
X37950900Y-30218147D01*
X37811519Y-30125015D01*
X37692985Y-30006481D01*
X37599853Y-29867100D01*
X37535703Y-29712228D01*
X37503000Y-29547816D01*
X37503000Y-29380184D01*
X37535703Y-29215772D01*
X37599853Y-29060900D01*
X37692985Y-28921519D01*
X37811519Y-28802985D01*
X37950900Y-28709853D01*
X38105772Y-28645703D01*
X38270184Y-28613000D01*
X38437816Y-28613000D01*
X38602228Y-28645703D01*
X38602228Y-28645703D01*
G37*
G36*
X36062228Y-28645703D02*
X36217100Y-28709853D01*
X36356481Y-28802985D01*
X36475015Y-28921519D01*
X36568147Y-29060900D01*
X36632297Y-29215772D01*
X36665000Y-29380184D01*
X36665000Y-29547816D01*
X36632297Y-29712228D01*
X36568147Y-29867100D01*
X36475015Y-30006481D01*
X36356481Y-30125015D01*
X36217100Y-30218147D01*
X36062228Y-30282297D01*
X35897816Y-30315000D01*
X35730184Y-30315000D01*
X35565772Y-30282297D01*
X35410900Y-30218147D01*
X35271519Y-30125015D01*
X35152985Y-30006481D01*
X35059853Y-29867100D01*
X34995703Y-29712228D01*
X34963000Y-29547816D01*
X34963000Y-29380184D01*
X34995703Y-29215772D01*
X35059853Y-29060900D01*
X35152985Y-28921519D01*
X35271519Y-28802985D01*
X35410900Y-28709853D01*
X35565772Y-28645703D01*
X35730184Y-28613000D01*
X35897816Y-28613000D01*
X36062228Y-28645703D01*
X36062228Y-28645703D01*
G37*
G36*
X33522228Y-28645703D02*
X33677100Y-28709853D01*
X33816481Y-28802985D01*
X33935015Y-28921519D01*
X34028147Y-29060900D01*
X34092297Y-29215772D01*
X34125000Y-29380184D01*
X34125000Y-29547816D01*
X34092297Y-29712228D01*
X34028147Y-29867100D01*
X33935015Y-30006481D01*
X33816481Y-30125015D01*
X33677100Y-30218147D01*
X33522228Y-30282297D01*
X33357816Y-30315000D01*
X33190184Y-30315000D01*
X33025772Y-30282297D01*
X32870900Y-30218147D01*
X32731519Y-30125015D01*
X32612985Y-30006481D01*
X32519853Y-29867100D01*
X32455703Y-29712228D01*
X32423000Y-29547816D01*
X32423000Y-29380184D01*
X32455703Y-29215772D01*
X32519853Y-29060900D01*
X32612985Y-28921519D01*
X32731519Y-28802985D01*
X32870900Y-28709853D01*
X33025772Y-28645703D01*
X33190184Y-28613000D01*
X33357816Y-28613000D01*
X33522228Y-28645703D01*
X33522228Y-28645703D01*
G37*
G36*
X64002228Y-28645703D02*
X64157100Y-28709853D01*
X64296481Y-28802985D01*
X64415015Y-28921519D01*
X64508147Y-29060900D01*
X64572297Y-29215772D01*
X64605000Y-29380184D01*
X64605000Y-29547816D01*
X64572297Y-29712228D01*
X64508147Y-29867100D01*
X64415015Y-30006481D01*
X64296481Y-30125015D01*
X64157100Y-30218147D01*
X64002228Y-30282297D01*
X63837816Y-30315000D01*
X63670184Y-30315000D01*
X63505772Y-30282297D01*
X63350900Y-30218147D01*
X63211519Y-30125015D01*
X63092985Y-30006481D01*
X62999853Y-29867100D01*
X62935703Y-29712228D01*
X62903000Y-29547816D01*
X62903000Y-29380184D01*
X62935703Y-29215772D01*
X62999853Y-29060900D01*
X63092985Y-28921519D01*
X63211519Y-28802985D01*
X63350900Y-28709853D01*
X63505772Y-28645703D01*
X63670184Y-28613000D01*
X63837816Y-28613000D01*
X64002228Y-28645703D01*
X64002228Y-28645703D01*
G37*
G36*
X61462228Y-28645703D02*
X61617100Y-28709853D01*
X61756481Y-28802985D01*
X61875015Y-28921519D01*
X61968147Y-29060900D01*
X62032297Y-29215772D01*
X62065000Y-29380184D01*
X62065000Y-29547816D01*
X62032297Y-29712228D01*
X61968147Y-29867100D01*
X61875015Y-30006481D01*
X61756481Y-30125015D01*
X61617100Y-30218147D01*
X61462228Y-30282297D01*
X61297816Y-30315000D01*
X61130184Y-30315000D01*
X60965772Y-30282297D01*
X60810900Y-30218147D01*
X60671519Y-30125015D01*
X60552985Y-30006481D01*
X60459853Y-29867100D01*
X60395703Y-29712228D01*
X60363000Y-29547816D01*
X60363000Y-29380184D01*
X60395703Y-29215772D01*
X60459853Y-29060900D01*
X60552985Y-28921519D01*
X60671519Y-28802985D01*
X60810900Y-28709853D01*
X60965772Y-28645703D01*
X61130184Y-28613000D01*
X61297816Y-28613000D01*
X61462228Y-28645703D01*
X61462228Y-28645703D01*
G37*
G36*
X68153734Y-21753232D02*
X68363202Y-21839996D01*
X68551723Y-21965962D01*
X68712038Y-22126277D01*
X68838004Y-22314798D01*
X68924768Y-22524266D01*
X68969000Y-22746635D01*
X68969000Y-22973365D01*
X68924768Y-23195734D01*
X68838004Y-23405202D01*
X68712038Y-23593723D01*
X68551723Y-23754038D01*
X68363202Y-23880004D01*
X68153734Y-23966768D01*
X67931365Y-24011000D01*
X67704635Y-24011000D01*
X67482266Y-23966768D01*
X67272798Y-23880004D01*
X67084277Y-23754038D01*
X66923962Y-23593723D01*
X66797996Y-23405202D01*
X66711232Y-23195734D01*
X66667000Y-22973365D01*
X66667000Y-22746635D01*
X66711232Y-22524266D01*
X66797996Y-22314798D01*
X66923962Y-22126277D01*
X67084277Y-21965962D01*
X67272798Y-21839996D01*
X67482266Y-21753232D01*
X67704635Y-21709000D01*
X67931365Y-21709000D01*
X68153734Y-21753232D01*
X68153734Y-21753232D01*
G37*
G36*
X31831734Y-21499232D02*
X32041202Y-21585996D01*
X32229723Y-21711962D01*
X32390038Y-21872277D01*
X32516004Y-22060798D01*
X32602768Y-22270266D01*
X32647000Y-22492635D01*
X32647000Y-22719365D01*
X32602768Y-22941734D01*
X32516004Y-23151202D01*
X32390038Y-23339723D01*
X32229723Y-23500038D01*
X32041202Y-23626004D01*
X31831734Y-23712768D01*
X31609365Y-23757000D01*
X31382635Y-23757000D01*
X31160266Y-23712768D01*
X30950798Y-23626004D01*
X30762277Y-23500038D01*
X30601962Y-23339723D01*
X30475996Y-23151202D01*
X30389232Y-22941734D01*
X30345000Y-22719365D01*
X30345000Y-22492635D01*
X30389232Y-22270266D01*
X30475996Y-22060798D01*
X30601962Y-21872277D01*
X30762277Y-21711962D01*
X30950798Y-21585996D01*
X31160266Y-21499232D01*
X31382635Y-21455000D01*
X31609365Y-21455000D01*
X31831734Y-21499232D01*
X31831734Y-21499232D01*
G37*
G36*
X42782442Y-19679518D02*
X42848627Y-19686037D01*
X42961853Y-19720384D01*
X43018467Y-19737557D01*
X43157087Y-19811652D01*
X43174991Y-19821222D01*
X43210729Y-19850552D01*
X43312186Y-19933814D01*
X43395448Y-20035271D01*
X43424778Y-20071009D01*
X43424779Y-20071011D01*
X43508443Y-20227533D01*
X43508443Y-20227534D01*
X43559963Y-20397373D01*
X43577359Y-20574000D01*
X43559963Y-20750627D01*
X43525616Y-20863853D01*
X43508443Y-20920467D01*
X43434348Y-21059087D01*
X43424778Y-21076991D01*
X43395448Y-21112729D01*
X43312186Y-21214186D01*
X43210729Y-21297448D01*
X43174991Y-21326778D01*
X43174989Y-21326779D01*
X43018467Y-21410443D01*
X42961853Y-21427616D01*
X42848627Y-21461963D01*
X42782443Y-21468481D01*
X42716260Y-21475000D01*
X42627740Y-21475000D01*
X42561557Y-21468481D01*
X42495373Y-21461963D01*
X42382147Y-21427616D01*
X42325533Y-21410443D01*
X42169011Y-21326779D01*
X42169009Y-21326778D01*
X42133271Y-21297448D01*
X42031814Y-21214186D01*
X41948552Y-21112729D01*
X41919222Y-21076991D01*
X41909652Y-21059087D01*
X41835557Y-20920467D01*
X41818384Y-20863853D01*
X41784037Y-20750627D01*
X41766641Y-20574000D01*
X41784037Y-20397373D01*
X41835557Y-20227534D01*
X41835557Y-20227533D01*
X41919221Y-20071011D01*
X41919222Y-20071009D01*
X41948552Y-20035271D01*
X42031814Y-19933814D01*
X42133271Y-19850552D01*
X42169009Y-19821222D01*
X42186913Y-19811652D01*
X42325533Y-19737557D01*
X42382147Y-19720384D01*
X42495373Y-19686037D01*
X42561558Y-19679518D01*
X42627740Y-19673000D01*
X42716260Y-19673000D01*
X42782442Y-19679518D01*
X42782442Y-19679518D01*
G37*
G36*
X58022442Y-19679518D02*
X58088627Y-19686037D01*
X58201853Y-19720384D01*
X58258467Y-19737557D01*
X58397087Y-19811652D01*
X58414991Y-19821222D01*
X58450729Y-19850552D01*
X58552186Y-19933814D01*
X58635448Y-20035271D01*
X58664778Y-20071009D01*
X58664779Y-20071011D01*
X58748443Y-20227533D01*
X58748443Y-20227534D01*
X58799963Y-20397373D01*
X58817359Y-20574000D01*
X58799963Y-20750627D01*
X58765616Y-20863853D01*
X58748443Y-20920467D01*
X58674348Y-21059087D01*
X58664778Y-21076991D01*
X58635448Y-21112729D01*
X58552186Y-21214186D01*
X58450729Y-21297448D01*
X58414991Y-21326778D01*
X58414989Y-21326779D01*
X58258467Y-21410443D01*
X58201853Y-21427616D01*
X58088627Y-21461963D01*
X58022442Y-21468482D01*
X57956260Y-21475000D01*
X57867740Y-21475000D01*
X57801557Y-21468481D01*
X57735373Y-21461963D01*
X57622147Y-21427616D01*
X57565533Y-21410443D01*
X57409011Y-21326779D01*
X57409009Y-21326778D01*
X57373271Y-21297448D01*
X57271814Y-21214186D01*
X57188552Y-21112729D01*
X57159222Y-21076991D01*
X57149652Y-21059087D01*
X57075557Y-20920467D01*
X57058384Y-20863853D01*
X57024037Y-20750627D01*
X57006641Y-20574000D01*
X57024037Y-20397373D01*
X57075557Y-20227534D01*
X57075557Y-20227533D01*
X57159221Y-20071011D01*
X57159222Y-20071009D01*
X57188552Y-20035271D01*
X57271814Y-19933814D01*
X57373271Y-19850552D01*
X57409009Y-19821222D01*
X57426913Y-19811652D01*
X57565533Y-19737557D01*
X57622147Y-19720384D01*
X57735373Y-19686037D01*
X57801558Y-19679518D01*
X57867740Y-19673000D01*
X57956260Y-19673000D01*
X58022442Y-19679518D01*
X58022442Y-19679518D01*
G37*
G36*
X55482442Y-19679518D02*
X55548627Y-19686037D01*
X55661853Y-19720384D01*
X55718467Y-19737557D01*
X55857087Y-19811652D01*
X55874991Y-19821222D01*
X55910729Y-19850552D01*
X56012186Y-19933814D01*
X56095448Y-20035271D01*
X56124778Y-20071009D01*
X56124779Y-20071011D01*
X56208443Y-20227533D01*
X56208443Y-20227534D01*
X56259963Y-20397373D01*
X56277359Y-20574000D01*
X56259963Y-20750627D01*
X56225616Y-20863853D01*
X56208443Y-20920467D01*
X56134348Y-21059087D01*
X56124778Y-21076991D01*
X56095448Y-21112729D01*
X56012186Y-21214186D01*
X55910729Y-21297448D01*
X55874991Y-21326778D01*
X55874989Y-21326779D01*
X55718467Y-21410443D01*
X55661853Y-21427616D01*
X55548627Y-21461963D01*
X55482442Y-21468482D01*
X55416260Y-21475000D01*
X55327740Y-21475000D01*
X55261557Y-21468481D01*
X55195373Y-21461963D01*
X55082147Y-21427616D01*
X55025533Y-21410443D01*
X54869011Y-21326779D01*
X54869009Y-21326778D01*
X54833271Y-21297448D01*
X54731814Y-21214186D01*
X54648552Y-21112729D01*
X54619222Y-21076991D01*
X54609652Y-21059087D01*
X54535557Y-20920467D01*
X54518384Y-20863853D01*
X54484037Y-20750627D01*
X54466641Y-20574000D01*
X54484037Y-20397373D01*
X54535557Y-20227534D01*
X54535557Y-20227533D01*
X54619221Y-20071011D01*
X54619222Y-20071009D01*
X54648552Y-20035271D01*
X54731814Y-19933814D01*
X54833271Y-19850552D01*
X54869009Y-19821222D01*
X54886913Y-19811652D01*
X55025533Y-19737557D01*
X55082147Y-19720384D01*
X55195373Y-19686037D01*
X55261558Y-19679518D01*
X55327740Y-19673000D01*
X55416260Y-19673000D01*
X55482442Y-19679518D01*
X55482442Y-19679518D01*
G37*
G36*
X41033000Y-21475000D02*
X39231000Y-21475000D01*
X39231000Y-19673000D01*
X41033000Y-19673000D01*
X41033000Y-21475000D01*
X41033000Y-21475000D01*
G37*
G36*
X45322442Y-19679518D02*
X45388627Y-19686037D01*
X45501853Y-19720384D01*
X45558467Y-19737557D01*
X45697087Y-19811652D01*
X45714991Y-19821222D01*
X45750729Y-19850552D01*
X45852186Y-19933814D01*
X45935448Y-20035271D01*
X45964778Y-20071009D01*
X45964779Y-20071011D01*
X46048443Y-20227533D01*
X46048443Y-20227534D01*
X46099963Y-20397373D01*
X46117359Y-20574000D01*
X46099963Y-20750627D01*
X46065616Y-20863853D01*
X46048443Y-20920467D01*
X45974348Y-21059087D01*
X45964778Y-21076991D01*
X45935448Y-21112729D01*
X45852186Y-21214186D01*
X45750729Y-21297448D01*
X45714991Y-21326778D01*
X45714989Y-21326779D01*
X45558467Y-21410443D01*
X45501853Y-21427616D01*
X45388627Y-21461963D01*
X45322443Y-21468481D01*
X45256260Y-21475000D01*
X45167740Y-21475000D01*
X45101557Y-21468481D01*
X45035373Y-21461963D01*
X44922147Y-21427616D01*
X44865533Y-21410443D01*
X44709011Y-21326779D01*
X44709009Y-21326778D01*
X44673271Y-21297448D01*
X44571814Y-21214186D01*
X44488552Y-21112729D01*
X44459222Y-21076991D01*
X44449652Y-21059087D01*
X44375557Y-20920467D01*
X44358384Y-20863853D01*
X44324037Y-20750627D01*
X44306641Y-20574000D01*
X44324037Y-20397373D01*
X44375557Y-20227534D01*
X44375557Y-20227533D01*
X44459221Y-20071011D01*
X44459222Y-20071009D01*
X44488552Y-20035271D01*
X44571814Y-19933814D01*
X44673271Y-19850552D01*
X44709009Y-19821222D01*
X44726913Y-19811652D01*
X44865533Y-19737557D01*
X44922147Y-19720384D01*
X45035373Y-19686037D01*
X45101558Y-19679518D01*
X45167740Y-19673000D01*
X45256260Y-19673000D01*
X45322442Y-19679518D01*
X45322442Y-19679518D01*
G37*
G36*
X47862442Y-19679518D02*
X47928627Y-19686037D01*
X48041853Y-19720384D01*
X48098467Y-19737557D01*
X48237087Y-19811652D01*
X48254991Y-19821222D01*
X48290729Y-19850552D01*
X48392186Y-19933814D01*
X48475448Y-20035271D01*
X48504778Y-20071009D01*
X48504779Y-20071011D01*
X48588443Y-20227533D01*
X48588443Y-20227534D01*
X48639963Y-20397373D01*
X48657359Y-20574000D01*
X48639963Y-20750627D01*
X48605616Y-20863853D01*
X48588443Y-20920467D01*
X48514348Y-21059087D01*
X48504778Y-21076991D01*
X48475448Y-21112729D01*
X48392186Y-21214186D01*
X48290729Y-21297448D01*
X48254991Y-21326778D01*
X48254989Y-21326779D01*
X48098467Y-21410443D01*
X48041853Y-21427616D01*
X47928627Y-21461963D01*
X47862443Y-21468481D01*
X47796260Y-21475000D01*
X47707740Y-21475000D01*
X47641557Y-21468481D01*
X47575373Y-21461963D01*
X47462147Y-21427616D01*
X47405533Y-21410443D01*
X47249011Y-21326779D01*
X47249009Y-21326778D01*
X47213271Y-21297448D01*
X47111814Y-21214186D01*
X47028552Y-21112729D01*
X46999222Y-21076991D01*
X46989652Y-21059087D01*
X46915557Y-20920467D01*
X46898384Y-20863853D01*
X46864037Y-20750627D01*
X46846641Y-20574000D01*
X46864037Y-20397373D01*
X46915557Y-20227534D01*
X46915557Y-20227533D01*
X46999221Y-20071011D01*
X46999222Y-20071009D01*
X47028552Y-20035271D01*
X47111814Y-19933814D01*
X47213271Y-19850552D01*
X47249009Y-19821222D01*
X47266913Y-19811652D01*
X47405533Y-19737557D01*
X47462147Y-19720384D01*
X47575373Y-19686037D01*
X47641558Y-19679518D01*
X47707740Y-19673000D01*
X47796260Y-19673000D01*
X47862442Y-19679518D01*
X47862442Y-19679518D01*
G37*
G36*
X50402442Y-19679518D02*
X50468627Y-19686037D01*
X50581853Y-19720384D01*
X50638467Y-19737557D01*
X50777087Y-19811652D01*
X50794991Y-19821222D01*
X50830729Y-19850552D01*
X50932186Y-19933814D01*
X51015448Y-20035271D01*
X51044778Y-20071009D01*
X51044779Y-20071011D01*
X51128443Y-20227533D01*
X51128443Y-20227534D01*
X51179963Y-20397373D01*
X51197359Y-20574000D01*
X51179963Y-20750627D01*
X51145616Y-20863853D01*
X51128443Y-20920467D01*
X51054348Y-21059087D01*
X51044778Y-21076991D01*
X51015448Y-21112729D01*
X50932186Y-21214186D01*
X50830729Y-21297448D01*
X50794991Y-21326778D01*
X50794989Y-21326779D01*
X50638467Y-21410443D01*
X50581853Y-21427616D01*
X50468627Y-21461963D01*
X50402443Y-21468481D01*
X50336260Y-21475000D01*
X50247740Y-21475000D01*
X50181557Y-21468481D01*
X50115373Y-21461963D01*
X50002147Y-21427616D01*
X49945533Y-21410443D01*
X49789011Y-21326779D01*
X49789009Y-21326778D01*
X49753271Y-21297448D01*
X49651814Y-21214186D01*
X49568552Y-21112729D01*
X49539222Y-21076991D01*
X49529652Y-21059087D01*
X49455557Y-20920467D01*
X49438384Y-20863853D01*
X49404037Y-20750627D01*
X49386641Y-20574000D01*
X49404037Y-20397373D01*
X49455557Y-20227534D01*
X49455557Y-20227533D01*
X49539221Y-20071011D01*
X49539222Y-20071009D01*
X49568552Y-20035271D01*
X49651814Y-19933814D01*
X49753271Y-19850552D01*
X49789009Y-19821222D01*
X49806913Y-19811652D01*
X49945533Y-19737557D01*
X50002147Y-19720384D01*
X50115373Y-19686037D01*
X50181558Y-19679518D01*
X50247740Y-19673000D01*
X50336260Y-19673000D01*
X50402442Y-19679518D01*
X50402442Y-19679518D01*
G37*
G36*
X52942442Y-19679518D02*
X53008627Y-19686037D01*
X53121853Y-19720384D01*
X53178467Y-19737557D01*
X53317087Y-19811652D01*
X53334991Y-19821222D01*
X53370729Y-19850552D01*
X53472186Y-19933814D01*
X53555448Y-20035271D01*
X53584778Y-20071009D01*
X53584779Y-20071011D01*
X53668443Y-20227533D01*
X53668443Y-20227534D01*
X53719963Y-20397373D01*
X53737359Y-20574000D01*
X53719963Y-20750627D01*
X53685616Y-20863853D01*
X53668443Y-20920467D01*
X53594348Y-21059087D01*
X53584778Y-21076991D01*
X53555448Y-21112729D01*
X53472186Y-21214186D01*
X53370729Y-21297448D01*
X53334991Y-21326778D01*
X53334989Y-21326779D01*
X53178467Y-21410443D01*
X53121853Y-21427616D01*
X53008627Y-21461963D01*
X52942442Y-21468482D01*
X52876260Y-21475000D01*
X52787740Y-21475000D01*
X52721557Y-21468481D01*
X52655373Y-21461963D01*
X52542147Y-21427616D01*
X52485533Y-21410443D01*
X52329011Y-21326779D01*
X52329009Y-21326778D01*
X52293271Y-21297448D01*
X52191814Y-21214186D01*
X52108552Y-21112729D01*
X52079222Y-21076991D01*
X52069652Y-21059087D01*
X51995557Y-20920467D01*
X51978384Y-20863853D01*
X51944037Y-20750627D01*
X51926641Y-20574000D01*
X51944037Y-20397373D01*
X51995557Y-20227534D01*
X51995557Y-20227533D01*
X52079221Y-20071011D01*
X52079222Y-20071009D01*
X52108552Y-20035271D01*
X52191814Y-19933814D01*
X52293271Y-19850552D01*
X52329009Y-19821222D01*
X52346913Y-19811652D01*
X52485533Y-19737557D01*
X52542147Y-19720384D01*
X52655373Y-19686037D01*
X52721558Y-19679518D01*
X52787740Y-19673000D01*
X52876260Y-19673000D01*
X52942442Y-19679518D01*
X52942442Y-19679518D01*
G37*
G36*
X68661734Y-14387232D02*
X68871202Y-14473996D01*
X69059723Y-14599962D01*
X69220038Y-14760277D01*
X69346004Y-14948798D01*
X69432768Y-15158266D01*
X69477000Y-15380635D01*
X69477000Y-15607365D01*
X69432768Y-15829734D01*
X69346004Y-16039202D01*
X69220038Y-16227723D01*
X69059723Y-16388038D01*
X68871202Y-16514004D01*
X68661734Y-16600768D01*
X68439365Y-16645000D01*
X68212635Y-16645000D01*
X67990266Y-16600768D01*
X67780798Y-16514004D01*
X67592277Y-16388038D01*
X67431962Y-16227723D01*
X67305996Y-16039202D01*
X67219232Y-15829734D01*
X67175000Y-15607365D01*
X67175000Y-15380635D01*
X67219232Y-15158266D01*
X67305996Y-14948798D01*
X67431962Y-14760277D01*
X67592277Y-14599962D01*
X67780798Y-14473996D01*
X67990266Y-14387232D01*
X68212635Y-14343000D01*
X68439365Y-14343000D01*
X68661734Y-14387232D01*
X68661734Y-14387232D01*
G37*
G36*
X31069734Y-14387232D02*
X31279202Y-14473996D01*
X31467723Y-14599962D01*
X31628038Y-14760277D01*
X31754004Y-14948798D01*
X31840768Y-15158266D01*
X31885000Y-15380635D01*
X31885000Y-15607365D01*
X31840768Y-15829734D01*
X31754004Y-16039202D01*
X31628038Y-16227723D01*
X31467723Y-16388038D01*
X31279202Y-16514004D01*
X31069734Y-16600768D01*
X30847365Y-16645000D01*
X30620635Y-16645000D01*
X30398266Y-16600768D01*
X30188798Y-16514004D01*
X30000277Y-16388038D01*
X29839962Y-16227723D01*
X29713996Y-16039202D01*
X29627232Y-15829734D01*
X29583000Y-15607365D01*
X29583000Y-15380635D01*
X29627232Y-15158266D01*
X29713996Y-14948798D01*
X29839962Y-14760277D01*
X30000277Y-14599962D01*
X30188798Y-14473996D01*
X30398266Y-14387232D01*
X30620635Y-14343000D01*
X30847365Y-14343000D01*
X31069734Y-14387232D01*
X31069734Y-14387232D01*
G37*
G36*
X41033000Y-16395000D02*
X39231000Y-16395000D01*
X39231000Y-14593000D01*
X41033000Y-14593000D01*
X41033000Y-16395000D01*
X41033000Y-16395000D01*
G37*
G36*
X42782443Y-14599519D02*
X42848627Y-14606037D01*
X42961853Y-14640384D01*
X43018467Y-14657557D01*
X43157087Y-14731652D01*
X43174991Y-14741222D01*
X43198209Y-14760277D01*
X43312186Y-14853814D01*
X43390135Y-14948797D01*
X43424778Y-14991009D01*
X43424779Y-14991011D01*
X43508443Y-15147533D01*
X43508443Y-15147534D01*
X43559963Y-15317373D01*
X43577359Y-15494000D01*
X43559963Y-15670627D01*
X43525616Y-15783853D01*
X43508443Y-15840467D01*
X43434348Y-15979087D01*
X43424778Y-15996991D01*
X43395448Y-16032729D01*
X43312186Y-16134186D01*
X43210729Y-16217448D01*
X43174991Y-16246778D01*
X43174989Y-16246779D01*
X43018467Y-16330443D01*
X42961853Y-16347616D01*
X42848627Y-16381963D01*
X42786925Y-16388040D01*
X42716260Y-16395000D01*
X42627740Y-16395000D01*
X42557075Y-16388040D01*
X42495373Y-16381963D01*
X42382147Y-16347616D01*
X42325533Y-16330443D01*
X42169011Y-16246779D01*
X42169009Y-16246778D01*
X42133271Y-16217448D01*
X42031814Y-16134186D01*
X41948552Y-16032729D01*
X41919222Y-15996991D01*
X41909652Y-15979087D01*
X41835557Y-15840467D01*
X41818384Y-15783853D01*
X41784037Y-15670627D01*
X41766641Y-15494000D01*
X41784037Y-15317373D01*
X41835557Y-15147534D01*
X41835557Y-15147533D01*
X41919221Y-14991011D01*
X41919222Y-14991009D01*
X41953865Y-14948797D01*
X42031814Y-14853814D01*
X42145791Y-14760277D01*
X42169009Y-14741222D01*
X42186913Y-14731652D01*
X42325533Y-14657557D01*
X42382147Y-14640384D01*
X42495373Y-14606037D01*
X42561557Y-14599519D01*
X42627740Y-14593000D01*
X42716260Y-14593000D01*
X42782443Y-14599519D01*
X42782443Y-14599519D01*
G37*
G36*
X45322443Y-14599519D02*
X45388627Y-14606037D01*
X45501853Y-14640384D01*
X45558467Y-14657557D01*
X45697087Y-14731652D01*
X45714991Y-14741222D01*
X45738209Y-14760277D01*
X45852186Y-14853814D01*
X45930135Y-14948797D01*
X45964778Y-14991009D01*
X45964779Y-14991011D01*
X46048443Y-15147533D01*
X46048443Y-15147534D01*
X46099963Y-15317373D01*
X46117359Y-15494000D01*
X46099963Y-15670627D01*
X46065616Y-15783853D01*
X46048443Y-15840467D01*
X45974348Y-15979087D01*
X45964778Y-15996991D01*
X45935448Y-16032729D01*
X45852186Y-16134186D01*
X45750729Y-16217448D01*
X45714991Y-16246778D01*
X45714989Y-16246779D01*
X45558467Y-16330443D01*
X45501853Y-16347616D01*
X45388627Y-16381963D01*
X45326925Y-16388040D01*
X45256260Y-16395000D01*
X45167740Y-16395000D01*
X45097075Y-16388040D01*
X45035373Y-16381963D01*
X44922147Y-16347616D01*
X44865533Y-16330443D01*
X44709011Y-16246779D01*
X44709009Y-16246778D01*
X44673271Y-16217448D01*
X44571814Y-16134186D01*
X44488552Y-16032729D01*
X44459222Y-15996991D01*
X44449652Y-15979087D01*
X44375557Y-15840467D01*
X44358384Y-15783853D01*
X44324037Y-15670627D01*
X44306641Y-15494000D01*
X44324037Y-15317373D01*
X44375557Y-15147534D01*
X44375557Y-15147533D01*
X44459221Y-14991011D01*
X44459222Y-14991009D01*
X44493865Y-14948797D01*
X44571814Y-14853814D01*
X44685791Y-14760277D01*
X44709009Y-14741222D01*
X44726913Y-14731652D01*
X44865533Y-14657557D01*
X44922147Y-14640384D01*
X45035373Y-14606037D01*
X45101557Y-14599519D01*
X45167740Y-14593000D01*
X45256260Y-14593000D01*
X45322443Y-14599519D01*
X45322443Y-14599519D01*
G37*
G36*
X61099000Y-16395000D02*
X59297000Y-16395000D01*
X59297000Y-14593000D01*
X61099000Y-14593000D01*
X61099000Y-16395000D01*
X61099000Y-16395000D01*
G37*
G36*
X55482443Y-14599519D02*
X55548627Y-14606037D01*
X55661853Y-14640384D01*
X55718467Y-14657557D01*
X55857087Y-14731652D01*
X55874991Y-14741222D01*
X55898209Y-14760277D01*
X56012186Y-14853814D01*
X56090135Y-14948797D01*
X56124778Y-14991009D01*
X56124779Y-14991011D01*
X56208443Y-15147533D01*
X56208443Y-15147534D01*
X56259963Y-15317373D01*
X56277359Y-15494000D01*
X56259963Y-15670627D01*
X56225616Y-15783853D01*
X56208443Y-15840467D01*
X56134348Y-15979087D01*
X56124778Y-15996991D01*
X56095448Y-16032729D01*
X56012186Y-16134186D01*
X55910729Y-16217448D01*
X55874991Y-16246778D01*
X55874989Y-16246779D01*
X55718467Y-16330443D01*
X55661853Y-16347616D01*
X55548627Y-16381963D01*
X55486925Y-16388040D01*
X55416260Y-16395000D01*
X55327740Y-16395000D01*
X55257075Y-16388040D01*
X55195373Y-16381963D01*
X55082147Y-16347616D01*
X55025533Y-16330443D01*
X54869011Y-16246779D01*
X54869009Y-16246778D01*
X54833271Y-16217448D01*
X54731814Y-16134186D01*
X54648552Y-16032729D01*
X54619222Y-15996991D01*
X54609652Y-15979087D01*
X54535557Y-15840467D01*
X54518384Y-15783853D01*
X54484037Y-15670627D01*
X54466641Y-15494000D01*
X54484037Y-15317373D01*
X54535557Y-15147534D01*
X54535557Y-15147533D01*
X54619221Y-14991011D01*
X54619222Y-14991009D01*
X54653865Y-14948797D01*
X54731814Y-14853814D01*
X54845791Y-14760277D01*
X54869009Y-14741222D01*
X54886913Y-14731652D01*
X55025533Y-14657557D01*
X55082147Y-14640384D01*
X55195373Y-14606037D01*
X55261557Y-14599519D01*
X55327740Y-14593000D01*
X55416260Y-14593000D01*
X55482443Y-14599519D01*
X55482443Y-14599519D01*
G37*
G36*
X52942443Y-14599519D02*
X53008627Y-14606037D01*
X53121853Y-14640384D01*
X53178467Y-14657557D01*
X53317087Y-14731652D01*
X53334991Y-14741222D01*
X53358209Y-14760277D01*
X53472186Y-14853814D01*
X53550135Y-14948797D01*
X53584778Y-14991009D01*
X53584779Y-14991011D01*
X53668443Y-15147533D01*
X53668443Y-15147534D01*
X53719963Y-15317373D01*
X53737359Y-15494000D01*
X53719963Y-15670627D01*
X53685616Y-15783853D01*
X53668443Y-15840467D01*
X53594348Y-15979087D01*
X53584778Y-15996991D01*
X53555448Y-16032729D01*
X53472186Y-16134186D01*
X53370729Y-16217448D01*
X53334991Y-16246778D01*
X53334989Y-16246779D01*
X53178467Y-16330443D01*
X53121853Y-16347616D01*
X53008627Y-16381963D01*
X52946925Y-16388040D01*
X52876260Y-16395000D01*
X52787740Y-16395000D01*
X52717075Y-16388040D01*
X52655373Y-16381963D01*
X52542147Y-16347616D01*
X52485533Y-16330443D01*
X52329011Y-16246779D01*
X52329009Y-16246778D01*
X52293271Y-16217448D01*
X52191814Y-16134186D01*
X52108552Y-16032729D01*
X52079222Y-15996991D01*
X52069652Y-15979087D01*
X51995557Y-15840467D01*
X51978384Y-15783853D01*
X51944037Y-15670627D01*
X51926641Y-15494000D01*
X51944037Y-15317373D01*
X51995557Y-15147534D01*
X51995557Y-15147533D01*
X52079221Y-14991011D01*
X52079222Y-14991009D01*
X52113865Y-14948797D01*
X52191814Y-14853814D01*
X52305791Y-14760277D01*
X52329009Y-14741222D01*
X52346913Y-14731652D01*
X52485533Y-14657557D01*
X52542147Y-14640384D01*
X52655373Y-14606037D01*
X52721557Y-14599519D01*
X52787740Y-14593000D01*
X52876260Y-14593000D01*
X52942443Y-14599519D01*
X52942443Y-14599519D01*
G37*
G36*
X50402443Y-14599519D02*
X50468627Y-14606037D01*
X50581853Y-14640384D01*
X50638467Y-14657557D01*
X50777087Y-14731652D01*
X50794991Y-14741222D01*
X50818209Y-14760277D01*
X50932186Y-14853814D01*
X51010135Y-14948797D01*
X51044778Y-14991009D01*
X51044779Y-14991011D01*
X51128443Y-15147533D01*
X51128443Y-15147534D01*
X51179963Y-15317373D01*
X51197359Y-15494000D01*
X51179963Y-15670627D01*
X51145616Y-15783853D01*
X51128443Y-15840467D01*
X51054348Y-15979087D01*
X51044778Y-15996991D01*
X51015448Y-16032729D01*
X50932186Y-16134186D01*
X50830729Y-16217448D01*
X50794991Y-16246778D01*
X50794989Y-16246779D01*
X50638467Y-16330443D01*
X50581853Y-16347616D01*
X50468627Y-16381963D01*
X50406925Y-16388040D01*
X50336260Y-16395000D01*
X50247740Y-16395000D01*
X50177075Y-16388040D01*
X50115373Y-16381963D01*
X50002147Y-16347616D01*
X49945533Y-16330443D01*
X49789011Y-16246779D01*
X49789009Y-16246778D01*
X49753271Y-16217448D01*
X49651814Y-16134186D01*
X49568552Y-16032729D01*
X49539222Y-15996991D01*
X49529652Y-15979087D01*
X49455557Y-15840467D01*
X49438384Y-15783853D01*
X49404037Y-15670627D01*
X49386641Y-15494000D01*
X49404037Y-15317373D01*
X49455557Y-15147534D01*
X49455557Y-15147533D01*
X49539221Y-14991011D01*
X49539222Y-14991009D01*
X49573865Y-14948797D01*
X49651814Y-14853814D01*
X49765791Y-14760277D01*
X49789009Y-14741222D01*
X49806913Y-14731652D01*
X49945533Y-14657557D01*
X50002147Y-14640384D01*
X50115373Y-14606037D01*
X50181557Y-14599519D01*
X50247740Y-14593000D01*
X50336260Y-14593000D01*
X50402443Y-14599519D01*
X50402443Y-14599519D01*
G37*
G36*
X47862443Y-14599519D02*
X47928627Y-14606037D01*
X48041853Y-14640384D01*
X48098467Y-14657557D01*
X48237087Y-14731652D01*
X48254991Y-14741222D01*
X48278209Y-14760277D01*
X48392186Y-14853814D01*
X48470135Y-14948797D01*
X48504778Y-14991009D01*
X48504779Y-14991011D01*
X48588443Y-15147533D01*
X48588443Y-15147534D01*
X48639963Y-15317373D01*
X48657359Y-15494000D01*
X48639963Y-15670627D01*
X48605616Y-15783853D01*
X48588443Y-15840467D01*
X48514348Y-15979087D01*
X48504778Y-15996991D01*
X48475448Y-16032729D01*
X48392186Y-16134186D01*
X48290729Y-16217448D01*
X48254991Y-16246778D01*
X48254989Y-16246779D01*
X48098467Y-16330443D01*
X48041853Y-16347616D01*
X47928627Y-16381963D01*
X47866925Y-16388040D01*
X47796260Y-16395000D01*
X47707740Y-16395000D01*
X47637075Y-16388040D01*
X47575373Y-16381963D01*
X47462147Y-16347616D01*
X47405533Y-16330443D01*
X47249011Y-16246779D01*
X47249009Y-16246778D01*
X47213271Y-16217448D01*
X47111814Y-16134186D01*
X47028552Y-16032729D01*
X46999222Y-15996991D01*
X46989652Y-15979087D01*
X46915557Y-15840467D01*
X46898384Y-15783853D01*
X46864037Y-15670627D01*
X46846641Y-15494000D01*
X46864037Y-15317373D01*
X46915557Y-15147534D01*
X46915557Y-15147533D01*
X46999221Y-14991011D01*
X46999222Y-14991009D01*
X47033865Y-14948797D01*
X47111814Y-14853814D01*
X47225791Y-14760277D01*
X47249009Y-14741222D01*
X47266913Y-14731652D01*
X47405533Y-14657557D01*
X47462147Y-14640384D01*
X47575373Y-14606037D01*
X47641557Y-14599519D01*
X47707740Y-14593000D01*
X47796260Y-14593000D01*
X47862443Y-14599519D01*
X47862443Y-14599519D01*
G37*
M02*
