G04 #@! TF.GenerationSoftware,KiCad,Pcbnew,5.0.2-bee76a0~70~ubuntu18.04.1*
G04 #@! TF.CreationDate,2019-01-08T11:52:29+01:00*
G04 #@! TF.ProjectId,lightmeter,6c696768-746d-4657-9465-722e6b696361,rev?*
G04 #@! TF.SameCoordinates,Original*
G04 #@! TF.FileFunction,Soldermask,Bot*
G04 #@! TF.FilePolarity,Negative*
%FSLAX46Y46*%
G04 Gerber Fmt 4.6, Leading zero omitted, Abs format (unit mm)*
G04 Created by KiCad (PCBNEW 5.0.2-bee76a0~70~ubuntu18.04.1) date mar. 08 janv. 2019 11:52:29 CET*
%MOMM*%
%LPD*%
G01*
G04 APERTURE LIST*
%ADD10C,0.100000*%
G04 APERTURE END LIST*
D10*
G36*
X68661734Y-77379232D02*
X68871202Y-77465996D01*
X69059723Y-77591962D01*
X69220038Y-77752277D01*
X69346004Y-77940798D01*
X69432768Y-78150266D01*
X69477000Y-78372635D01*
X69477000Y-78599365D01*
X69432768Y-78821734D01*
X69346004Y-79031202D01*
X69220038Y-79219723D01*
X69059723Y-79380038D01*
X68871202Y-79506004D01*
X68661734Y-79592768D01*
X68439365Y-79637000D01*
X68212635Y-79637000D01*
X67990266Y-79592768D01*
X67780798Y-79506004D01*
X67592277Y-79380038D01*
X67431962Y-79219723D01*
X67305996Y-79031202D01*
X67219232Y-78821734D01*
X67175000Y-78599365D01*
X67175000Y-78372635D01*
X67219232Y-78150266D01*
X67305996Y-77940798D01*
X67431962Y-77752277D01*
X67592277Y-77591962D01*
X67780798Y-77465996D01*
X67990266Y-77379232D01*
X68212635Y-77335000D01*
X68439365Y-77335000D01*
X68661734Y-77379232D01*
X68661734Y-77379232D01*
G37*
G36*
X31069734Y-77379232D02*
X31279202Y-77465996D01*
X31467723Y-77591962D01*
X31628038Y-77752277D01*
X31754004Y-77940798D01*
X31840768Y-78150266D01*
X31885000Y-78372635D01*
X31885000Y-78599365D01*
X31840768Y-78821734D01*
X31754004Y-79031202D01*
X31628038Y-79219723D01*
X31467723Y-79380038D01*
X31279202Y-79506004D01*
X31069734Y-79592768D01*
X30847365Y-79637000D01*
X30620635Y-79637000D01*
X30398266Y-79592768D01*
X30188798Y-79506004D01*
X30000277Y-79380038D01*
X29839962Y-79219723D01*
X29713996Y-79031202D01*
X29627232Y-78821734D01*
X29583000Y-78599365D01*
X29583000Y-78372635D01*
X29627232Y-78150266D01*
X29713996Y-77940798D01*
X29839962Y-77752277D01*
X30000277Y-77591962D01*
X30188798Y-77465996D01*
X30398266Y-77379232D01*
X30620635Y-77335000D01*
X30847365Y-77335000D01*
X31069734Y-77379232D01*
X31069734Y-77379232D01*
G37*
G36*
X64151000Y-70755000D02*
X62849000Y-70755000D01*
X62849000Y-69453000D01*
X64151000Y-69453000D01*
X64151000Y-70755000D01*
X64151000Y-70755000D01*
G37*
G36*
X58024916Y-68295334D02*
X58133492Y-68328271D01*
X58233557Y-68381756D01*
X58321264Y-68453736D01*
X58384374Y-68530635D01*
X58401701Y-68547962D01*
X58422076Y-68561576D01*
X58444715Y-68570954D01*
X58468748Y-68575734D01*
X58493252Y-68575734D01*
X58517286Y-68570953D01*
X58539925Y-68561576D01*
X58560299Y-68547962D01*
X58577626Y-68530635D01*
X58591240Y-68510260D01*
X58600618Y-68487621D01*
X58606000Y-68451336D01*
X58606000Y-68287000D01*
X59758000Y-68287000D01*
X59758000Y-69889000D01*
X58606000Y-69889000D01*
X58606000Y-69724663D01*
X58603598Y-69700277D01*
X58596485Y-69676828D01*
X58584934Y-69655217D01*
X58569388Y-69636275D01*
X58550446Y-69620729D01*
X58528835Y-69609178D01*
X58505386Y-69602065D01*
X58481000Y-69599663D01*
X58456614Y-69602065D01*
X58433165Y-69609178D01*
X58411554Y-69620729D01*
X58384377Y-69645361D01*
X58321264Y-69722264D01*
X58233556Y-69794244D01*
X58133491Y-69847729D01*
X58024915Y-69880666D01*
X57912000Y-69891787D01*
X57799084Y-69880666D01*
X57690508Y-69847729D01*
X57590443Y-69794244D01*
X57502736Y-69722264D01*
X57430756Y-69634556D01*
X57387240Y-69553142D01*
X57373627Y-69532767D01*
X57356299Y-69515440D01*
X57335925Y-69501826D01*
X57313286Y-69492449D01*
X57289253Y-69487668D01*
X57264748Y-69487668D01*
X57240715Y-69492448D01*
X57218076Y-69501826D01*
X57197701Y-69515439D01*
X57180374Y-69532767D01*
X57166767Y-69553131D01*
X57123244Y-69634557D01*
X57051264Y-69722264D01*
X56963556Y-69794244D01*
X56863491Y-69847729D01*
X56754915Y-69880666D01*
X56642000Y-69891787D01*
X56529084Y-69880666D01*
X56420508Y-69847729D01*
X56320443Y-69794244D01*
X56232736Y-69722264D01*
X56160756Y-69634556D01*
X56107271Y-69534491D01*
X56074334Y-69425915D01*
X56066000Y-69341297D01*
X56066000Y-68834702D01*
X56074334Y-68750084D01*
X56107271Y-68641508D01*
X56144983Y-68570954D01*
X56160755Y-68541446D01*
X56179183Y-68518992D01*
X56232737Y-68453736D01*
X56320444Y-68381756D01*
X56420509Y-68328271D01*
X56529085Y-68295334D01*
X56642000Y-68284213D01*
X56754916Y-68295334D01*
X56863492Y-68328271D01*
X56963557Y-68381756D01*
X57051264Y-68453736D01*
X57123244Y-68541443D01*
X57166760Y-68622857D01*
X57180373Y-68643232D01*
X57197701Y-68660559D01*
X57218075Y-68674173D01*
X57240714Y-68683550D01*
X57264747Y-68688331D01*
X57289252Y-68688331D01*
X57313285Y-68683551D01*
X57335924Y-68674173D01*
X57356299Y-68660560D01*
X57373626Y-68643232D01*
X57387240Y-68622857D01*
X57430755Y-68541446D01*
X57449183Y-68518992D01*
X57502737Y-68453736D01*
X57590444Y-68381756D01*
X57690509Y-68328271D01*
X57799085Y-68295334D01*
X57912000Y-68284213D01*
X58024916Y-68295334D01*
X58024916Y-68295334D01*
G37*
G36*
X46825000Y-69431000D02*
X45123000Y-69431000D01*
X45123000Y-67729000D01*
X46825000Y-67729000D01*
X46825000Y-69431000D01*
X46825000Y-69431000D01*
G37*
G36*
X43174228Y-67761703D02*
X43329100Y-67825853D01*
X43468481Y-67918985D01*
X43587015Y-68037519D01*
X43680147Y-68176900D01*
X43744297Y-68331772D01*
X43777000Y-68496184D01*
X43777000Y-68663816D01*
X43744297Y-68828228D01*
X43680147Y-68983100D01*
X43587015Y-69122481D01*
X43468481Y-69241015D01*
X43329100Y-69334147D01*
X43174228Y-69398297D01*
X43009816Y-69431000D01*
X42842184Y-69431000D01*
X42677772Y-69398297D01*
X42522900Y-69334147D01*
X42383519Y-69241015D01*
X42264985Y-69122481D01*
X42171853Y-68983100D01*
X42107703Y-68828228D01*
X42075000Y-68663816D01*
X42075000Y-68496184D01*
X42107703Y-68331772D01*
X42171853Y-68176900D01*
X42264985Y-68037519D01*
X42383519Y-67918985D01*
X42522900Y-67825853D01*
X42677772Y-67761703D01*
X42842184Y-67729000D01*
X43009816Y-67729000D01*
X43174228Y-67761703D01*
X43174228Y-67761703D01*
G37*
G36*
X35472821Y-67741313D02*
X35472824Y-67741314D01*
X35472825Y-67741314D01*
X35633239Y-67789975D01*
X35633241Y-67789976D01*
X35633244Y-67789977D01*
X35781078Y-67868995D01*
X35910659Y-67975341D01*
X36017005Y-68104922D01*
X36096023Y-68252756D01*
X36096024Y-68252759D01*
X36096025Y-68252761D01*
X36135155Y-68381756D01*
X36144687Y-68413179D01*
X36161117Y-68580000D01*
X36144687Y-68746821D01*
X36144686Y-68746824D01*
X36144686Y-68746825D01*
X36118029Y-68834703D01*
X36096023Y-68907244D01*
X36017005Y-69055078D01*
X35910659Y-69184659D01*
X35781078Y-69291005D01*
X35633244Y-69370023D01*
X35633241Y-69370024D01*
X35633239Y-69370025D01*
X35472825Y-69418686D01*
X35472824Y-69418686D01*
X35472821Y-69418687D01*
X35347804Y-69431000D01*
X35264196Y-69431000D01*
X35139179Y-69418687D01*
X35139176Y-69418686D01*
X35139175Y-69418686D01*
X34978761Y-69370025D01*
X34978759Y-69370024D01*
X34978756Y-69370023D01*
X34830922Y-69291005D01*
X34701341Y-69184659D01*
X34594995Y-69055078D01*
X34515977Y-68907244D01*
X34493972Y-68834703D01*
X34467314Y-68746825D01*
X34467314Y-68746824D01*
X34467313Y-68746821D01*
X34450883Y-68580000D01*
X34467313Y-68413179D01*
X34476845Y-68381756D01*
X34515975Y-68252761D01*
X34515976Y-68252759D01*
X34515977Y-68252756D01*
X34594995Y-68104922D01*
X34701341Y-67975341D01*
X34830922Y-67868995D01*
X34978756Y-67789977D01*
X34978759Y-67789976D01*
X34978761Y-67789975D01*
X35139175Y-67741314D01*
X35139176Y-67741314D01*
X35139179Y-67741313D01*
X35264196Y-67729000D01*
X35347804Y-67729000D01*
X35472821Y-67741313D01*
X35472821Y-67741313D01*
G37*
G36*
X53760821Y-67741313D02*
X53760824Y-67741314D01*
X53760825Y-67741314D01*
X53921239Y-67789975D01*
X53921241Y-67789976D01*
X53921244Y-67789977D01*
X54069078Y-67868995D01*
X54198659Y-67975341D01*
X54305005Y-68104922D01*
X54384023Y-68252756D01*
X54384024Y-68252759D01*
X54384025Y-68252761D01*
X54423155Y-68381756D01*
X54432687Y-68413179D01*
X54449117Y-68580000D01*
X54432687Y-68746821D01*
X54432686Y-68746824D01*
X54432686Y-68746825D01*
X54406029Y-68834703D01*
X54384023Y-68907244D01*
X54305005Y-69055078D01*
X54198659Y-69184659D01*
X54069078Y-69291005D01*
X53921244Y-69370023D01*
X53921241Y-69370024D01*
X53921239Y-69370025D01*
X53760825Y-69418686D01*
X53760824Y-69418686D01*
X53760821Y-69418687D01*
X53635804Y-69431000D01*
X53552196Y-69431000D01*
X53427179Y-69418687D01*
X53427176Y-69418686D01*
X53427175Y-69418686D01*
X53266761Y-69370025D01*
X53266759Y-69370024D01*
X53266756Y-69370023D01*
X53118922Y-69291005D01*
X52989341Y-69184659D01*
X52882995Y-69055078D01*
X52803977Y-68907244D01*
X52781972Y-68834703D01*
X52755314Y-68746825D01*
X52755314Y-68746824D01*
X52755313Y-68746821D01*
X52738883Y-68580000D01*
X52755313Y-68413179D01*
X52764845Y-68381756D01*
X52803975Y-68252761D01*
X52803976Y-68252759D01*
X52803977Y-68252756D01*
X52882995Y-68104922D01*
X52989341Y-67975341D01*
X53118922Y-67868995D01*
X53266756Y-67789977D01*
X53266759Y-67789976D01*
X53266761Y-67789975D01*
X53427175Y-67741314D01*
X53427176Y-67741314D01*
X53427179Y-67741313D01*
X53552196Y-67729000D01*
X53635804Y-67729000D01*
X53760821Y-67741313D01*
X53760821Y-67741313D01*
G37*
G36*
X63689890Y-67478017D02*
X63808361Y-67527089D01*
X63914992Y-67598338D01*
X64005662Y-67689008D01*
X64076911Y-67795639D01*
X64125983Y-67914110D01*
X64151000Y-68039881D01*
X64151000Y-68168119D01*
X64125983Y-68293890D01*
X64076911Y-68412361D01*
X64005662Y-68518992D01*
X63914992Y-68609662D01*
X63914989Y-68609664D01*
X63914988Y-68609665D01*
X63838820Y-68660559D01*
X63808361Y-68680911D01*
X63689890Y-68729983D01*
X63564119Y-68755000D01*
X63435881Y-68755000D01*
X63310110Y-68729983D01*
X63191639Y-68680911D01*
X63161180Y-68660559D01*
X63085012Y-68609665D01*
X63085011Y-68609664D01*
X63085008Y-68609662D01*
X62994338Y-68518992D01*
X62923089Y-68412361D01*
X62874017Y-68293890D01*
X62849000Y-68168119D01*
X62849000Y-68039881D01*
X62874017Y-67914110D01*
X62923089Y-67795639D01*
X62994338Y-67689008D01*
X63085008Y-67598338D01*
X63191639Y-67527089D01*
X63310110Y-67478017D01*
X63435881Y-67453000D01*
X63564119Y-67453000D01*
X63689890Y-67478017D01*
X63689890Y-67478017D01*
G37*
G36*
X59638565Y-63941389D02*
X59829834Y-64020615D01*
X60001976Y-64135637D01*
X60148363Y-64282024D01*
X60263385Y-64454166D01*
X60342611Y-64645435D01*
X60383000Y-64848484D01*
X60383000Y-65055516D01*
X60342611Y-65258565D01*
X60263385Y-65449834D01*
X60148363Y-65621976D01*
X60001976Y-65768363D01*
X59829834Y-65883385D01*
X59638565Y-65962611D01*
X59435516Y-66003000D01*
X59228484Y-66003000D01*
X59025435Y-65962611D01*
X58834166Y-65883385D01*
X58662024Y-65768363D01*
X58515637Y-65621976D01*
X58400615Y-65449834D01*
X58321389Y-65258565D01*
X58281000Y-65055516D01*
X58281000Y-64848484D01*
X58321389Y-64645435D01*
X58400615Y-64454166D01*
X58515637Y-64282024D01*
X58662024Y-64135637D01*
X58834166Y-64020615D01*
X59025435Y-63941389D01*
X59228484Y-63901000D01*
X59435516Y-63901000D01*
X59638565Y-63941389D01*
X59638565Y-63941389D01*
G37*
G36*
X53138565Y-63941389D02*
X53329834Y-64020615D01*
X53501976Y-64135637D01*
X53648363Y-64282024D01*
X53763385Y-64454166D01*
X53842611Y-64645435D01*
X53883000Y-64848484D01*
X53883000Y-65055516D01*
X53842611Y-65258565D01*
X53763385Y-65449834D01*
X53648363Y-65621976D01*
X53501976Y-65768363D01*
X53329834Y-65883385D01*
X53138565Y-65962611D01*
X52935516Y-66003000D01*
X52728484Y-66003000D01*
X52525435Y-65962611D01*
X52334166Y-65883385D01*
X52162024Y-65768363D01*
X52015637Y-65621976D01*
X51900615Y-65449834D01*
X51821389Y-65258565D01*
X51781000Y-65055516D01*
X51781000Y-64848484D01*
X51821389Y-64645435D01*
X51900615Y-64454166D01*
X52015637Y-64282024D01*
X52162024Y-64135637D01*
X52334166Y-64020615D01*
X52525435Y-63941389D01*
X52728484Y-63901000D01*
X52935516Y-63901000D01*
X53138565Y-63941389D01*
X53138565Y-63941389D01*
G37*
G36*
X44393142Y-64376242D02*
X44541102Y-64437530D01*
X44674258Y-64526502D01*
X44787498Y-64639742D01*
X44876470Y-64772898D01*
X44937758Y-64920858D01*
X44969000Y-65077925D01*
X44969000Y-65238075D01*
X44937758Y-65395142D01*
X44876470Y-65543102D01*
X44787498Y-65676258D01*
X44674258Y-65789498D01*
X44541102Y-65878470D01*
X44541101Y-65878471D01*
X44541100Y-65878471D01*
X44507583Y-65892354D01*
X44393142Y-65939758D01*
X44236075Y-65971000D01*
X44075925Y-65971000D01*
X43918858Y-65939758D01*
X43804417Y-65892354D01*
X43770900Y-65878471D01*
X43770899Y-65878471D01*
X43770898Y-65878470D01*
X43637742Y-65789498D01*
X43524502Y-65676258D01*
X43435530Y-65543102D01*
X43374242Y-65395142D01*
X43343000Y-65238075D01*
X43343000Y-65077925D01*
X43374242Y-64920858D01*
X43435530Y-64772898D01*
X43524502Y-64639742D01*
X43637742Y-64526502D01*
X43770898Y-64437530D01*
X43918858Y-64376242D01*
X44075925Y-64345000D01*
X44236075Y-64345000D01*
X44393142Y-64376242D01*
X44393142Y-64376242D01*
G37*
G36*
X41893142Y-64376242D02*
X42041102Y-64437530D01*
X42174258Y-64526502D01*
X42287498Y-64639742D01*
X42376470Y-64772898D01*
X42437758Y-64920858D01*
X42469000Y-65077925D01*
X42469000Y-65238075D01*
X42437758Y-65395142D01*
X42376470Y-65543102D01*
X42287498Y-65676258D01*
X42174258Y-65789498D01*
X42041102Y-65878470D01*
X42041101Y-65878471D01*
X42041100Y-65878471D01*
X42007583Y-65892354D01*
X41893142Y-65939758D01*
X41736075Y-65971000D01*
X41575925Y-65971000D01*
X41418858Y-65939758D01*
X41304417Y-65892354D01*
X41270900Y-65878471D01*
X41270899Y-65878471D01*
X41270898Y-65878470D01*
X41137742Y-65789498D01*
X41024502Y-65676258D01*
X40935530Y-65543102D01*
X40874242Y-65395142D01*
X40843000Y-65238075D01*
X40843000Y-65077925D01*
X40874242Y-64920858D01*
X40935530Y-64772898D01*
X41024502Y-64639742D01*
X41137742Y-64526502D01*
X41270898Y-64437530D01*
X41418858Y-64376242D01*
X41575925Y-64345000D01*
X41736075Y-64345000D01*
X41893142Y-64376242D01*
X41893142Y-64376242D01*
G37*
G36*
X39393142Y-64376242D02*
X39541102Y-64437530D01*
X39674258Y-64526502D01*
X39787498Y-64639742D01*
X39876470Y-64772898D01*
X39937758Y-64920858D01*
X39969000Y-65077925D01*
X39969000Y-65238075D01*
X39937758Y-65395142D01*
X39876470Y-65543102D01*
X39787498Y-65676258D01*
X39674258Y-65789498D01*
X39541102Y-65878470D01*
X39541101Y-65878471D01*
X39541100Y-65878471D01*
X39507583Y-65892354D01*
X39393142Y-65939758D01*
X39236075Y-65971000D01*
X39075925Y-65971000D01*
X38918858Y-65939758D01*
X38804417Y-65892354D01*
X38770900Y-65878471D01*
X38770899Y-65878471D01*
X38770898Y-65878470D01*
X38637742Y-65789498D01*
X38524502Y-65676258D01*
X38435530Y-65543102D01*
X38374242Y-65395142D01*
X38343000Y-65238075D01*
X38343000Y-65077925D01*
X38374242Y-64920858D01*
X38435530Y-64772898D01*
X38524502Y-64639742D01*
X38637742Y-64526502D01*
X38770898Y-64437530D01*
X38918858Y-64376242D01*
X39075925Y-64345000D01*
X39236075Y-64345000D01*
X39393142Y-64376242D01*
X39393142Y-64376242D01*
G37*
G36*
X59638565Y-59441389D02*
X59829834Y-59520615D01*
X60001976Y-59635637D01*
X60148363Y-59782024D01*
X60263385Y-59954166D01*
X60342611Y-60145435D01*
X60383000Y-60348484D01*
X60383000Y-60555516D01*
X60342611Y-60758565D01*
X60263385Y-60949834D01*
X60148363Y-61121976D01*
X60001976Y-61268363D01*
X59829834Y-61383385D01*
X59638565Y-61462611D01*
X59435516Y-61503000D01*
X59228484Y-61503000D01*
X59025435Y-61462611D01*
X58834166Y-61383385D01*
X58662024Y-61268363D01*
X58515637Y-61121976D01*
X58400615Y-60949834D01*
X58321389Y-60758565D01*
X58281000Y-60555516D01*
X58281000Y-60348484D01*
X58321389Y-60145435D01*
X58400615Y-59954166D01*
X58515637Y-59782024D01*
X58662024Y-59635637D01*
X58834166Y-59520615D01*
X59025435Y-59441389D01*
X59228484Y-59401000D01*
X59435516Y-59401000D01*
X59638565Y-59441389D01*
X59638565Y-59441389D01*
G37*
G36*
X53138565Y-59441389D02*
X53329834Y-59520615D01*
X53501976Y-59635637D01*
X53648363Y-59782024D01*
X53763385Y-59954166D01*
X53842611Y-60145435D01*
X53883000Y-60348484D01*
X53883000Y-60555516D01*
X53842611Y-60758565D01*
X53763385Y-60949834D01*
X53648363Y-61121976D01*
X53501976Y-61268363D01*
X53329834Y-61383385D01*
X53138565Y-61462611D01*
X52935516Y-61503000D01*
X52728484Y-61503000D01*
X52525435Y-61462611D01*
X52334166Y-61383385D01*
X52162024Y-61268363D01*
X52015637Y-61121976D01*
X51900615Y-60949834D01*
X51821389Y-60758565D01*
X51781000Y-60555516D01*
X51781000Y-60348484D01*
X51821389Y-60145435D01*
X51900615Y-59954166D01*
X52015637Y-59782024D01*
X52162024Y-59635637D01*
X52334166Y-59520615D01*
X52525435Y-59441389D01*
X52728484Y-59401000D01*
X52935516Y-59401000D01*
X53138565Y-59441389D01*
X53138565Y-59441389D01*
G37*
G36*
X36438985Y-56395457D02*
X36438987Y-56395458D01*
X36438988Y-56395458D01*
X36677939Y-56494435D01*
X36892992Y-56638128D01*
X37075872Y-56821008D01*
X37219565Y-57036061D01*
X37318543Y-57275015D01*
X37369000Y-57528679D01*
X37369000Y-57787321D01*
X37318543Y-58040985D01*
X37219565Y-58279939D01*
X37075872Y-58494992D01*
X36892992Y-58677872D01*
X36892989Y-58677874D01*
X36677939Y-58821565D01*
X36438988Y-58920542D01*
X36438987Y-58920542D01*
X36438985Y-58920543D01*
X36185321Y-58971000D01*
X35926679Y-58971000D01*
X35673015Y-58920543D01*
X35673013Y-58920542D01*
X35673012Y-58920542D01*
X35434061Y-58821565D01*
X35219011Y-58677874D01*
X35219008Y-58677872D01*
X35036128Y-58494992D01*
X34892435Y-58279939D01*
X34793457Y-58040985D01*
X34743000Y-57787321D01*
X34743000Y-57528679D01*
X34793457Y-57275015D01*
X34892435Y-57036061D01*
X35036128Y-56821008D01*
X35219008Y-56638128D01*
X35434061Y-56494435D01*
X35673012Y-56395458D01*
X35673013Y-56395458D01*
X35673015Y-56395457D01*
X35926679Y-56345000D01*
X36185321Y-56345000D01*
X36438985Y-56395457D01*
X36438985Y-56395457D01*
G37*
G36*
X47638985Y-56395457D02*
X47638987Y-56395458D01*
X47638988Y-56395458D01*
X47877939Y-56494435D01*
X48092992Y-56638128D01*
X48275872Y-56821008D01*
X48419565Y-57036061D01*
X48518543Y-57275015D01*
X48569000Y-57528679D01*
X48569000Y-57787321D01*
X48518543Y-58040985D01*
X48419565Y-58279939D01*
X48275872Y-58494992D01*
X48092992Y-58677872D01*
X48092989Y-58677874D01*
X47877939Y-58821565D01*
X47638988Y-58920542D01*
X47638987Y-58920542D01*
X47638985Y-58920543D01*
X47385321Y-58971000D01*
X47126679Y-58971000D01*
X46873015Y-58920543D01*
X46873013Y-58920542D01*
X46873012Y-58920542D01*
X46634061Y-58821565D01*
X46419011Y-58677874D01*
X46419008Y-58677872D01*
X46236128Y-58494992D01*
X46092435Y-58279939D01*
X45993457Y-58040985D01*
X45943000Y-57787321D01*
X45943000Y-57528679D01*
X45993457Y-57275015D01*
X46092435Y-57036061D01*
X46236128Y-56821008D01*
X46419008Y-56638128D01*
X46634061Y-56494435D01*
X46873012Y-56395458D01*
X46873013Y-56395458D01*
X46873015Y-56395457D01*
X47126679Y-56345000D01*
X47385321Y-56345000D01*
X47638985Y-56395457D01*
X47638985Y-56395457D01*
G37*
G36*
X59638565Y-54289389D02*
X59829834Y-54368615D01*
X60001976Y-54483637D01*
X60148363Y-54630024D01*
X60263385Y-54802166D01*
X60342611Y-54993435D01*
X60383000Y-55196484D01*
X60383000Y-55403516D01*
X60342611Y-55606565D01*
X60263385Y-55797834D01*
X60148363Y-55969976D01*
X60001976Y-56116363D01*
X59829834Y-56231385D01*
X59638565Y-56310611D01*
X59435516Y-56351000D01*
X59228484Y-56351000D01*
X59025435Y-56310611D01*
X58834166Y-56231385D01*
X58662024Y-56116363D01*
X58515637Y-55969976D01*
X58400615Y-55797834D01*
X58321389Y-55606565D01*
X58281000Y-55403516D01*
X58281000Y-55196484D01*
X58321389Y-54993435D01*
X58400615Y-54802166D01*
X58515637Y-54630024D01*
X58662024Y-54483637D01*
X58834166Y-54368615D01*
X59025435Y-54289389D01*
X59228484Y-54249000D01*
X59435516Y-54249000D01*
X59638565Y-54289389D01*
X59638565Y-54289389D01*
G37*
G36*
X53138565Y-54289389D02*
X53329834Y-54368615D01*
X53501976Y-54483637D01*
X53648363Y-54630024D01*
X53763385Y-54802166D01*
X53842611Y-54993435D01*
X53883000Y-55196484D01*
X53883000Y-55403516D01*
X53842611Y-55606565D01*
X53763385Y-55797834D01*
X53648363Y-55969976D01*
X53501976Y-56116363D01*
X53329834Y-56231385D01*
X53138565Y-56310611D01*
X52935516Y-56351000D01*
X52728484Y-56351000D01*
X52525435Y-56310611D01*
X52334166Y-56231385D01*
X52162024Y-56116363D01*
X52015637Y-55969976D01*
X51900615Y-55797834D01*
X51821389Y-55606565D01*
X51781000Y-55403516D01*
X51781000Y-55196484D01*
X51821389Y-54993435D01*
X51900615Y-54802166D01*
X52015637Y-54630024D01*
X52162024Y-54483637D01*
X52334166Y-54368615D01*
X52525435Y-54289389D01*
X52728484Y-54249000D01*
X52935516Y-54249000D01*
X53138565Y-54289389D01*
X53138565Y-54289389D01*
G37*
G36*
X59638565Y-49789389D02*
X59829834Y-49868615D01*
X60001976Y-49983637D01*
X60148363Y-50130024D01*
X60263385Y-50302166D01*
X60342611Y-50493435D01*
X60383000Y-50696484D01*
X60383000Y-50903516D01*
X60342611Y-51106565D01*
X60263385Y-51297834D01*
X60148363Y-51469976D01*
X60001976Y-51616363D01*
X59829834Y-51731385D01*
X59638565Y-51810611D01*
X59435516Y-51851000D01*
X59228484Y-51851000D01*
X59025435Y-51810611D01*
X58834166Y-51731385D01*
X58662024Y-51616363D01*
X58515637Y-51469976D01*
X58400615Y-51297834D01*
X58321389Y-51106565D01*
X58281000Y-50903516D01*
X58281000Y-50696484D01*
X58321389Y-50493435D01*
X58400615Y-50302166D01*
X58515637Y-50130024D01*
X58662024Y-49983637D01*
X58834166Y-49868615D01*
X59025435Y-49789389D01*
X59228484Y-49749000D01*
X59435516Y-49749000D01*
X59638565Y-49789389D01*
X59638565Y-49789389D01*
G37*
G36*
X53138565Y-49789389D02*
X53329834Y-49868615D01*
X53501976Y-49983637D01*
X53648363Y-50130024D01*
X53763385Y-50302166D01*
X53842611Y-50493435D01*
X53883000Y-50696484D01*
X53883000Y-50903516D01*
X53842611Y-51106565D01*
X53763385Y-51297834D01*
X53648363Y-51469976D01*
X53501976Y-51616363D01*
X53329834Y-51731385D01*
X53138565Y-51810611D01*
X52935516Y-51851000D01*
X52728484Y-51851000D01*
X52525435Y-51810611D01*
X52334166Y-51731385D01*
X52162024Y-51616363D01*
X52015637Y-51469976D01*
X51900615Y-51297834D01*
X51821389Y-51106565D01*
X51781000Y-50903516D01*
X51781000Y-50696484D01*
X51821389Y-50493435D01*
X51900615Y-50302166D01*
X52015637Y-50130024D01*
X52162024Y-49983637D01*
X52334166Y-49868615D01*
X52525435Y-49789389D01*
X52728484Y-49749000D01*
X52935516Y-49749000D01*
X53138565Y-49789389D01*
X53138565Y-49789389D01*
G37*
G36*
X40893142Y-49876242D02*
X41041102Y-49937530D01*
X41174258Y-50026502D01*
X41287498Y-50139742D01*
X41376470Y-50272898D01*
X41437758Y-50420858D01*
X41469000Y-50577925D01*
X41469000Y-50738075D01*
X41437758Y-50895142D01*
X41434290Y-50903514D01*
X41376471Y-51043100D01*
X41287499Y-51176257D01*
X41174257Y-51289499D01*
X41161781Y-51297835D01*
X41041102Y-51378470D01*
X40893142Y-51439758D01*
X40736075Y-51471000D01*
X40575925Y-51471000D01*
X40418858Y-51439758D01*
X40270898Y-51378470D01*
X40150219Y-51297835D01*
X40137743Y-51289499D01*
X40024501Y-51176257D01*
X39935529Y-51043100D01*
X39877710Y-50903514D01*
X39874242Y-50895142D01*
X39843000Y-50738075D01*
X39843000Y-50577925D01*
X39874242Y-50420858D01*
X39935530Y-50272898D01*
X40024502Y-50139742D01*
X40137742Y-50026502D01*
X40270898Y-49937530D01*
X40418858Y-49876242D01*
X40575925Y-49845000D01*
X40736075Y-49845000D01*
X40893142Y-49876242D01*
X40893142Y-49876242D01*
G37*
G36*
X44893142Y-49876242D02*
X45041102Y-49937530D01*
X45174258Y-50026502D01*
X45287498Y-50139742D01*
X45376470Y-50272898D01*
X45437758Y-50420858D01*
X45469000Y-50577925D01*
X45469000Y-50738075D01*
X45437758Y-50895142D01*
X45434290Y-50903514D01*
X45376471Y-51043100D01*
X45287499Y-51176257D01*
X45174257Y-51289499D01*
X45161781Y-51297835D01*
X45041102Y-51378470D01*
X44893142Y-51439758D01*
X44736075Y-51471000D01*
X44575925Y-51471000D01*
X44418858Y-51439758D01*
X44270898Y-51378470D01*
X44150219Y-51297835D01*
X44137743Y-51289499D01*
X44024501Y-51176257D01*
X43935529Y-51043100D01*
X43877710Y-50903514D01*
X43874242Y-50895142D01*
X43843000Y-50738075D01*
X43843000Y-50577925D01*
X43874242Y-50420858D01*
X43935530Y-50272898D01*
X44024502Y-50139742D01*
X44137742Y-50026502D01*
X44270898Y-49937530D01*
X44418858Y-49876242D01*
X44575925Y-49845000D01*
X44736075Y-49845000D01*
X44893142Y-49876242D01*
X44893142Y-49876242D01*
G37*
G36*
X38893142Y-49876242D02*
X39041102Y-49937530D01*
X39174258Y-50026502D01*
X39287498Y-50139742D01*
X39376470Y-50272898D01*
X39437758Y-50420858D01*
X39469000Y-50577925D01*
X39469000Y-50738075D01*
X39437758Y-50895142D01*
X39434290Y-50903514D01*
X39376471Y-51043100D01*
X39287499Y-51176257D01*
X39174257Y-51289499D01*
X39161781Y-51297835D01*
X39041102Y-51378470D01*
X38893142Y-51439758D01*
X38736075Y-51471000D01*
X38575925Y-51471000D01*
X38418858Y-51439758D01*
X38270898Y-51378470D01*
X38150219Y-51297835D01*
X38137743Y-51289499D01*
X38024501Y-51176257D01*
X37935529Y-51043100D01*
X37877710Y-50903514D01*
X37874242Y-50895142D01*
X37843000Y-50738075D01*
X37843000Y-50577925D01*
X37874242Y-50420858D01*
X37935530Y-50272898D01*
X38024502Y-50139742D01*
X38137742Y-50026502D01*
X38270898Y-49937530D01*
X38418858Y-49876242D01*
X38575925Y-49845000D01*
X38736075Y-49845000D01*
X38893142Y-49876242D01*
X38893142Y-49876242D01*
G37*
G36*
X42893142Y-49876242D02*
X43041102Y-49937530D01*
X43174258Y-50026502D01*
X43287498Y-50139742D01*
X43376470Y-50272898D01*
X43437758Y-50420858D01*
X43469000Y-50577925D01*
X43469000Y-50738075D01*
X43437758Y-50895142D01*
X43434290Y-50903514D01*
X43376471Y-51043100D01*
X43287499Y-51176257D01*
X43174257Y-51289499D01*
X43161781Y-51297835D01*
X43041102Y-51378470D01*
X42893142Y-51439758D01*
X42736075Y-51471000D01*
X42575925Y-51471000D01*
X42418858Y-51439758D01*
X42270898Y-51378470D01*
X42150219Y-51297835D01*
X42137743Y-51289499D01*
X42024501Y-51176257D01*
X41935529Y-51043100D01*
X41877710Y-50903514D01*
X41874242Y-50895142D01*
X41843000Y-50738075D01*
X41843000Y-50577925D01*
X41874242Y-50420858D01*
X41935530Y-50272898D01*
X42024502Y-50139742D01*
X42137742Y-50026502D01*
X42270898Y-49937530D01*
X42418858Y-49876242D01*
X42575925Y-49845000D01*
X42736075Y-49845000D01*
X42893142Y-49876242D01*
X42893142Y-49876242D01*
G37*
G36*
X41142228Y-43885703D02*
X41297100Y-43949853D01*
X41436481Y-44042985D01*
X41555015Y-44161519D01*
X41648147Y-44300900D01*
X41712297Y-44455772D01*
X41745000Y-44620184D01*
X41745000Y-44787816D01*
X41712297Y-44952228D01*
X41648147Y-45107100D01*
X41555015Y-45246481D01*
X41436481Y-45365015D01*
X41297100Y-45458147D01*
X41142228Y-45522297D01*
X40977816Y-45555000D01*
X40810184Y-45555000D01*
X40645772Y-45522297D01*
X40490900Y-45458147D01*
X40351519Y-45365015D01*
X40232985Y-45246481D01*
X40139853Y-45107100D01*
X40075703Y-44952228D01*
X40043000Y-44787816D01*
X40043000Y-44620184D01*
X40075703Y-44455772D01*
X40139853Y-44300900D01*
X40232985Y-44161519D01*
X40351519Y-44042985D01*
X40490900Y-43949853D01*
X40645772Y-43885703D01*
X40810184Y-43853000D01*
X40977816Y-43853000D01*
X41142228Y-43885703D01*
X41142228Y-43885703D01*
G37*
G36*
X33522228Y-43885703D02*
X33677100Y-43949853D01*
X33816481Y-44042985D01*
X33935015Y-44161519D01*
X34028147Y-44300900D01*
X34092297Y-44455772D01*
X34125000Y-44620184D01*
X34125000Y-44787816D01*
X34092297Y-44952228D01*
X34028147Y-45107100D01*
X33935015Y-45246481D01*
X33816481Y-45365015D01*
X33677100Y-45458147D01*
X33522228Y-45522297D01*
X33357816Y-45555000D01*
X33190184Y-45555000D01*
X33025772Y-45522297D01*
X32870900Y-45458147D01*
X32731519Y-45365015D01*
X32612985Y-45246481D01*
X32519853Y-45107100D01*
X32455703Y-44952228D01*
X32423000Y-44787816D01*
X32423000Y-44620184D01*
X32455703Y-44455772D01*
X32519853Y-44300900D01*
X32612985Y-44161519D01*
X32731519Y-44042985D01*
X32870900Y-43949853D01*
X33025772Y-43885703D01*
X33190184Y-43853000D01*
X33357816Y-43853000D01*
X33522228Y-43885703D01*
X33522228Y-43885703D01*
G37*
G36*
X36062228Y-43885703D02*
X36217100Y-43949853D01*
X36356481Y-44042985D01*
X36475015Y-44161519D01*
X36568147Y-44300900D01*
X36632297Y-44455772D01*
X36665000Y-44620184D01*
X36665000Y-44787816D01*
X36632297Y-44952228D01*
X36568147Y-45107100D01*
X36475015Y-45246481D01*
X36356481Y-45365015D01*
X36217100Y-45458147D01*
X36062228Y-45522297D01*
X35897816Y-45555000D01*
X35730184Y-45555000D01*
X35565772Y-45522297D01*
X35410900Y-45458147D01*
X35271519Y-45365015D01*
X35152985Y-45246481D01*
X35059853Y-45107100D01*
X34995703Y-44952228D01*
X34963000Y-44787816D01*
X34963000Y-44620184D01*
X34995703Y-44455772D01*
X35059853Y-44300900D01*
X35152985Y-44161519D01*
X35271519Y-44042985D01*
X35410900Y-43949853D01*
X35565772Y-43885703D01*
X35730184Y-43853000D01*
X35897816Y-43853000D01*
X36062228Y-43885703D01*
X36062228Y-43885703D01*
G37*
G36*
X38602228Y-43885703D02*
X38757100Y-43949853D01*
X38896481Y-44042985D01*
X39015015Y-44161519D01*
X39108147Y-44300900D01*
X39172297Y-44455772D01*
X39205000Y-44620184D01*
X39205000Y-44787816D01*
X39172297Y-44952228D01*
X39108147Y-45107100D01*
X39015015Y-45246481D01*
X38896481Y-45365015D01*
X38757100Y-45458147D01*
X38602228Y-45522297D01*
X38437816Y-45555000D01*
X38270184Y-45555000D01*
X38105772Y-45522297D01*
X37950900Y-45458147D01*
X37811519Y-45365015D01*
X37692985Y-45246481D01*
X37599853Y-45107100D01*
X37535703Y-44952228D01*
X37503000Y-44787816D01*
X37503000Y-44620184D01*
X37535703Y-44455772D01*
X37599853Y-44300900D01*
X37692985Y-44161519D01*
X37811519Y-44042985D01*
X37950900Y-43949853D01*
X38105772Y-43885703D01*
X38270184Y-43853000D01*
X38437816Y-43853000D01*
X38602228Y-43885703D01*
X38602228Y-43885703D01*
G37*
G36*
X43682228Y-43885703D02*
X43837100Y-43949853D01*
X43976481Y-44042985D01*
X44095015Y-44161519D01*
X44188147Y-44300900D01*
X44252297Y-44455772D01*
X44285000Y-44620184D01*
X44285000Y-44787816D01*
X44252297Y-44952228D01*
X44188147Y-45107100D01*
X44095015Y-45246481D01*
X43976481Y-45365015D01*
X43837100Y-45458147D01*
X43682228Y-45522297D01*
X43517816Y-45555000D01*
X43350184Y-45555000D01*
X43185772Y-45522297D01*
X43030900Y-45458147D01*
X42891519Y-45365015D01*
X42772985Y-45246481D01*
X42679853Y-45107100D01*
X42615703Y-44952228D01*
X42583000Y-44787816D01*
X42583000Y-44620184D01*
X42615703Y-44455772D01*
X42679853Y-44300900D01*
X42772985Y-44161519D01*
X42891519Y-44042985D01*
X43030900Y-43949853D01*
X43185772Y-43885703D01*
X43350184Y-43853000D01*
X43517816Y-43853000D01*
X43682228Y-43885703D01*
X43682228Y-43885703D01*
G37*
G36*
X46222228Y-43885703D02*
X46377100Y-43949853D01*
X46516481Y-44042985D01*
X46635015Y-44161519D01*
X46728147Y-44300900D01*
X46792297Y-44455772D01*
X46825000Y-44620184D01*
X46825000Y-44787816D01*
X46792297Y-44952228D01*
X46728147Y-45107100D01*
X46635015Y-45246481D01*
X46516481Y-45365015D01*
X46377100Y-45458147D01*
X46222228Y-45522297D01*
X46057816Y-45555000D01*
X45890184Y-45555000D01*
X45725772Y-45522297D01*
X45570900Y-45458147D01*
X45431519Y-45365015D01*
X45312985Y-45246481D01*
X45219853Y-45107100D01*
X45155703Y-44952228D01*
X45123000Y-44787816D01*
X45123000Y-44620184D01*
X45155703Y-44455772D01*
X45219853Y-44300900D01*
X45312985Y-44161519D01*
X45431519Y-44042985D01*
X45570900Y-43949853D01*
X45725772Y-43885703D01*
X45890184Y-43853000D01*
X46057816Y-43853000D01*
X46222228Y-43885703D01*
X46222228Y-43885703D01*
G37*
G36*
X48762228Y-43885703D02*
X48917100Y-43949853D01*
X49056481Y-44042985D01*
X49175015Y-44161519D01*
X49268147Y-44300900D01*
X49332297Y-44455772D01*
X49365000Y-44620184D01*
X49365000Y-44787816D01*
X49332297Y-44952228D01*
X49268147Y-45107100D01*
X49175015Y-45246481D01*
X49056481Y-45365015D01*
X48917100Y-45458147D01*
X48762228Y-45522297D01*
X48597816Y-45555000D01*
X48430184Y-45555000D01*
X48265772Y-45522297D01*
X48110900Y-45458147D01*
X47971519Y-45365015D01*
X47852985Y-45246481D01*
X47759853Y-45107100D01*
X47695703Y-44952228D01*
X47663000Y-44787816D01*
X47663000Y-44620184D01*
X47695703Y-44455772D01*
X47759853Y-44300900D01*
X47852985Y-44161519D01*
X47971519Y-44042985D01*
X48110900Y-43949853D01*
X48265772Y-43885703D01*
X48430184Y-43853000D01*
X48597816Y-43853000D01*
X48762228Y-43885703D01*
X48762228Y-43885703D01*
G37*
G36*
X51302228Y-43885703D02*
X51457100Y-43949853D01*
X51596481Y-44042985D01*
X51715015Y-44161519D01*
X51808147Y-44300900D01*
X51872297Y-44455772D01*
X51905000Y-44620184D01*
X51905000Y-44787816D01*
X51872297Y-44952228D01*
X51808147Y-45107100D01*
X51715015Y-45246481D01*
X51596481Y-45365015D01*
X51457100Y-45458147D01*
X51302228Y-45522297D01*
X51137816Y-45555000D01*
X50970184Y-45555000D01*
X50805772Y-45522297D01*
X50650900Y-45458147D01*
X50511519Y-45365015D01*
X50392985Y-45246481D01*
X50299853Y-45107100D01*
X50235703Y-44952228D01*
X50203000Y-44787816D01*
X50203000Y-44620184D01*
X50235703Y-44455772D01*
X50299853Y-44300900D01*
X50392985Y-44161519D01*
X50511519Y-44042985D01*
X50650900Y-43949853D01*
X50805772Y-43885703D01*
X50970184Y-43853000D01*
X51137816Y-43853000D01*
X51302228Y-43885703D01*
X51302228Y-43885703D01*
G37*
G36*
X66542228Y-43885703D02*
X66697100Y-43949853D01*
X66836481Y-44042985D01*
X66955015Y-44161519D01*
X67048147Y-44300900D01*
X67112297Y-44455772D01*
X67145000Y-44620184D01*
X67145000Y-44787816D01*
X67112297Y-44952228D01*
X67048147Y-45107100D01*
X66955015Y-45246481D01*
X66836481Y-45365015D01*
X66697100Y-45458147D01*
X66542228Y-45522297D01*
X66377816Y-45555000D01*
X66210184Y-45555000D01*
X66045772Y-45522297D01*
X65890900Y-45458147D01*
X65751519Y-45365015D01*
X65632985Y-45246481D01*
X65539853Y-45107100D01*
X65475703Y-44952228D01*
X65443000Y-44787816D01*
X65443000Y-44620184D01*
X65475703Y-44455772D01*
X65539853Y-44300900D01*
X65632985Y-44161519D01*
X65751519Y-44042985D01*
X65890900Y-43949853D01*
X66045772Y-43885703D01*
X66210184Y-43853000D01*
X66377816Y-43853000D01*
X66542228Y-43885703D01*
X66542228Y-43885703D01*
G37*
G36*
X64002228Y-43885703D02*
X64157100Y-43949853D01*
X64296481Y-44042985D01*
X64415015Y-44161519D01*
X64508147Y-44300900D01*
X64572297Y-44455772D01*
X64605000Y-44620184D01*
X64605000Y-44787816D01*
X64572297Y-44952228D01*
X64508147Y-45107100D01*
X64415015Y-45246481D01*
X64296481Y-45365015D01*
X64157100Y-45458147D01*
X64002228Y-45522297D01*
X63837816Y-45555000D01*
X63670184Y-45555000D01*
X63505772Y-45522297D01*
X63350900Y-45458147D01*
X63211519Y-45365015D01*
X63092985Y-45246481D01*
X62999853Y-45107100D01*
X62935703Y-44952228D01*
X62903000Y-44787816D01*
X62903000Y-44620184D01*
X62935703Y-44455772D01*
X62999853Y-44300900D01*
X63092985Y-44161519D01*
X63211519Y-44042985D01*
X63350900Y-43949853D01*
X63505772Y-43885703D01*
X63670184Y-43853000D01*
X63837816Y-43853000D01*
X64002228Y-43885703D01*
X64002228Y-43885703D01*
G37*
G36*
X61462228Y-43885703D02*
X61617100Y-43949853D01*
X61756481Y-44042985D01*
X61875015Y-44161519D01*
X61968147Y-44300900D01*
X62032297Y-44455772D01*
X62065000Y-44620184D01*
X62065000Y-44787816D01*
X62032297Y-44952228D01*
X61968147Y-45107100D01*
X61875015Y-45246481D01*
X61756481Y-45365015D01*
X61617100Y-45458147D01*
X61462228Y-45522297D01*
X61297816Y-45555000D01*
X61130184Y-45555000D01*
X60965772Y-45522297D01*
X60810900Y-45458147D01*
X60671519Y-45365015D01*
X60552985Y-45246481D01*
X60459853Y-45107100D01*
X60395703Y-44952228D01*
X60363000Y-44787816D01*
X60363000Y-44620184D01*
X60395703Y-44455772D01*
X60459853Y-44300900D01*
X60552985Y-44161519D01*
X60671519Y-44042985D01*
X60810900Y-43949853D01*
X60965772Y-43885703D01*
X61130184Y-43853000D01*
X61297816Y-43853000D01*
X61462228Y-43885703D01*
X61462228Y-43885703D01*
G37*
G36*
X58922228Y-43885703D02*
X59077100Y-43949853D01*
X59216481Y-44042985D01*
X59335015Y-44161519D01*
X59428147Y-44300900D01*
X59492297Y-44455772D01*
X59525000Y-44620184D01*
X59525000Y-44787816D01*
X59492297Y-44952228D01*
X59428147Y-45107100D01*
X59335015Y-45246481D01*
X59216481Y-45365015D01*
X59077100Y-45458147D01*
X58922228Y-45522297D01*
X58757816Y-45555000D01*
X58590184Y-45555000D01*
X58425772Y-45522297D01*
X58270900Y-45458147D01*
X58131519Y-45365015D01*
X58012985Y-45246481D01*
X57919853Y-45107100D01*
X57855703Y-44952228D01*
X57823000Y-44787816D01*
X57823000Y-44620184D01*
X57855703Y-44455772D01*
X57919853Y-44300900D01*
X58012985Y-44161519D01*
X58131519Y-44042985D01*
X58270900Y-43949853D01*
X58425772Y-43885703D01*
X58590184Y-43853000D01*
X58757816Y-43853000D01*
X58922228Y-43885703D01*
X58922228Y-43885703D01*
G37*
G36*
X56382228Y-43885703D02*
X56537100Y-43949853D01*
X56676481Y-44042985D01*
X56795015Y-44161519D01*
X56888147Y-44300900D01*
X56952297Y-44455772D01*
X56985000Y-44620184D01*
X56985000Y-44787816D01*
X56952297Y-44952228D01*
X56888147Y-45107100D01*
X56795015Y-45246481D01*
X56676481Y-45365015D01*
X56537100Y-45458147D01*
X56382228Y-45522297D01*
X56217816Y-45555000D01*
X56050184Y-45555000D01*
X55885772Y-45522297D01*
X55730900Y-45458147D01*
X55591519Y-45365015D01*
X55472985Y-45246481D01*
X55379853Y-45107100D01*
X55315703Y-44952228D01*
X55283000Y-44787816D01*
X55283000Y-44620184D01*
X55315703Y-44455772D01*
X55379853Y-44300900D01*
X55472985Y-44161519D01*
X55591519Y-44042985D01*
X55730900Y-43949853D01*
X55885772Y-43885703D01*
X56050184Y-43853000D01*
X56217816Y-43853000D01*
X56382228Y-43885703D01*
X56382228Y-43885703D01*
G37*
G36*
X53842228Y-43885703D02*
X53997100Y-43949853D01*
X54136481Y-44042985D01*
X54255015Y-44161519D01*
X54348147Y-44300900D01*
X54412297Y-44455772D01*
X54445000Y-44620184D01*
X54445000Y-44787816D01*
X54412297Y-44952228D01*
X54348147Y-45107100D01*
X54255015Y-45246481D01*
X54136481Y-45365015D01*
X53997100Y-45458147D01*
X53842228Y-45522297D01*
X53677816Y-45555000D01*
X53510184Y-45555000D01*
X53345772Y-45522297D01*
X53190900Y-45458147D01*
X53051519Y-45365015D01*
X52932985Y-45246481D01*
X52839853Y-45107100D01*
X52775703Y-44952228D01*
X52743000Y-44787816D01*
X52743000Y-44620184D01*
X52775703Y-44455772D01*
X52839853Y-44300900D01*
X52932985Y-44161519D01*
X53051519Y-44042985D01*
X53190900Y-43949853D01*
X53345772Y-43885703D01*
X53510184Y-43853000D01*
X53677816Y-43853000D01*
X53842228Y-43885703D01*
X53842228Y-43885703D01*
G37*
G36*
X33522228Y-41345703D02*
X33677100Y-41409853D01*
X33816481Y-41502985D01*
X33935015Y-41621519D01*
X34028147Y-41760900D01*
X34092297Y-41915772D01*
X34125000Y-42080184D01*
X34125000Y-42247816D01*
X34092297Y-42412228D01*
X34028147Y-42567100D01*
X33935015Y-42706481D01*
X33816481Y-42825015D01*
X33677100Y-42918147D01*
X33522228Y-42982297D01*
X33357816Y-43015000D01*
X33190184Y-43015000D01*
X33025772Y-42982297D01*
X32870900Y-42918147D01*
X32731519Y-42825015D01*
X32612985Y-42706481D01*
X32519853Y-42567100D01*
X32455703Y-42412228D01*
X32423000Y-42247816D01*
X32423000Y-42080184D01*
X32455703Y-41915772D01*
X32519853Y-41760900D01*
X32612985Y-41621519D01*
X32731519Y-41502985D01*
X32870900Y-41409853D01*
X33025772Y-41345703D01*
X33190184Y-41313000D01*
X33357816Y-41313000D01*
X33522228Y-41345703D01*
X33522228Y-41345703D01*
G37*
G36*
X64002228Y-41345703D02*
X64157100Y-41409853D01*
X64296481Y-41502985D01*
X64415015Y-41621519D01*
X64508147Y-41760900D01*
X64572297Y-41915772D01*
X64605000Y-42080184D01*
X64605000Y-42247816D01*
X64572297Y-42412228D01*
X64508147Y-42567100D01*
X64415015Y-42706481D01*
X64296481Y-42825015D01*
X64157100Y-42918147D01*
X64002228Y-42982297D01*
X63837816Y-43015000D01*
X63670184Y-43015000D01*
X63505772Y-42982297D01*
X63350900Y-42918147D01*
X63211519Y-42825015D01*
X63092985Y-42706481D01*
X62999853Y-42567100D01*
X62935703Y-42412228D01*
X62903000Y-42247816D01*
X62903000Y-42080184D01*
X62935703Y-41915772D01*
X62999853Y-41760900D01*
X63092985Y-41621519D01*
X63211519Y-41502985D01*
X63350900Y-41409853D01*
X63505772Y-41345703D01*
X63670184Y-41313000D01*
X63837816Y-41313000D01*
X64002228Y-41345703D01*
X64002228Y-41345703D01*
G37*
G36*
X58922228Y-41345703D02*
X59077100Y-41409853D01*
X59216481Y-41502985D01*
X59335015Y-41621519D01*
X59428147Y-41760900D01*
X59492297Y-41915772D01*
X59525000Y-42080184D01*
X59525000Y-42247816D01*
X59492297Y-42412228D01*
X59428147Y-42567100D01*
X59335015Y-42706481D01*
X59216481Y-42825015D01*
X59077100Y-42918147D01*
X58922228Y-42982297D01*
X58757816Y-43015000D01*
X58590184Y-43015000D01*
X58425772Y-42982297D01*
X58270900Y-42918147D01*
X58131519Y-42825015D01*
X58012985Y-42706481D01*
X57919853Y-42567100D01*
X57855703Y-42412228D01*
X57823000Y-42247816D01*
X57823000Y-42080184D01*
X57855703Y-41915772D01*
X57919853Y-41760900D01*
X58012985Y-41621519D01*
X58131519Y-41502985D01*
X58270900Y-41409853D01*
X58425772Y-41345703D01*
X58590184Y-41313000D01*
X58757816Y-41313000D01*
X58922228Y-41345703D01*
X58922228Y-41345703D01*
G37*
G36*
X56382228Y-41345703D02*
X56537100Y-41409853D01*
X56676481Y-41502985D01*
X56795015Y-41621519D01*
X56888147Y-41760900D01*
X56952297Y-41915772D01*
X56985000Y-42080184D01*
X56985000Y-42247816D01*
X56952297Y-42412228D01*
X56888147Y-42567100D01*
X56795015Y-42706481D01*
X56676481Y-42825015D01*
X56537100Y-42918147D01*
X56382228Y-42982297D01*
X56217816Y-43015000D01*
X56050184Y-43015000D01*
X55885772Y-42982297D01*
X55730900Y-42918147D01*
X55591519Y-42825015D01*
X55472985Y-42706481D01*
X55379853Y-42567100D01*
X55315703Y-42412228D01*
X55283000Y-42247816D01*
X55283000Y-42080184D01*
X55315703Y-41915772D01*
X55379853Y-41760900D01*
X55472985Y-41621519D01*
X55591519Y-41502985D01*
X55730900Y-41409853D01*
X55885772Y-41345703D01*
X56050184Y-41313000D01*
X56217816Y-41313000D01*
X56382228Y-41345703D01*
X56382228Y-41345703D01*
G37*
G36*
X53842228Y-41345703D02*
X53997100Y-41409853D01*
X54136481Y-41502985D01*
X54255015Y-41621519D01*
X54348147Y-41760900D01*
X54412297Y-41915772D01*
X54445000Y-42080184D01*
X54445000Y-42247816D01*
X54412297Y-42412228D01*
X54348147Y-42567100D01*
X54255015Y-42706481D01*
X54136481Y-42825015D01*
X53997100Y-42918147D01*
X53842228Y-42982297D01*
X53677816Y-43015000D01*
X53510184Y-43015000D01*
X53345772Y-42982297D01*
X53190900Y-42918147D01*
X53051519Y-42825015D01*
X52932985Y-42706481D01*
X52839853Y-42567100D01*
X52775703Y-42412228D01*
X52743000Y-42247816D01*
X52743000Y-42080184D01*
X52775703Y-41915772D01*
X52839853Y-41760900D01*
X52932985Y-41621519D01*
X53051519Y-41502985D01*
X53190900Y-41409853D01*
X53345772Y-41345703D01*
X53510184Y-41313000D01*
X53677816Y-41313000D01*
X53842228Y-41345703D01*
X53842228Y-41345703D01*
G37*
G36*
X33522228Y-38805703D02*
X33677100Y-38869853D01*
X33816481Y-38962985D01*
X33935015Y-39081519D01*
X34028147Y-39220900D01*
X34092297Y-39375772D01*
X34125000Y-39540184D01*
X34125000Y-39707816D01*
X34092297Y-39872228D01*
X34028147Y-40027100D01*
X33935015Y-40166481D01*
X33816481Y-40285015D01*
X33677100Y-40378147D01*
X33522228Y-40442297D01*
X33357816Y-40475000D01*
X33190184Y-40475000D01*
X33025772Y-40442297D01*
X32870900Y-40378147D01*
X32731519Y-40285015D01*
X32612985Y-40166481D01*
X32519853Y-40027100D01*
X32455703Y-39872228D01*
X32423000Y-39707816D01*
X32423000Y-39540184D01*
X32455703Y-39375772D01*
X32519853Y-39220900D01*
X32612985Y-39081519D01*
X32731519Y-38962985D01*
X32870900Y-38869853D01*
X33025772Y-38805703D01*
X33190184Y-38773000D01*
X33357816Y-38773000D01*
X33522228Y-38805703D01*
X33522228Y-38805703D01*
G37*
G36*
X51302228Y-38805703D02*
X51457100Y-38869853D01*
X51596481Y-38962985D01*
X51715015Y-39081519D01*
X51808147Y-39220900D01*
X51872297Y-39375772D01*
X51905000Y-39540184D01*
X51905000Y-39707816D01*
X51872297Y-39872228D01*
X51808147Y-40027100D01*
X51715015Y-40166481D01*
X51596481Y-40285015D01*
X51457100Y-40378147D01*
X51302228Y-40442297D01*
X51137816Y-40475000D01*
X50970184Y-40475000D01*
X50805772Y-40442297D01*
X50650900Y-40378147D01*
X50511519Y-40285015D01*
X50392985Y-40166481D01*
X50299853Y-40027100D01*
X50235703Y-39872228D01*
X50203000Y-39707816D01*
X50203000Y-39540184D01*
X50235703Y-39375772D01*
X50299853Y-39220900D01*
X50392985Y-39081519D01*
X50511519Y-38962985D01*
X50650900Y-38869853D01*
X50805772Y-38805703D01*
X50970184Y-38773000D01*
X51137816Y-38773000D01*
X51302228Y-38805703D01*
X51302228Y-38805703D01*
G37*
G36*
X48762228Y-38805703D02*
X48917100Y-38869853D01*
X49056481Y-38962985D01*
X49175015Y-39081519D01*
X49268147Y-39220900D01*
X49332297Y-39375772D01*
X49365000Y-39540184D01*
X49365000Y-39707816D01*
X49332297Y-39872228D01*
X49268147Y-40027100D01*
X49175015Y-40166481D01*
X49056481Y-40285015D01*
X48917100Y-40378147D01*
X48762228Y-40442297D01*
X48597816Y-40475000D01*
X48430184Y-40475000D01*
X48265772Y-40442297D01*
X48110900Y-40378147D01*
X47971519Y-40285015D01*
X47852985Y-40166481D01*
X47759853Y-40027100D01*
X47695703Y-39872228D01*
X47663000Y-39707816D01*
X47663000Y-39540184D01*
X47695703Y-39375772D01*
X47759853Y-39220900D01*
X47852985Y-39081519D01*
X47971519Y-38962985D01*
X48110900Y-38869853D01*
X48265772Y-38805703D01*
X48430184Y-38773000D01*
X48597816Y-38773000D01*
X48762228Y-38805703D01*
X48762228Y-38805703D01*
G37*
G36*
X36062228Y-38805703D02*
X36217100Y-38869853D01*
X36356481Y-38962985D01*
X36475015Y-39081519D01*
X36568147Y-39220900D01*
X36632297Y-39375772D01*
X36665000Y-39540184D01*
X36665000Y-39707816D01*
X36632297Y-39872228D01*
X36568147Y-40027100D01*
X36475015Y-40166481D01*
X36356481Y-40285015D01*
X36217100Y-40378147D01*
X36062228Y-40442297D01*
X35897816Y-40475000D01*
X35730184Y-40475000D01*
X35565772Y-40442297D01*
X35410900Y-40378147D01*
X35271519Y-40285015D01*
X35152985Y-40166481D01*
X35059853Y-40027100D01*
X34995703Y-39872228D01*
X34963000Y-39707816D01*
X34963000Y-39540184D01*
X34995703Y-39375772D01*
X35059853Y-39220900D01*
X35152985Y-39081519D01*
X35271519Y-38962985D01*
X35410900Y-38869853D01*
X35565772Y-38805703D01*
X35730184Y-38773000D01*
X35897816Y-38773000D01*
X36062228Y-38805703D01*
X36062228Y-38805703D01*
G37*
G36*
X46222228Y-38805703D02*
X46377100Y-38869853D01*
X46516481Y-38962985D01*
X46635015Y-39081519D01*
X46728147Y-39220900D01*
X46792297Y-39375772D01*
X46825000Y-39540184D01*
X46825000Y-39707816D01*
X46792297Y-39872228D01*
X46728147Y-40027100D01*
X46635015Y-40166481D01*
X46516481Y-40285015D01*
X46377100Y-40378147D01*
X46222228Y-40442297D01*
X46057816Y-40475000D01*
X45890184Y-40475000D01*
X45725772Y-40442297D01*
X45570900Y-40378147D01*
X45431519Y-40285015D01*
X45312985Y-40166481D01*
X45219853Y-40027100D01*
X45155703Y-39872228D01*
X45123000Y-39707816D01*
X45123000Y-39540184D01*
X45155703Y-39375772D01*
X45219853Y-39220900D01*
X45312985Y-39081519D01*
X45431519Y-38962985D01*
X45570900Y-38869853D01*
X45725772Y-38805703D01*
X45890184Y-38773000D01*
X46057816Y-38773000D01*
X46222228Y-38805703D01*
X46222228Y-38805703D01*
G37*
G36*
X41142228Y-38805703D02*
X41297100Y-38869853D01*
X41436481Y-38962985D01*
X41555015Y-39081519D01*
X41648147Y-39220900D01*
X41712297Y-39375772D01*
X41745000Y-39540184D01*
X41745000Y-39707816D01*
X41712297Y-39872228D01*
X41648147Y-40027100D01*
X41555015Y-40166481D01*
X41436481Y-40285015D01*
X41297100Y-40378147D01*
X41142228Y-40442297D01*
X40977816Y-40475000D01*
X40810184Y-40475000D01*
X40645772Y-40442297D01*
X40490900Y-40378147D01*
X40351519Y-40285015D01*
X40232985Y-40166481D01*
X40139853Y-40027100D01*
X40075703Y-39872228D01*
X40043000Y-39707816D01*
X40043000Y-39540184D01*
X40075703Y-39375772D01*
X40139853Y-39220900D01*
X40232985Y-39081519D01*
X40351519Y-38962985D01*
X40490900Y-38869853D01*
X40645772Y-38805703D01*
X40810184Y-38773000D01*
X40977816Y-38773000D01*
X41142228Y-38805703D01*
X41142228Y-38805703D01*
G37*
G36*
X43682228Y-38805703D02*
X43837100Y-38869853D01*
X43976481Y-38962985D01*
X44095015Y-39081519D01*
X44188147Y-39220900D01*
X44252297Y-39375772D01*
X44285000Y-39540184D01*
X44285000Y-39707816D01*
X44252297Y-39872228D01*
X44188147Y-40027100D01*
X44095015Y-40166481D01*
X43976481Y-40285015D01*
X43837100Y-40378147D01*
X43682228Y-40442297D01*
X43517816Y-40475000D01*
X43350184Y-40475000D01*
X43185772Y-40442297D01*
X43030900Y-40378147D01*
X42891519Y-40285015D01*
X42772985Y-40166481D01*
X42679853Y-40027100D01*
X42615703Y-39872228D01*
X42583000Y-39707816D01*
X42583000Y-39540184D01*
X42615703Y-39375772D01*
X42679853Y-39220900D01*
X42772985Y-39081519D01*
X42891519Y-38962985D01*
X43030900Y-38869853D01*
X43185772Y-38805703D01*
X43350184Y-38773000D01*
X43517816Y-38773000D01*
X43682228Y-38805703D01*
X43682228Y-38805703D01*
G37*
G36*
X38602228Y-38805703D02*
X38757100Y-38869853D01*
X38896481Y-38962985D01*
X39015015Y-39081519D01*
X39108147Y-39220900D01*
X39172297Y-39375772D01*
X39205000Y-39540184D01*
X39205000Y-39707816D01*
X39172297Y-39872228D01*
X39108147Y-40027100D01*
X39015015Y-40166481D01*
X38896481Y-40285015D01*
X38757100Y-40378147D01*
X38602228Y-40442297D01*
X38437816Y-40475000D01*
X38270184Y-40475000D01*
X38105772Y-40442297D01*
X37950900Y-40378147D01*
X37811519Y-40285015D01*
X37692985Y-40166481D01*
X37599853Y-40027100D01*
X37535703Y-39872228D01*
X37503000Y-39707816D01*
X37503000Y-39540184D01*
X37535703Y-39375772D01*
X37599853Y-39220900D01*
X37692985Y-39081519D01*
X37811519Y-38962985D01*
X37950900Y-38869853D01*
X38105772Y-38805703D01*
X38270184Y-38773000D01*
X38437816Y-38773000D01*
X38602228Y-38805703D01*
X38602228Y-38805703D01*
G37*
G36*
X56425981Y-36121468D02*
X56608150Y-36196925D01*
X56772103Y-36306475D01*
X56911525Y-36445897D01*
X57021075Y-36609850D01*
X57096532Y-36792019D01*
X57135000Y-36985410D01*
X57135000Y-37182590D01*
X57096532Y-37375981D01*
X57021075Y-37558150D01*
X56911525Y-37722103D01*
X56772103Y-37861525D01*
X56608150Y-37971075D01*
X56425981Y-38046532D01*
X56232590Y-38085000D01*
X56035410Y-38085000D01*
X55842019Y-38046532D01*
X55659850Y-37971075D01*
X55495897Y-37861525D01*
X55356475Y-37722103D01*
X55246925Y-37558150D01*
X55171468Y-37375981D01*
X55133000Y-37182590D01*
X55133000Y-36985410D01*
X55171468Y-36792019D01*
X55246925Y-36609850D01*
X55356475Y-36445897D01*
X55495897Y-36306475D01*
X55659850Y-36196925D01*
X55842019Y-36121468D01*
X56035410Y-36083000D01*
X56232590Y-36083000D01*
X56425981Y-36121468D01*
X56425981Y-36121468D01*
G37*
G36*
X60235981Y-36121468D02*
X60418150Y-36196925D01*
X60582103Y-36306475D01*
X60721525Y-36445897D01*
X60831075Y-36609850D01*
X60906532Y-36792019D01*
X60945000Y-36985410D01*
X60945000Y-37182590D01*
X60906532Y-37375981D01*
X60831075Y-37558150D01*
X60721525Y-37722103D01*
X60582103Y-37861525D01*
X60418150Y-37971075D01*
X60235981Y-38046532D01*
X60042590Y-38085000D01*
X59845410Y-38085000D01*
X59652019Y-38046532D01*
X59469850Y-37971075D01*
X59305897Y-37861525D01*
X59166475Y-37722103D01*
X59056925Y-37558150D01*
X58981468Y-37375981D01*
X58943000Y-37182590D01*
X58943000Y-36985410D01*
X58981468Y-36792019D01*
X59056925Y-36609850D01*
X59166475Y-36445897D01*
X59305897Y-36306475D01*
X59469850Y-36196925D01*
X59652019Y-36121468D01*
X59845410Y-36083000D01*
X60042590Y-36083000D01*
X60235981Y-36121468D01*
X60235981Y-36121468D01*
G37*
G36*
X46222228Y-36265703D02*
X46377100Y-36329853D01*
X46516481Y-36422985D01*
X46635015Y-36541519D01*
X46728147Y-36680900D01*
X46792297Y-36835772D01*
X46825000Y-37000184D01*
X46825000Y-37167816D01*
X46792297Y-37332228D01*
X46728147Y-37487100D01*
X46635015Y-37626481D01*
X46516481Y-37745015D01*
X46377100Y-37838147D01*
X46222228Y-37902297D01*
X46057816Y-37935000D01*
X45890184Y-37935000D01*
X45725772Y-37902297D01*
X45570900Y-37838147D01*
X45431519Y-37745015D01*
X45312985Y-37626481D01*
X45219853Y-37487100D01*
X45155703Y-37332228D01*
X45123000Y-37167816D01*
X45123000Y-37000184D01*
X45155703Y-36835772D01*
X45219853Y-36680900D01*
X45312985Y-36541519D01*
X45431519Y-36422985D01*
X45570900Y-36329853D01*
X45725772Y-36265703D01*
X45890184Y-36233000D01*
X46057816Y-36233000D01*
X46222228Y-36265703D01*
X46222228Y-36265703D01*
G37*
G36*
X51302228Y-36265703D02*
X51457100Y-36329853D01*
X51596481Y-36422985D01*
X51715015Y-36541519D01*
X51808147Y-36680900D01*
X51872297Y-36835772D01*
X51905000Y-37000184D01*
X51905000Y-37167816D01*
X51872297Y-37332228D01*
X51808147Y-37487100D01*
X51715015Y-37626481D01*
X51596481Y-37745015D01*
X51457100Y-37838147D01*
X51302228Y-37902297D01*
X51137816Y-37935000D01*
X50970184Y-37935000D01*
X50805772Y-37902297D01*
X50650900Y-37838147D01*
X50511519Y-37745015D01*
X50392985Y-37626481D01*
X50299853Y-37487100D01*
X50235703Y-37332228D01*
X50203000Y-37167816D01*
X50203000Y-37000184D01*
X50235703Y-36835772D01*
X50299853Y-36680900D01*
X50392985Y-36541519D01*
X50511519Y-36422985D01*
X50650900Y-36329853D01*
X50805772Y-36265703D01*
X50970184Y-36233000D01*
X51137816Y-36233000D01*
X51302228Y-36265703D01*
X51302228Y-36265703D01*
G37*
G36*
X48762228Y-36265703D02*
X48917100Y-36329853D01*
X49056481Y-36422985D01*
X49175015Y-36541519D01*
X49268147Y-36680900D01*
X49332297Y-36835772D01*
X49365000Y-37000184D01*
X49365000Y-37167816D01*
X49332297Y-37332228D01*
X49268147Y-37487100D01*
X49175015Y-37626481D01*
X49056481Y-37745015D01*
X48917100Y-37838147D01*
X48762228Y-37902297D01*
X48597816Y-37935000D01*
X48430184Y-37935000D01*
X48265772Y-37902297D01*
X48110900Y-37838147D01*
X47971519Y-37745015D01*
X47852985Y-37626481D01*
X47759853Y-37487100D01*
X47695703Y-37332228D01*
X47663000Y-37167816D01*
X47663000Y-37000184D01*
X47695703Y-36835772D01*
X47759853Y-36680900D01*
X47852985Y-36541519D01*
X47971519Y-36422985D01*
X48110900Y-36329853D01*
X48265772Y-36265703D01*
X48430184Y-36233000D01*
X48597816Y-36233000D01*
X48762228Y-36265703D01*
X48762228Y-36265703D01*
G37*
G36*
X43682228Y-36265703D02*
X43837100Y-36329853D01*
X43976481Y-36422985D01*
X44095015Y-36541519D01*
X44188147Y-36680900D01*
X44252297Y-36835772D01*
X44285000Y-37000184D01*
X44285000Y-37167816D01*
X44252297Y-37332228D01*
X44188147Y-37487100D01*
X44095015Y-37626481D01*
X43976481Y-37745015D01*
X43837100Y-37838147D01*
X43682228Y-37902297D01*
X43517816Y-37935000D01*
X43350184Y-37935000D01*
X43185772Y-37902297D01*
X43030900Y-37838147D01*
X42891519Y-37745015D01*
X42772985Y-37626481D01*
X42679853Y-37487100D01*
X42615703Y-37332228D01*
X42583000Y-37167816D01*
X42583000Y-37000184D01*
X42615703Y-36835772D01*
X42679853Y-36680900D01*
X42772985Y-36541519D01*
X42891519Y-36422985D01*
X43030900Y-36329853D01*
X43185772Y-36265703D01*
X43350184Y-36233000D01*
X43517816Y-36233000D01*
X43682228Y-36265703D01*
X43682228Y-36265703D01*
G37*
G36*
X41142228Y-36265703D02*
X41297100Y-36329853D01*
X41436481Y-36422985D01*
X41555015Y-36541519D01*
X41648147Y-36680900D01*
X41712297Y-36835772D01*
X41745000Y-37000184D01*
X41745000Y-37167816D01*
X41712297Y-37332228D01*
X41648147Y-37487100D01*
X41555015Y-37626481D01*
X41436481Y-37745015D01*
X41297100Y-37838147D01*
X41142228Y-37902297D01*
X40977816Y-37935000D01*
X40810184Y-37935000D01*
X40645772Y-37902297D01*
X40490900Y-37838147D01*
X40351519Y-37745015D01*
X40232985Y-37626481D01*
X40139853Y-37487100D01*
X40075703Y-37332228D01*
X40043000Y-37167816D01*
X40043000Y-37000184D01*
X40075703Y-36835772D01*
X40139853Y-36680900D01*
X40232985Y-36541519D01*
X40351519Y-36422985D01*
X40490900Y-36329853D01*
X40645772Y-36265703D01*
X40810184Y-36233000D01*
X40977816Y-36233000D01*
X41142228Y-36265703D01*
X41142228Y-36265703D01*
G37*
G36*
X38602228Y-36265703D02*
X38757100Y-36329853D01*
X38896481Y-36422985D01*
X39015015Y-36541519D01*
X39108147Y-36680900D01*
X39172297Y-36835772D01*
X39205000Y-37000184D01*
X39205000Y-37167816D01*
X39172297Y-37332228D01*
X39108147Y-37487100D01*
X39015015Y-37626481D01*
X38896481Y-37745015D01*
X38757100Y-37838147D01*
X38602228Y-37902297D01*
X38437816Y-37935000D01*
X38270184Y-37935000D01*
X38105772Y-37902297D01*
X37950900Y-37838147D01*
X37811519Y-37745015D01*
X37692985Y-37626481D01*
X37599853Y-37487100D01*
X37535703Y-37332228D01*
X37503000Y-37167816D01*
X37503000Y-37000184D01*
X37535703Y-36835772D01*
X37599853Y-36680900D01*
X37692985Y-36541519D01*
X37811519Y-36422985D01*
X37950900Y-36329853D01*
X38105772Y-36265703D01*
X38270184Y-36233000D01*
X38437816Y-36233000D01*
X38602228Y-36265703D01*
X38602228Y-36265703D01*
G37*
G36*
X36062228Y-36265703D02*
X36217100Y-36329853D01*
X36356481Y-36422985D01*
X36475015Y-36541519D01*
X36568147Y-36680900D01*
X36632297Y-36835772D01*
X36665000Y-37000184D01*
X36665000Y-37167816D01*
X36632297Y-37332228D01*
X36568147Y-37487100D01*
X36475015Y-37626481D01*
X36356481Y-37745015D01*
X36217100Y-37838147D01*
X36062228Y-37902297D01*
X35897816Y-37935000D01*
X35730184Y-37935000D01*
X35565772Y-37902297D01*
X35410900Y-37838147D01*
X35271519Y-37745015D01*
X35152985Y-37626481D01*
X35059853Y-37487100D01*
X34995703Y-37332228D01*
X34963000Y-37167816D01*
X34963000Y-37000184D01*
X34995703Y-36835772D01*
X35059853Y-36680900D01*
X35152985Y-36541519D01*
X35271519Y-36422985D01*
X35410900Y-36329853D01*
X35565772Y-36265703D01*
X35730184Y-36233000D01*
X35897816Y-36233000D01*
X36062228Y-36265703D01*
X36062228Y-36265703D01*
G37*
G36*
X33522228Y-36265703D02*
X33677100Y-36329853D01*
X33816481Y-36422985D01*
X33935015Y-36541519D01*
X34028147Y-36680900D01*
X34092297Y-36835772D01*
X34125000Y-37000184D01*
X34125000Y-37167816D01*
X34092297Y-37332228D01*
X34028147Y-37487100D01*
X33935015Y-37626481D01*
X33816481Y-37745015D01*
X33677100Y-37838147D01*
X33522228Y-37902297D01*
X33357816Y-37935000D01*
X33190184Y-37935000D01*
X33025772Y-37902297D01*
X32870900Y-37838147D01*
X32731519Y-37745015D01*
X32612985Y-37626481D01*
X32519853Y-37487100D01*
X32455703Y-37332228D01*
X32423000Y-37167816D01*
X32423000Y-37000184D01*
X32455703Y-36835772D01*
X32519853Y-36680900D01*
X32612985Y-36541519D01*
X32731519Y-36422985D01*
X32870900Y-36329853D01*
X33025772Y-36265703D01*
X33190184Y-36233000D01*
X33357816Y-36233000D01*
X33522228Y-36265703D01*
X33522228Y-36265703D01*
G37*
G36*
X33522228Y-33725703D02*
X33677100Y-33789853D01*
X33816481Y-33882985D01*
X33935015Y-34001519D01*
X34028147Y-34140900D01*
X34092297Y-34295772D01*
X34125000Y-34460184D01*
X34125000Y-34627816D01*
X34092297Y-34792228D01*
X34028147Y-34947100D01*
X33935015Y-35086481D01*
X33816481Y-35205015D01*
X33677100Y-35298147D01*
X33522228Y-35362297D01*
X33357816Y-35395000D01*
X33190184Y-35395000D01*
X33025772Y-35362297D01*
X32870900Y-35298147D01*
X32731519Y-35205015D01*
X32612985Y-35086481D01*
X32519853Y-34947100D01*
X32455703Y-34792228D01*
X32423000Y-34627816D01*
X32423000Y-34460184D01*
X32455703Y-34295772D01*
X32519853Y-34140900D01*
X32612985Y-34001519D01*
X32731519Y-33882985D01*
X32870900Y-33789853D01*
X33025772Y-33725703D01*
X33190184Y-33693000D01*
X33357816Y-33693000D01*
X33522228Y-33725703D01*
X33522228Y-33725703D01*
G37*
G36*
X33522228Y-31185703D02*
X33677100Y-31249853D01*
X33816481Y-31342985D01*
X33935015Y-31461519D01*
X34028147Y-31600900D01*
X34092297Y-31755772D01*
X34125000Y-31920184D01*
X34125000Y-32087816D01*
X34092297Y-32252228D01*
X34028147Y-32407100D01*
X33935015Y-32546481D01*
X33816481Y-32665015D01*
X33677100Y-32758147D01*
X33522228Y-32822297D01*
X33357816Y-32855000D01*
X33190184Y-32855000D01*
X33025772Y-32822297D01*
X32870900Y-32758147D01*
X32731519Y-32665015D01*
X32612985Y-32546481D01*
X32519853Y-32407100D01*
X32455703Y-32252228D01*
X32423000Y-32087816D01*
X32423000Y-31920184D01*
X32455703Y-31755772D01*
X32519853Y-31600900D01*
X32612985Y-31461519D01*
X32731519Y-31342985D01*
X32870900Y-31249853D01*
X33025772Y-31185703D01*
X33190184Y-31153000D01*
X33357816Y-31153000D01*
X33522228Y-31185703D01*
X33522228Y-31185703D01*
G37*
G36*
X64002228Y-28645703D02*
X64157100Y-28709853D01*
X64296481Y-28802985D01*
X64415015Y-28921519D01*
X64508147Y-29060900D01*
X64572297Y-29215772D01*
X64605000Y-29380184D01*
X64605000Y-29547816D01*
X64572297Y-29712228D01*
X64508147Y-29867100D01*
X64415015Y-30006481D01*
X64296481Y-30125015D01*
X64157100Y-30218147D01*
X64002228Y-30282297D01*
X63837816Y-30315000D01*
X63670184Y-30315000D01*
X63505772Y-30282297D01*
X63350900Y-30218147D01*
X63211519Y-30125015D01*
X63092985Y-30006481D01*
X62999853Y-29867100D01*
X62935703Y-29712228D01*
X62903000Y-29547816D01*
X62903000Y-29380184D01*
X62935703Y-29215772D01*
X62999853Y-29060900D01*
X63092985Y-28921519D01*
X63211519Y-28802985D01*
X63350900Y-28709853D01*
X63505772Y-28645703D01*
X63670184Y-28613000D01*
X63837816Y-28613000D01*
X64002228Y-28645703D01*
X64002228Y-28645703D01*
G37*
G36*
X33522228Y-28645703D02*
X33677100Y-28709853D01*
X33816481Y-28802985D01*
X33935015Y-28921519D01*
X34028147Y-29060900D01*
X34092297Y-29215772D01*
X34125000Y-29380184D01*
X34125000Y-29547816D01*
X34092297Y-29712228D01*
X34028147Y-29867100D01*
X33935015Y-30006481D01*
X33816481Y-30125015D01*
X33677100Y-30218147D01*
X33522228Y-30282297D01*
X33357816Y-30315000D01*
X33190184Y-30315000D01*
X33025772Y-30282297D01*
X32870900Y-30218147D01*
X32731519Y-30125015D01*
X32612985Y-30006481D01*
X32519853Y-29867100D01*
X32455703Y-29712228D01*
X32423000Y-29547816D01*
X32423000Y-29380184D01*
X32455703Y-29215772D01*
X32519853Y-29060900D01*
X32612985Y-28921519D01*
X32731519Y-28802985D01*
X32870900Y-28709853D01*
X33025772Y-28645703D01*
X33190184Y-28613000D01*
X33357816Y-28613000D01*
X33522228Y-28645703D01*
X33522228Y-28645703D01*
G37*
G36*
X56382228Y-28645703D02*
X56537100Y-28709853D01*
X56676481Y-28802985D01*
X56795015Y-28921519D01*
X56888147Y-29060900D01*
X56952297Y-29215772D01*
X56985000Y-29380184D01*
X56985000Y-29547816D01*
X56952297Y-29712228D01*
X56888147Y-29867100D01*
X56795015Y-30006481D01*
X56676481Y-30125015D01*
X56537100Y-30218147D01*
X56382228Y-30282297D01*
X56217816Y-30315000D01*
X56050184Y-30315000D01*
X55885772Y-30282297D01*
X55730900Y-30218147D01*
X55591519Y-30125015D01*
X55472985Y-30006481D01*
X55379853Y-29867100D01*
X55315703Y-29712228D01*
X55283000Y-29547816D01*
X55283000Y-29380184D01*
X55315703Y-29215772D01*
X55379853Y-29060900D01*
X55472985Y-28921519D01*
X55591519Y-28802985D01*
X55730900Y-28709853D01*
X55885772Y-28645703D01*
X56050184Y-28613000D01*
X56217816Y-28613000D01*
X56382228Y-28645703D01*
X56382228Y-28645703D01*
G37*
G36*
X58922228Y-28645703D02*
X59077100Y-28709853D01*
X59216481Y-28802985D01*
X59335015Y-28921519D01*
X59428147Y-29060900D01*
X59492297Y-29215772D01*
X59525000Y-29380184D01*
X59525000Y-29547816D01*
X59492297Y-29712228D01*
X59428147Y-29867100D01*
X59335015Y-30006481D01*
X59216481Y-30125015D01*
X59077100Y-30218147D01*
X58922228Y-30282297D01*
X58757816Y-30315000D01*
X58590184Y-30315000D01*
X58425772Y-30282297D01*
X58270900Y-30218147D01*
X58131519Y-30125015D01*
X58012985Y-30006481D01*
X57919853Y-29867100D01*
X57855703Y-29712228D01*
X57823000Y-29547816D01*
X57823000Y-29380184D01*
X57855703Y-29215772D01*
X57919853Y-29060900D01*
X58012985Y-28921519D01*
X58131519Y-28802985D01*
X58270900Y-28709853D01*
X58425772Y-28645703D01*
X58590184Y-28613000D01*
X58757816Y-28613000D01*
X58922228Y-28645703D01*
X58922228Y-28645703D01*
G37*
G36*
X61462228Y-28645703D02*
X61617100Y-28709853D01*
X61756481Y-28802985D01*
X61875015Y-28921519D01*
X61968147Y-29060900D01*
X62032297Y-29215772D01*
X62065000Y-29380184D01*
X62065000Y-29547816D01*
X62032297Y-29712228D01*
X61968147Y-29867100D01*
X61875015Y-30006481D01*
X61756481Y-30125015D01*
X61617100Y-30218147D01*
X61462228Y-30282297D01*
X61297816Y-30315000D01*
X61130184Y-30315000D01*
X60965772Y-30282297D01*
X60810900Y-30218147D01*
X60671519Y-30125015D01*
X60552985Y-30006481D01*
X60459853Y-29867100D01*
X60395703Y-29712228D01*
X60363000Y-29547816D01*
X60363000Y-29380184D01*
X60395703Y-29215772D01*
X60459853Y-29060900D01*
X60552985Y-28921519D01*
X60671519Y-28802985D01*
X60810900Y-28709853D01*
X60965772Y-28645703D01*
X61130184Y-28613000D01*
X61297816Y-28613000D01*
X61462228Y-28645703D01*
X61462228Y-28645703D01*
G37*
G36*
X67145000Y-30315000D02*
X65443000Y-30315000D01*
X65443000Y-28613000D01*
X67145000Y-28613000D01*
X67145000Y-30315000D01*
X67145000Y-30315000D01*
G37*
G36*
X53842228Y-28645703D02*
X53997100Y-28709853D01*
X54136481Y-28802985D01*
X54255015Y-28921519D01*
X54348147Y-29060900D01*
X54412297Y-29215772D01*
X54445000Y-29380184D01*
X54445000Y-29547816D01*
X54412297Y-29712228D01*
X54348147Y-29867100D01*
X54255015Y-30006481D01*
X54136481Y-30125015D01*
X53997100Y-30218147D01*
X53842228Y-30282297D01*
X53677816Y-30315000D01*
X53510184Y-30315000D01*
X53345772Y-30282297D01*
X53190900Y-30218147D01*
X53051519Y-30125015D01*
X52932985Y-30006481D01*
X52839853Y-29867100D01*
X52775703Y-29712228D01*
X52743000Y-29547816D01*
X52743000Y-29380184D01*
X52775703Y-29215772D01*
X52839853Y-29060900D01*
X52932985Y-28921519D01*
X53051519Y-28802985D01*
X53190900Y-28709853D01*
X53345772Y-28645703D01*
X53510184Y-28613000D01*
X53677816Y-28613000D01*
X53842228Y-28645703D01*
X53842228Y-28645703D01*
G37*
G36*
X36062228Y-28645703D02*
X36217100Y-28709853D01*
X36356481Y-28802985D01*
X36475015Y-28921519D01*
X36568147Y-29060900D01*
X36632297Y-29215772D01*
X36665000Y-29380184D01*
X36665000Y-29547816D01*
X36632297Y-29712228D01*
X36568147Y-29867100D01*
X36475015Y-30006481D01*
X36356481Y-30125015D01*
X36217100Y-30218147D01*
X36062228Y-30282297D01*
X35897816Y-30315000D01*
X35730184Y-30315000D01*
X35565772Y-30282297D01*
X35410900Y-30218147D01*
X35271519Y-30125015D01*
X35152985Y-30006481D01*
X35059853Y-29867100D01*
X34995703Y-29712228D01*
X34963000Y-29547816D01*
X34963000Y-29380184D01*
X34995703Y-29215772D01*
X35059853Y-29060900D01*
X35152985Y-28921519D01*
X35271519Y-28802985D01*
X35410900Y-28709853D01*
X35565772Y-28645703D01*
X35730184Y-28613000D01*
X35897816Y-28613000D01*
X36062228Y-28645703D01*
X36062228Y-28645703D01*
G37*
G36*
X43682228Y-28645703D02*
X43837100Y-28709853D01*
X43976481Y-28802985D01*
X44095015Y-28921519D01*
X44188147Y-29060900D01*
X44252297Y-29215772D01*
X44285000Y-29380184D01*
X44285000Y-29547816D01*
X44252297Y-29712228D01*
X44188147Y-29867100D01*
X44095015Y-30006481D01*
X43976481Y-30125015D01*
X43837100Y-30218147D01*
X43682228Y-30282297D01*
X43517816Y-30315000D01*
X43350184Y-30315000D01*
X43185772Y-30282297D01*
X43030900Y-30218147D01*
X42891519Y-30125015D01*
X42772985Y-30006481D01*
X42679853Y-29867100D01*
X42615703Y-29712228D01*
X42583000Y-29547816D01*
X42583000Y-29380184D01*
X42615703Y-29215772D01*
X42679853Y-29060900D01*
X42772985Y-28921519D01*
X42891519Y-28802985D01*
X43030900Y-28709853D01*
X43185772Y-28645703D01*
X43350184Y-28613000D01*
X43517816Y-28613000D01*
X43682228Y-28645703D01*
X43682228Y-28645703D01*
G37*
G36*
X46222228Y-28645703D02*
X46377100Y-28709853D01*
X46516481Y-28802985D01*
X46635015Y-28921519D01*
X46728147Y-29060900D01*
X46792297Y-29215772D01*
X46825000Y-29380184D01*
X46825000Y-29547816D01*
X46792297Y-29712228D01*
X46728147Y-29867100D01*
X46635015Y-30006481D01*
X46516481Y-30125015D01*
X46377100Y-30218147D01*
X46222228Y-30282297D01*
X46057816Y-30315000D01*
X45890184Y-30315000D01*
X45725772Y-30282297D01*
X45570900Y-30218147D01*
X45431519Y-30125015D01*
X45312985Y-30006481D01*
X45219853Y-29867100D01*
X45155703Y-29712228D01*
X45123000Y-29547816D01*
X45123000Y-29380184D01*
X45155703Y-29215772D01*
X45219853Y-29060900D01*
X45312985Y-28921519D01*
X45431519Y-28802985D01*
X45570900Y-28709853D01*
X45725772Y-28645703D01*
X45890184Y-28613000D01*
X46057816Y-28613000D01*
X46222228Y-28645703D01*
X46222228Y-28645703D01*
G37*
G36*
X48762228Y-28645703D02*
X48917100Y-28709853D01*
X49056481Y-28802985D01*
X49175015Y-28921519D01*
X49268147Y-29060900D01*
X49332297Y-29215772D01*
X49365000Y-29380184D01*
X49365000Y-29547816D01*
X49332297Y-29712228D01*
X49268147Y-29867100D01*
X49175015Y-30006481D01*
X49056481Y-30125015D01*
X48917100Y-30218147D01*
X48762228Y-30282297D01*
X48597816Y-30315000D01*
X48430184Y-30315000D01*
X48265772Y-30282297D01*
X48110900Y-30218147D01*
X47971519Y-30125015D01*
X47852985Y-30006481D01*
X47759853Y-29867100D01*
X47695703Y-29712228D01*
X47663000Y-29547816D01*
X47663000Y-29380184D01*
X47695703Y-29215772D01*
X47759853Y-29060900D01*
X47852985Y-28921519D01*
X47971519Y-28802985D01*
X48110900Y-28709853D01*
X48265772Y-28645703D01*
X48430184Y-28613000D01*
X48597816Y-28613000D01*
X48762228Y-28645703D01*
X48762228Y-28645703D01*
G37*
G36*
X51302228Y-28645703D02*
X51457100Y-28709853D01*
X51596481Y-28802985D01*
X51715015Y-28921519D01*
X51808147Y-29060900D01*
X51872297Y-29215772D01*
X51905000Y-29380184D01*
X51905000Y-29547816D01*
X51872297Y-29712228D01*
X51808147Y-29867100D01*
X51715015Y-30006481D01*
X51596481Y-30125015D01*
X51457100Y-30218147D01*
X51302228Y-30282297D01*
X51137816Y-30315000D01*
X50970184Y-30315000D01*
X50805772Y-30282297D01*
X50650900Y-30218147D01*
X50511519Y-30125015D01*
X50392985Y-30006481D01*
X50299853Y-29867100D01*
X50235703Y-29712228D01*
X50203000Y-29547816D01*
X50203000Y-29380184D01*
X50235703Y-29215772D01*
X50299853Y-29060900D01*
X50392985Y-28921519D01*
X50511519Y-28802985D01*
X50650900Y-28709853D01*
X50805772Y-28645703D01*
X50970184Y-28613000D01*
X51137816Y-28613000D01*
X51302228Y-28645703D01*
X51302228Y-28645703D01*
G37*
G36*
X41142228Y-28645703D02*
X41297100Y-28709853D01*
X41436481Y-28802985D01*
X41555015Y-28921519D01*
X41648147Y-29060900D01*
X41712297Y-29215772D01*
X41745000Y-29380184D01*
X41745000Y-29547816D01*
X41712297Y-29712228D01*
X41648147Y-29867100D01*
X41555015Y-30006481D01*
X41436481Y-30125015D01*
X41297100Y-30218147D01*
X41142228Y-30282297D01*
X40977816Y-30315000D01*
X40810184Y-30315000D01*
X40645772Y-30282297D01*
X40490900Y-30218147D01*
X40351519Y-30125015D01*
X40232985Y-30006481D01*
X40139853Y-29867100D01*
X40075703Y-29712228D01*
X40043000Y-29547816D01*
X40043000Y-29380184D01*
X40075703Y-29215772D01*
X40139853Y-29060900D01*
X40232985Y-28921519D01*
X40351519Y-28802985D01*
X40490900Y-28709853D01*
X40645772Y-28645703D01*
X40810184Y-28613000D01*
X40977816Y-28613000D01*
X41142228Y-28645703D01*
X41142228Y-28645703D01*
G37*
G36*
X38602228Y-28645703D02*
X38757100Y-28709853D01*
X38896481Y-28802985D01*
X39015015Y-28921519D01*
X39108147Y-29060900D01*
X39172297Y-29215772D01*
X39205000Y-29380184D01*
X39205000Y-29547816D01*
X39172297Y-29712228D01*
X39108147Y-29867100D01*
X39015015Y-30006481D01*
X38896481Y-30125015D01*
X38757100Y-30218147D01*
X38602228Y-30282297D01*
X38437816Y-30315000D01*
X38270184Y-30315000D01*
X38105772Y-30282297D01*
X37950900Y-30218147D01*
X37811519Y-30125015D01*
X37692985Y-30006481D01*
X37599853Y-29867100D01*
X37535703Y-29712228D01*
X37503000Y-29547816D01*
X37503000Y-29380184D01*
X37535703Y-29215772D01*
X37599853Y-29060900D01*
X37692985Y-28921519D01*
X37811519Y-28802985D01*
X37950900Y-28709853D01*
X38105772Y-28645703D01*
X38270184Y-28613000D01*
X38437816Y-28613000D01*
X38602228Y-28645703D01*
X38602228Y-28645703D01*
G37*
G36*
X68153734Y-21753232D02*
X68363202Y-21839996D01*
X68551723Y-21965962D01*
X68712038Y-22126277D01*
X68838004Y-22314798D01*
X68924768Y-22524266D01*
X68969000Y-22746635D01*
X68969000Y-22973365D01*
X68924768Y-23195734D01*
X68838004Y-23405202D01*
X68712038Y-23593723D01*
X68551723Y-23754038D01*
X68363202Y-23880004D01*
X68153734Y-23966768D01*
X67931365Y-24011000D01*
X67704635Y-24011000D01*
X67482266Y-23966768D01*
X67272798Y-23880004D01*
X67084277Y-23754038D01*
X66923962Y-23593723D01*
X66797996Y-23405202D01*
X66711232Y-23195734D01*
X66667000Y-22973365D01*
X66667000Y-22746635D01*
X66711232Y-22524266D01*
X66797996Y-22314798D01*
X66923962Y-22126277D01*
X67084277Y-21965962D01*
X67272798Y-21839996D01*
X67482266Y-21753232D01*
X67704635Y-21709000D01*
X67931365Y-21709000D01*
X68153734Y-21753232D01*
X68153734Y-21753232D01*
G37*
G36*
X31831734Y-21499232D02*
X32041202Y-21585996D01*
X32229723Y-21711962D01*
X32390038Y-21872277D01*
X32516004Y-22060798D01*
X32602768Y-22270266D01*
X32647000Y-22492635D01*
X32647000Y-22719365D01*
X32602768Y-22941734D01*
X32516004Y-23151202D01*
X32390038Y-23339723D01*
X32229723Y-23500038D01*
X32041202Y-23626004D01*
X31831734Y-23712768D01*
X31609365Y-23757000D01*
X31382635Y-23757000D01*
X31160266Y-23712768D01*
X30950798Y-23626004D01*
X30762277Y-23500038D01*
X30601962Y-23339723D01*
X30475996Y-23151202D01*
X30389232Y-22941734D01*
X30345000Y-22719365D01*
X30345000Y-22492635D01*
X30389232Y-22270266D01*
X30475996Y-22060798D01*
X30601962Y-21872277D01*
X30762277Y-21711962D01*
X30950798Y-21585996D01*
X31160266Y-21499232D01*
X31382635Y-21455000D01*
X31609365Y-21455000D01*
X31831734Y-21499232D01*
X31831734Y-21499232D01*
G37*
G36*
X47862442Y-19679518D02*
X47928627Y-19686037D01*
X48041853Y-19720384D01*
X48098467Y-19737557D01*
X48237087Y-19811652D01*
X48254991Y-19821222D01*
X48290729Y-19850552D01*
X48392186Y-19933814D01*
X48475448Y-20035271D01*
X48504778Y-20071009D01*
X48504779Y-20071011D01*
X48588443Y-20227533D01*
X48588443Y-20227534D01*
X48639963Y-20397373D01*
X48657359Y-20574000D01*
X48639963Y-20750627D01*
X48605616Y-20863853D01*
X48588443Y-20920467D01*
X48514348Y-21059087D01*
X48504778Y-21076991D01*
X48475448Y-21112729D01*
X48392186Y-21214186D01*
X48290729Y-21297448D01*
X48254991Y-21326778D01*
X48254989Y-21326779D01*
X48098467Y-21410443D01*
X48041853Y-21427616D01*
X47928627Y-21461963D01*
X47862443Y-21468481D01*
X47796260Y-21475000D01*
X47707740Y-21475000D01*
X47641557Y-21468481D01*
X47575373Y-21461963D01*
X47462147Y-21427616D01*
X47405533Y-21410443D01*
X47249011Y-21326779D01*
X47249009Y-21326778D01*
X47213271Y-21297448D01*
X47111814Y-21214186D01*
X47028552Y-21112729D01*
X46999222Y-21076991D01*
X46989652Y-21059087D01*
X46915557Y-20920467D01*
X46898384Y-20863853D01*
X46864037Y-20750627D01*
X46846641Y-20574000D01*
X46864037Y-20397373D01*
X46915557Y-20227534D01*
X46915557Y-20227533D01*
X46999221Y-20071011D01*
X46999222Y-20071009D01*
X47028552Y-20035271D01*
X47111814Y-19933814D01*
X47213271Y-19850552D01*
X47249009Y-19821222D01*
X47266913Y-19811652D01*
X47405533Y-19737557D01*
X47462147Y-19720384D01*
X47575373Y-19686037D01*
X47641558Y-19679518D01*
X47707740Y-19673000D01*
X47796260Y-19673000D01*
X47862442Y-19679518D01*
X47862442Y-19679518D01*
G37*
G36*
X41033000Y-21475000D02*
X39231000Y-21475000D01*
X39231000Y-19673000D01*
X41033000Y-19673000D01*
X41033000Y-21475000D01*
X41033000Y-21475000D01*
G37*
G36*
X42782442Y-19679518D02*
X42848627Y-19686037D01*
X42961853Y-19720384D01*
X43018467Y-19737557D01*
X43157087Y-19811652D01*
X43174991Y-19821222D01*
X43210729Y-19850552D01*
X43312186Y-19933814D01*
X43395448Y-20035271D01*
X43424778Y-20071009D01*
X43424779Y-20071011D01*
X43508443Y-20227533D01*
X43508443Y-20227534D01*
X43559963Y-20397373D01*
X43577359Y-20574000D01*
X43559963Y-20750627D01*
X43525616Y-20863853D01*
X43508443Y-20920467D01*
X43434348Y-21059087D01*
X43424778Y-21076991D01*
X43395448Y-21112729D01*
X43312186Y-21214186D01*
X43210729Y-21297448D01*
X43174991Y-21326778D01*
X43174989Y-21326779D01*
X43018467Y-21410443D01*
X42961853Y-21427616D01*
X42848627Y-21461963D01*
X42782443Y-21468481D01*
X42716260Y-21475000D01*
X42627740Y-21475000D01*
X42561557Y-21468481D01*
X42495373Y-21461963D01*
X42382147Y-21427616D01*
X42325533Y-21410443D01*
X42169011Y-21326779D01*
X42169009Y-21326778D01*
X42133271Y-21297448D01*
X42031814Y-21214186D01*
X41948552Y-21112729D01*
X41919222Y-21076991D01*
X41909652Y-21059087D01*
X41835557Y-20920467D01*
X41818384Y-20863853D01*
X41784037Y-20750627D01*
X41766641Y-20574000D01*
X41784037Y-20397373D01*
X41835557Y-20227534D01*
X41835557Y-20227533D01*
X41919221Y-20071011D01*
X41919222Y-20071009D01*
X41948552Y-20035271D01*
X42031814Y-19933814D01*
X42133271Y-19850552D01*
X42169009Y-19821222D01*
X42186913Y-19811652D01*
X42325533Y-19737557D01*
X42382147Y-19720384D01*
X42495373Y-19686037D01*
X42561558Y-19679518D01*
X42627740Y-19673000D01*
X42716260Y-19673000D01*
X42782442Y-19679518D01*
X42782442Y-19679518D01*
G37*
G36*
X45322442Y-19679518D02*
X45388627Y-19686037D01*
X45501853Y-19720384D01*
X45558467Y-19737557D01*
X45697087Y-19811652D01*
X45714991Y-19821222D01*
X45750729Y-19850552D01*
X45852186Y-19933814D01*
X45935448Y-20035271D01*
X45964778Y-20071009D01*
X45964779Y-20071011D01*
X46048443Y-20227533D01*
X46048443Y-20227534D01*
X46099963Y-20397373D01*
X46117359Y-20574000D01*
X46099963Y-20750627D01*
X46065616Y-20863853D01*
X46048443Y-20920467D01*
X45974348Y-21059087D01*
X45964778Y-21076991D01*
X45935448Y-21112729D01*
X45852186Y-21214186D01*
X45750729Y-21297448D01*
X45714991Y-21326778D01*
X45714989Y-21326779D01*
X45558467Y-21410443D01*
X45501853Y-21427616D01*
X45388627Y-21461963D01*
X45322443Y-21468481D01*
X45256260Y-21475000D01*
X45167740Y-21475000D01*
X45101557Y-21468481D01*
X45035373Y-21461963D01*
X44922147Y-21427616D01*
X44865533Y-21410443D01*
X44709011Y-21326779D01*
X44709009Y-21326778D01*
X44673271Y-21297448D01*
X44571814Y-21214186D01*
X44488552Y-21112729D01*
X44459222Y-21076991D01*
X44449652Y-21059087D01*
X44375557Y-20920467D01*
X44358384Y-20863853D01*
X44324037Y-20750627D01*
X44306641Y-20574000D01*
X44324037Y-20397373D01*
X44375557Y-20227534D01*
X44375557Y-20227533D01*
X44459221Y-20071011D01*
X44459222Y-20071009D01*
X44488552Y-20035271D01*
X44571814Y-19933814D01*
X44673271Y-19850552D01*
X44709009Y-19821222D01*
X44726913Y-19811652D01*
X44865533Y-19737557D01*
X44922147Y-19720384D01*
X45035373Y-19686037D01*
X45101558Y-19679518D01*
X45167740Y-19673000D01*
X45256260Y-19673000D01*
X45322442Y-19679518D01*
X45322442Y-19679518D01*
G37*
G36*
X50402442Y-19679518D02*
X50468627Y-19686037D01*
X50581853Y-19720384D01*
X50638467Y-19737557D01*
X50777087Y-19811652D01*
X50794991Y-19821222D01*
X50830729Y-19850552D01*
X50932186Y-19933814D01*
X51015448Y-20035271D01*
X51044778Y-20071009D01*
X51044779Y-20071011D01*
X51128443Y-20227533D01*
X51128443Y-20227534D01*
X51179963Y-20397373D01*
X51197359Y-20574000D01*
X51179963Y-20750627D01*
X51145616Y-20863853D01*
X51128443Y-20920467D01*
X51054348Y-21059087D01*
X51044778Y-21076991D01*
X51015448Y-21112729D01*
X50932186Y-21214186D01*
X50830729Y-21297448D01*
X50794991Y-21326778D01*
X50794989Y-21326779D01*
X50638467Y-21410443D01*
X50581853Y-21427616D01*
X50468627Y-21461963D01*
X50402443Y-21468481D01*
X50336260Y-21475000D01*
X50247740Y-21475000D01*
X50181557Y-21468481D01*
X50115373Y-21461963D01*
X50002147Y-21427616D01*
X49945533Y-21410443D01*
X49789011Y-21326779D01*
X49789009Y-21326778D01*
X49753271Y-21297448D01*
X49651814Y-21214186D01*
X49568552Y-21112729D01*
X49539222Y-21076991D01*
X49529652Y-21059087D01*
X49455557Y-20920467D01*
X49438384Y-20863853D01*
X49404037Y-20750627D01*
X49386641Y-20574000D01*
X49404037Y-20397373D01*
X49455557Y-20227534D01*
X49455557Y-20227533D01*
X49539221Y-20071011D01*
X49539222Y-20071009D01*
X49568552Y-20035271D01*
X49651814Y-19933814D01*
X49753271Y-19850552D01*
X49789009Y-19821222D01*
X49806913Y-19811652D01*
X49945533Y-19737557D01*
X50002147Y-19720384D01*
X50115373Y-19686037D01*
X50181558Y-19679518D01*
X50247740Y-19673000D01*
X50336260Y-19673000D01*
X50402442Y-19679518D01*
X50402442Y-19679518D01*
G37*
G36*
X52942442Y-19679518D02*
X53008627Y-19686037D01*
X53121853Y-19720384D01*
X53178467Y-19737557D01*
X53317087Y-19811652D01*
X53334991Y-19821222D01*
X53370729Y-19850552D01*
X53472186Y-19933814D01*
X53555448Y-20035271D01*
X53584778Y-20071009D01*
X53584779Y-20071011D01*
X53668443Y-20227533D01*
X53668443Y-20227534D01*
X53719963Y-20397373D01*
X53737359Y-20574000D01*
X53719963Y-20750627D01*
X53685616Y-20863853D01*
X53668443Y-20920467D01*
X53594348Y-21059087D01*
X53584778Y-21076991D01*
X53555448Y-21112729D01*
X53472186Y-21214186D01*
X53370729Y-21297448D01*
X53334991Y-21326778D01*
X53334989Y-21326779D01*
X53178467Y-21410443D01*
X53121853Y-21427616D01*
X53008627Y-21461963D01*
X52942442Y-21468482D01*
X52876260Y-21475000D01*
X52787740Y-21475000D01*
X52721557Y-21468481D01*
X52655373Y-21461963D01*
X52542147Y-21427616D01*
X52485533Y-21410443D01*
X52329011Y-21326779D01*
X52329009Y-21326778D01*
X52293271Y-21297448D01*
X52191814Y-21214186D01*
X52108552Y-21112729D01*
X52079222Y-21076991D01*
X52069652Y-21059087D01*
X51995557Y-20920467D01*
X51978384Y-20863853D01*
X51944037Y-20750627D01*
X51926641Y-20574000D01*
X51944037Y-20397373D01*
X51995557Y-20227534D01*
X51995557Y-20227533D01*
X52079221Y-20071011D01*
X52079222Y-20071009D01*
X52108552Y-20035271D01*
X52191814Y-19933814D01*
X52293271Y-19850552D01*
X52329009Y-19821222D01*
X52346913Y-19811652D01*
X52485533Y-19737557D01*
X52542147Y-19720384D01*
X52655373Y-19686037D01*
X52721558Y-19679518D01*
X52787740Y-19673000D01*
X52876260Y-19673000D01*
X52942442Y-19679518D01*
X52942442Y-19679518D01*
G37*
G36*
X55482442Y-19679518D02*
X55548627Y-19686037D01*
X55661853Y-19720384D01*
X55718467Y-19737557D01*
X55857087Y-19811652D01*
X55874991Y-19821222D01*
X55910729Y-19850552D01*
X56012186Y-19933814D01*
X56095448Y-20035271D01*
X56124778Y-20071009D01*
X56124779Y-20071011D01*
X56208443Y-20227533D01*
X56208443Y-20227534D01*
X56259963Y-20397373D01*
X56277359Y-20574000D01*
X56259963Y-20750627D01*
X56225616Y-20863853D01*
X56208443Y-20920467D01*
X56134348Y-21059087D01*
X56124778Y-21076991D01*
X56095448Y-21112729D01*
X56012186Y-21214186D01*
X55910729Y-21297448D01*
X55874991Y-21326778D01*
X55874989Y-21326779D01*
X55718467Y-21410443D01*
X55661853Y-21427616D01*
X55548627Y-21461963D01*
X55482442Y-21468482D01*
X55416260Y-21475000D01*
X55327740Y-21475000D01*
X55261557Y-21468481D01*
X55195373Y-21461963D01*
X55082147Y-21427616D01*
X55025533Y-21410443D01*
X54869011Y-21326779D01*
X54869009Y-21326778D01*
X54833271Y-21297448D01*
X54731814Y-21214186D01*
X54648552Y-21112729D01*
X54619222Y-21076991D01*
X54609652Y-21059087D01*
X54535557Y-20920467D01*
X54518384Y-20863853D01*
X54484037Y-20750627D01*
X54466641Y-20574000D01*
X54484037Y-20397373D01*
X54535557Y-20227534D01*
X54535557Y-20227533D01*
X54619221Y-20071011D01*
X54619222Y-20071009D01*
X54648552Y-20035271D01*
X54731814Y-19933814D01*
X54833271Y-19850552D01*
X54869009Y-19821222D01*
X54886913Y-19811652D01*
X55025533Y-19737557D01*
X55082147Y-19720384D01*
X55195373Y-19686037D01*
X55261558Y-19679518D01*
X55327740Y-19673000D01*
X55416260Y-19673000D01*
X55482442Y-19679518D01*
X55482442Y-19679518D01*
G37*
G36*
X58022442Y-19679518D02*
X58088627Y-19686037D01*
X58201853Y-19720384D01*
X58258467Y-19737557D01*
X58397087Y-19811652D01*
X58414991Y-19821222D01*
X58450729Y-19850552D01*
X58552186Y-19933814D01*
X58635448Y-20035271D01*
X58664778Y-20071009D01*
X58664779Y-20071011D01*
X58748443Y-20227533D01*
X58748443Y-20227534D01*
X58799963Y-20397373D01*
X58817359Y-20574000D01*
X58799963Y-20750627D01*
X58765616Y-20863853D01*
X58748443Y-20920467D01*
X58674348Y-21059087D01*
X58664778Y-21076991D01*
X58635448Y-21112729D01*
X58552186Y-21214186D01*
X58450729Y-21297448D01*
X58414991Y-21326778D01*
X58414989Y-21326779D01*
X58258467Y-21410443D01*
X58201853Y-21427616D01*
X58088627Y-21461963D01*
X58022442Y-21468482D01*
X57956260Y-21475000D01*
X57867740Y-21475000D01*
X57801557Y-21468481D01*
X57735373Y-21461963D01*
X57622147Y-21427616D01*
X57565533Y-21410443D01*
X57409011Y-21326779D01*
X57409009Y-21326778D01*
X57373271Y-21297448D01*
X57271814Y-21214186D01*
X57188552Y-21112729D01*
X57159222Y-21076991D01*
X57149652Y-21059087D01*
X57075557Y-20920467D01*
X57058384Y-20863853D01*
X57024037Y-20750627D01*
X57006641Y-20574000D01*
X57024037Y-20397373D01*
X57075557Y-20227534D01*
X57075557Y-20227533D01*
X57159221Y-20071011D01*
X57159222Y-20071009D01*
X57188552Y-20035271D01*
X57271814Y-19933814D01*
X57373271Y-19850552D01*
X57409009Y-19821222D01*
X57426913Y-19811652D01*
X57565533Y-19737557D01*
X57622147Y-19720384D01*
X57735373Y-19686037D01*
X57801558Y-19679518D01*
X57867740Y-19673000D01*
X57956260Y-19673000D01*
X58022442Y-19679518D01*
X58022442Y-19679518D01*
G37*
G36*
X68661734Y-14387232D02*
X68871202Y-14473996D01*
X69059723Y-14599962D01*
X69220038Y-14760277D01*
X69346004Y-14948798D01*
X69432768Y-15158266D01*
X69477000Y-15380635D01*
X69477000Y-15607365D01*
X69432768Y-15829734D01*
X69346004Y-16039202D01*
X69220038Y-16227723D01*
X69059723Y-16388038D01*
X68871202Y-16514004D01*
X68661734Y-16600768D01*
X68439365Y-16645000D01*
X68212635Y-16645000D01*
X67990266Y-16600768D01*
X67780798Y-16514004D01*
X67592277Y-16388038D01*
X67431962Y-16227723D01*
X67305996Y-16039202D01*
X67219232Y-15829734D01*
X67175000Y-15607365D01*
X67175000Y-15380635D01*
X67219232Y-15158266D01*
X67305996Y-14948798D01*
X67431962Y-14760277D01*
X67592277Y-14599962D01*
X67780798Y-14473996D01*
X67990266Y-14387232D01*
X68212635Y-14343000D01*
X68439365Y-14343000D01*
X68661734Y-14387232D01*
X68661734Y-14387232D01*
G37*
G36*
X31069734Y-14387232D02*
X31279202Y-14473996D01*
X31467723Y-14599962D01*
X31628038Y-14760277D01*
X31754004Y-14948798D01*
X31840768Y-15158266D01*
X31885000Y-15380635D01*
X31885000Y-15607365D01*
X31840768Y-15829734D01*
X31754004Y-16039202D01*
X31628038Y-16227723D01*
X31467723Y-16388038D01*
X31279202Y-16514004D01*
X31069734Y-16600768D01*
X30847365Y-16645000D01*
X30620635Y-16645000D01*
X30398266Y-16600768D01*
X30188798Y-16514004D01*
X30000277Y-16388038D01*
X29839962Y-16227723D01*
X29713996Y-16039202D01*
X29627232Y-15829734D01*
X29583000Y-15607365D01*
X29583000Y-15380635D01*
X29627232Y-15158266D01*
X29713996Y-14948798D01*
X29839962Y-14760277D01*
X30000277Y-14599962D01*
X30188798Y-14473996D01*
X30398266Y-14387232D01*
X30620635Y-14343000D01*
X30847365Y-14343000D01*
X31069734Y-14387232D01*
X31069734Y-14387232D01*
G37*
G36*
X61099000Y-16395000D02*
X59297000Y-16395000D01*
X59297000Y-14593000D01*
X61099000Y-14593000D01*
X61099000Y-16395000D01*
X61099000Y-16395000D01*
G37*
G36*
X55482443Y-14599519D02*
X55548627Y-14606037D01*
X55661853Y-14640384D01*
X55718467Y-14657557D01*
X55857087Y-14731652D01*
X55874991Y-14741222D01*
X55898209Y-14760277D01*
X56012186Y-14853814D01*
X56090135Y-14948797D01*
X56124778Y-14991009D01*
X56124779Y-14991011D01*
X56208443Y-15147533D01*
X56208443Y-15147534D01*
X56259963Y-15317373D01*
X56277359Y-15494000D01*
X56259963Y-15670627D01*
X56225616Y-15783853D01*
X56208443Y-15840467D01*
X56134348Y-15979087D01*
X56124778Y-15996991D01*
X56095448Y-16032729D01*
X56012186Y-16134186D01*
X55910729Y-16217448D01*
X55874991Y-16246778D01*
X55874989Y-16246779D01*
X55718467Y-16330443D01*
X55661853Y-16347616D01*
X55548627Y-16381963D01*
X55486925Y-16388040D01*
X55416260Y-16395000D01*
X55327740Y-16395000D01*
X55257075Y-16388040D01*
X55195373Y-16381963D01*
X55082147Y-16347616D01*
X55025533Y-16330443D01*
X54869011Y-16246779D01*
X54869009Y-16246778D01*
X54833271Y-16217448D01*
X54731814Y-16134186D01*
X54648552Y-16032729D01*
X54619222Y-15996991D01*
X54609652Y-15979087D01*
X54535557Y-15840467D01*
X54518384Y-15783853D01*
X54484037Y-15670627D01*
X54466641Y-15494000D01*
X54484037Y-15317373D01*
X54535557Y-15147534D01*
X54535557Y-15147533D01*
X54619221Y-14991011D01*
X54619222Y-14991009D01*
X54653865Y-14948797D01*
X54731814Y-14853814D01*
X54845791Y-14760277D01*
X54869009Y-14741222D01*
X54886913Y-14731652D01*
X55025533Y-14657557D01*
X55082147Y-14640384D01*
X55195373Y-14606037D01*
X55261557Y-14599519D01*
X55327740Y-14593000D01*
X55416260Y-14593000D01*
X55482443Y-14599519D01*
X55482443Y-14599519D01*
G37*
G36*
X52942443Y-14599519D02*
X53008627Y-14606037D01*
X53121853Y-14640384D01*
X53178467Y-14657557D01*
X53317087Y-14731652D01*
X53334991Y-14741222D01*
X53358209Y-14760277D01*
X53472186Y-14853814D01*
X53550135Y-14948797D01*
X53584778Y-14991009D01*
X53584779Y-14991011D01*
X53668443Y-15147533D01*
X53668443Y-15147534D01*
X53719963Y-15317373D01*
X53737359Y-15494000D01*
X53719963Y-15670627D01*
X53685616Y-15783853D01*
X53668443Y-15840467D01*
X53594348Y-15979087D01*
X53584778Y-15996991D01*
X53555448Y-16032729D01*
X53472186Y-16134186D01*
X53370729Y-16217448D01*
X53334991Y-16246778D01*
X53334989Y-16246779D01*
X53178467Y-16330443D01*
X53121853Y-16347616D01*
X53008627Y-16381963D01*
X52946925Y-16388040D01*
X52876260Y-16395000D01*
X52787740Y-16395000D01*
X52717075Y-16388040D01*
X52655373Y-16381963D01*
X52542147Y-16347616D01*
X52485533Y-16330443D01*
X52329011Y-16246779D01*
X52329009Y-16246778D01*
X52293271Y-16217448D01*
X52191814Y-16134186D01*
X52108552Y-16032729D01*
X52079222Y-15996991D01*
X52069652Y-15979087D01*
X51995557Y-15840467D01*
X51978384Y-15783853D01*
X51944037Y-15670627D01*
X51926641Y-15494000D01*
X51944037Y-15317373D01*
X51995557Y-15147534D01*
X51995557Y-15147533D01*
X52079221Y-14991011D01*
X52079222Y-14991009D01*
X52113865Y-14948797D01*
X52191814Y-14853814D01*
X52305791Y-14760277D01*
X52329009Y-14741222D01*
X52346913Y-14731652D01*
X52485533Y-14657557D01*
X52542147Y-14640384D01*
X52655373Y-14606037D01*
X52721557Y-14599519D01*
X52787740Y-14593000D01*
X52876260Y-14593000D01*
X52942443Y-14599519D01*
X52942443Y-14599519D01*
G37*
G36*
X50402443Y-14599519D02*
X50468627Y-14606037D01*
X50581853Y-14640384D01*
X50638467Y-14657557D01*
X50777087Y-14731652D01*
X50794991Y-14741222D01*
X50818209Y-14760277D01*
X50932186Y-14853814D01*
X51010135Y-14948797D01*
X51044778Y-14991009D01*
X51044779Y-14991011D01*
X51128443Y-15147533D01*
X51128443Y-15147534D01*
X51179963Y-15317373D01*
X51197359Y-15494000D01*
X51179963Y-15670627D01*
X51145616Y-15783853D01*
X51128443Y-15840467D01*
X51054348Y-15979087D01*
X51044778Y-15996991D01*
X51015448Y-16032729D01*
X50932186Y-16134186D01*
X50830729Y-16217448D01*
X50794991Y-16246778D01*
X50794989Y-16246779D01*
X50638467Y-16330443D01*
X50581853Y-16347616D01*
X50468627Y-16381963D01*
X50406925Y-16388040D01*
X50336260Y-16395000D01*
X50247740Y-16395000D01*
X50177075Y-16388040D01*
X50115373Y-16381963D01*
X50002147Y-16347616D01*
X49945533Y-16330443D01*
X49789011Y-16246779D01*
X49789009Y-16246778D01*
X49753271Y-16217448D01*
X49651814Y-16134186D01*
X49568552Y-16032729D01*
X49539222Y-15996991D01*
X49529652Y-15979087D01*
X49455557Y-15840467D01*
X49438384Y-15783853D01*
X49404037Y-15670627D01*
X49386641Y-15494000D01*
X49404037Y-15317373D01*
X49455557Y-15147534D01*
X49455557Y-15147533D01*
X49539221Y-14991011D01*
X49539222Y-14991009D01*
X49573865Y-14948797D01*
X49651814Y-14853814D01*
X49765791Y-14760277D01*
X49789009Y-14741222D01*
X49806913Y-14731652D01*
X49945533Y-14657557D01*
X50002147Y-14640384D01*
X50115373Y-14606037D01*
X50181557Y-14599519D01*
X50247740Y-14593000D01*
X50336260Y-14593000D01*
X50402443Y-14599519D01*
X50402443Y-14599519D01*
G37*
G36*
X47862443Y-14599519D02*
X47928627Y-14606037D01*
X48041853Y-14640384D01*
X48098467Y-14657557D01*
X48237087Y-14731652D01*
X48254991Y-14741222D01*
X48278209Y-14760277D01*
X48392186Y-14853814D01*
X48470135Y-14948797D01*
X48504778Y-14991009D01*
X48504779Y-14991011D01*
X48588443Y-15147533D01*
X48588443Y-15147534D01*
X48639963Y-15317373D01*
X48657359Y-15494000D01*
X48639963Y-15670627D01*
X48605616Y-15783853D01*
X48588443Y-15840467D01*
X48514348Y-15979087D01*
X48504778Y-15996991D01*
X48475448Y-16032729D01*
X48392186Y-16134186D01*
X48290729Y-16217448D01*
X48254991Y-16246778D01*
X48254989Y-16246779D01*
X48098467Y-16330443D01*
X48041853Y-16347616D01*
X47928627Y-16381963D01*
X47866925Y-16388040D01*
X47796260Y-16395000D01*
X47707740Y-16395000D01*
X47637075Y-16388040D01*
X47575373Y-16381963D01*
X47462147Y-16347616D01*
X47405533Y-16330443D01*
X47249011Y-16246779D01*
X47249009Y-16246778D01*
X47213271Y-16217448D01*
X47111814Y-16134186D01*
X47028552Y-16032729D01*
X46999222Y-15996991D01*
X46989652Y-15979087D01*
X46915557Y-15840467D01*
X46898384Y-15783853D01*
X46864037Y-15670627D01*
X46846641Y-15494000D01*
X46864037Y-15317373D01*
X46915557Y-15147534D01*
X46915557Y-15147533D01*
X46999221Y-14991011D01*
X46999222Y-14991009D01*
X47033865Y-14948797D01*
X47111814Y-14853814D01*
X47225791Y-14760277D01*
X47249009Y-14741222D01*
X47266913Y-14731652D01*
X47405533Y-14657557D01*
X47462147Y-14640384D01*
X47575373Y-14606037D01*
X47641557Y-14599519D01*
X47707740Y-14593000D01*
X47796260Y-14593000D01*
X47862443Y-14599519D01*
X47862443Y-14599519D01*
G37*
G36*
X45322443Y-14599519D02*
X45388627Y-14606037D01*
X45501853Y-14640384D01*
X45558467Y-14657557D01*
X45697087Y-14731652D01*
X45714991Y-14741222D01*
X45738209Y-14760277D01*
X45852186Y-14853814D01*
X45930135Y-14948797D01*
X45964778Y-14991009D01*
X45964779Y-14991011D01*
X46048443Y-15147533D01*
X46048443Y-15147534D01*
X46099963Y-15317373D01*
X46117359Y-15494000D01*
X46099963Y-15670627D01*
X46065616Y-15783853D01*
X46048443Y-15840467D01*
X45974348Y-15979087D01*
X45964778Y-15996991D01*
X45935448Y-16032729D01*
X45852186Y-16134186D01*
X45750729Y-16217448D01*
X45714991Y-16246778D01*
X45714989Y-16246779D01*
X45558467Y-16330443D01*
X45501853Y-16347616D01*
X45388627Y-16381963D01*
X45326925Y-16388040D01*
X45256260Y-16395000D01*
X45167740Y-16395000D01*
X45097075Y-16388040D01*
X45035373Y-16381963D01*
X44922147Y-16347616D01*
X44865533Y-16330443D01*
X44709011Y-16246779D01*
X44709009Y-16246778D01*
X44673271Y-16217448D01*
X44571814Y-16134186D01*
X44488552Y-16032729D01*
X44459222Y-15996991D01*
X44449652Y-15979087D01*
X44375557Y-15840467D01*
X44358384Y-15783853D01*
X44324037Y-15670627D01*
X44306641Y-15494000D01*
X44324037Y-15317373D01*
X44375557Y-15147534D01*
X44375557Y-15147533D01*
X44459221Y-14991011D01*
X44459222Y-14991009D01*
X44493865Y-14948797D01*
X44571814Y-14853814D01*
X44685791Y-14760277D01*
X44709009Y-14741222D01*
X44726913Y-14731652D01*
X44865533Y-14657557D01*
X44922147Y-14640384D01*
X45035373Y-14606037D01*
X45101557Y-14599519D01*
X45167740Y-14593000D01*
X45256260Y-14593000D01*
X45322443Y-14599519D01*
X45322443Y-14599519D01*
G37*
G36*
X42782443Y-14599519D02*
X42848627Y-14606037D01*
X42961853Y-14640384D01*
X43018467Y-14657557D01*
X43157087Y-14731652D01*
X43174991Y-14741222D01*
X43198209Y-14760277D01*
X43312186Y-14853814D01*
X43390135Y-14948797D01*
X43424778Y-14991009D01*
X43424779Y-14991011D01*
X43508443Y-15147533D01*
X43508443Y-15147534D01*
X43559963Y-15317373D01*
X43577359Y-15494000D01*
X43559963Y-15670627D01*
X43525616Y-15783853D01*
X43508443Y-15840467D01*
X43434348Y-15979087D01*
X43424778Y-15996991D01*
X43395448Y-16032729D01*
X43312186Y-16134186D01*
X43210729Y-16217448D01*
X43174991Y-16246778D01*
X43174989Y-16246779D01*
X43018467Y-16330443D01*
X42961853Y-16347616D01*
X42848627Y-16381963D01*
X42786925Y-16388040D01*
X42716260Y-16395000D01*
X42627740Y-16395000D01*
X42557075Y-16388040D01*
X42495373Y-16381963D01*
X42382147Y-16347616D01*
X42325533Y-16330443D01*
X42169011Y-16246779D01*
X42169009Y-16246778D01*
X42133271Y-16217448D01*
X42031814Y-16134186D01*
X41948552Y-16032729D01*
X41919222Y-15996991D01*
X41909652Y-15979087D01*
X41835557Y-15840467D01*
X41818384Y-15783853D01*
X41784037Y-15670627D01*
X41766641Y-15494000D01*
X41784037Y-15317373D01*
X41835557Y-15147534D01*
X41835557Y-15147533D01*
X41919221Y-14991011D01*
X41919222Y-14991009D01*
X41953865Y-14948797D01*
X42031814Y-14853814D01*
X42145791Y-14760277D01*
X42169009Y-14741222D01*
X42186913Y-14731652D01*
X42325533Y-14657557D01*
X42382147Y-14640384D01*
X42495373Y-14606037D01*
X42561557Y-14599519D01*
X42627740Y-14593000D01*
X42716260Y-14593000D01*
X42782443Y-14599519D01*
X42782443Y-14599519D01*
G37*
G36*
X41033000Y-16395000D02*
X39231000Y-16395000D01*
X39231000Y-14593000D01*
X41033000Y-14593000D01*
X41033000Y-16395000D01*
X41033000Y-16395000D01*
G37*
M02*
