G04 #@! TF.GenerationSoftware,KiCad,Pcbnew,5.0.2-bee76a0~70~ubuntu18.04.1*
G04 #@! TF.CreationDate,2019-01-08T11:52:29+01:00*
G04 #@! TF.ProjectId,lightmeter,6c696768-746d-4657-9465-722e6b696361,rev?*
G04 #@! TF.SameCoordinates,Original*
G04 #@! TF.FileFunction,Copper,L2,Bot*
G04 #@! TF.FilePolarity,Positive*
%FSLAX46Y46*%
G04 Gerber Fmt 4.6, Leading zero omitted, Abs format (unit mm)*
G04 Created by KiCad (PCBNEW 5.0.2-bee76a0~70~ubuntu18.04.1) date mar. 08 janv. 2019 11:52:29 CET*
%MOMM*%
%LPD*%
G01*
G04 APERTURE LIST*
G04 #@! TA.AperFunction,ComponentPad*
%ADD10R,1.200000X1.200000*%
G04 #@! TD*
G04 #@! TA.AperFunction,ComponentPad*
%ADD11C,1.200000*%
G04 #@! TD*
G04 #@! TA.AperFunction,ComponentPad*
%ADD12R,1.600000X1.600000*%
G04 #@! TD*
G04 #@! TA.AperFunction,ComponentPad*
%ADD13O,1.600000X1.600000*%
G04 #@! TD*
G04 #@! TA.AperFunction,ComponentPad*
%ADD14R,1.700000X1.700000*%
G04 #@! TD*
G04 #@! TA.AperFunction,ComponentPad*
%ADD15O,1.700000X1.700000*%
G04 #@! TD*
G04 #@! TA.AperFunction,ComponentPad*
%ADD16O,1.050000X1.500000*%
G04 #@! TD*
G04 #@! TA.AperFunction,ComponentPad*
%ADD17R,1.050000X1.500000*%
G04 #@! TD*
G04 #@! TA.AperFunction,ComponentPad*
%ADD18C,1.600000*%
G04 #@! TD*
G04 #@! TA.AperFunction,ComponentPad*
%ADD19C,2.000000*%
G04 #@! TD*
G04 #@! TA.AperFunction,ComponentPad*
%ADD20C,1.900000*%
G04 #@! TD*
G04 #@! TA.AperFunction,ComponentPad*
%ADD21C,1.524000*%
G04 #@! TD*
G04 #@! TA.AperFunction,ComponentPad*
%ADD22C,2.524000*%
G04 #@! TD*
G04 #@! TA.AperFunction,Conductor*
%ADD23C,0.250000*%
G04 #@! TD*
G04 APERTURE END LIST*
D10*
G04 #@! TO.P,C1,1*
G04 #@! TO.N,Net-(C1-Pad1)*
X63500000Y-70104000D03*
D11*
G04 #@! TO.P,C1,2*
G04 #@! TO.N,GND*
X63500000Y-68104000D03*
G04 #@! TD*
D12*
G04 #@! TO.P,D3,1*
G04 #@! TO.N,Net-(D3-Pad1)*
X45974000Y-68580000D03*
D13*
G04 #@! TO.P,D3,2*
G04 #@! TO.N,Net-(C1-Pad1)*
X53594000Y-68580000D03*
G04 #@! TD*
D14*
G04 #@! TO.P,J2,1*
G04 #@! TO.N,Vpu*
X40132000Y-15494000D03*
D15*
G04 #@! TO.P,J2,2*
G04 #@! TO.N,GND*
X42672000Y-15494000D03*
G04 #@! TO.P,J2,3*
G04 #@! TO.N,N/C*
X45212000Y-15494000D03*
G04 #@! TO.P,J2,4*
X47752000Y-15494000D03*
G04 #@! TO.P,J2,5*
X50292000Y-15494000D03*
G04 #@! TO.P,J2,6*
G04 #@! TO.N,SDA*
X52832000Y-15494000D03*
G04 #@! TO.P,J2,7*
G04 #@! TO.N,SCL*
X55372000Y-15494000D03*
G04 #@! TD*
D14*
G04 #@! TO.P,J3,1*
G04 #@! TO.N,GND*
X40132000Y-20574000D03*
D15*
G04 #@! TO.P,J3,2*
G04 #@! TO.N,Vpu*
X42672000Y-20574000D03*
G04 #@! TO.P,J3,3*
G04 #@! TO.N,SDA*
X45212000Y-20574000D03*
G04 #@! TO.P,J3,4*
G04 #@! TO.N,SCL*
X47752000Y-20574000D03*
G04 #@! TO.P,J3,5*
G04 #@! TO.N,N/C*
X50292000Y-20574000D03*
G04 #@! TO.P,J3,6*
X52832000Y-20574000D03*
G04 #@! TO.P,J3,7*
G04 #@! TO.N,/VOUT+*
X55372000Y-20574000D03*
G04 #@! TO.P,J3,8*
G04 #@! TO.N,N/C*
X57912000Y-20574000D03*
G04 #@! TD*
D14*
G04 #@! TO.P,J4,1*
G04 #@! TO.N,Net-(C1-Pad1)*
X60198000Y-15494000D03*
G04 #@! TD*
D16*
G04 #@! TO.P,Q1,2*
G04 #@! TO.N,Net-(Q1-Pad2)*
X57912000Y-69088000D03*
G04 #@! TO.P,Q1,3*
G04 #@! TO.N,Net-(C1-Pad1)*
X56642000Y-69088000D03*
D17*
G04 #@! TO.P,Q1,1*
G04 #@! TO.N,GND*
X59182000Y-69088000D03*
G04 #@! TD*
D18*
G04 #@! TO.P,R1,1*
G04 #@! TO.N,Net-(Q1-Pad2)*
X42926000Y-68580000D03*
D13*
G04 #@! TO.P,R1,2*
G04 #@! TO.N,PWROFF*
X35306000Y-68580000D03*
G04 #@! TD*
D19*
G04 #@! TO.P,SW2,2*
G04 #@! TO.N,GND*
X52832000Y-64952000D03*
G04 #@! TO.P,SW2,1*
G04 #@! TO.N,Net-(SW2-Pad1)*
X52832000Y-60452000D03*
G04 #@! TO.P,SW2,2*
G04 #@! TO.N,GND*
X59332000Y-64952000D03*
G04 #@! TO.P,SW2,1*
G04 #@! TO.N,Net-(SW2-Pad1)*
X59332000Y-60452000D03*
G04 #@! TD*
G04 #@! TO.P,SW3,1*
G04 #@! TO.N,Net-(D3-Pad1)*
X59332000Y-50800000D03*
G04 #@! TO.P,SW3,2*
G04 #@! TO.N,GND*
X59332000Y-55300000D03*
G04 #@! TO.P,SW3,1*
G04 #@! TO.N,Net-(D3-Pad1)*
X52832000Y-50800000D03*
G04 #@! TO.P,SW3,2*
G04 #@! TO.N,GND*
X52832000Y-55300000D03*
G04 #@! TD*
D18*
G04 #@! TO.P,U1,17*
G04 #@! TO.N,GND*
X33274000Y-37084000D03*
G04 #@! TO.P,U1,18*
G04 #@! TO.N,N/C*
X33274000Y-39624000D03*
G04 #@! TO.P,U1,19*
X33274000Y-42164000D03*
G04 #@! TO.P,U1,20*
X33274000Y-44704000D03*
G04 #@! TO.P,U1,16*
G04 #@! TO.N,Vpu*
X33274000Y-34544000D03*
G04 #@! TO.P,U1,15*
G04 #@! TO.N,N/C*
X33274000Y-32004000D03*
G04 #@! TO.P,U1,14*
X33274000Y-29464000D03*
G04 #@! TO.P,U1,21*
X35814000Y-44704000D03*
G04 #@! TO.P,U1,22*
X38354000Y-44704000D03*
G04 #@! TO.P,U1,23*
G04 #@! TO.N,PWROFF*
X40894000Y-44704000D03*
G04 #@! TO.P,U1,24*
G04 #@! TO.N,N/C*
X43434000Y-44704000D03*
G04 #@! TO.P,U1,25*
G04 #@! TO.N,SDA*
X45974000Y-44704000D03*
G04 #@! TO.P,U1,26*
G04 #@! TO.N,SCL*
X48514000Y-44704000D03*
G04 #@! TO.P,U1,27*
G04 #@! TO.N,N/C*
X51054000Y-44704000D03*
G04 #@! TO.P,U1,28*
X53594000Y-44704000D03*
G04 #@! TO.P,U1,29*
G04 #@! TO.N,Net-(D3-Pad1)*
X56134000Y-44704000D03*
G04 #@! TO.P,U1,30*
G04 #@! TO.N,Net-(SW2-Pad1)*
X58674000Y-44704000D03*
G04 #@! TO.P,U1,31*
G04 #@! TO.N,N/C*
X61214000Y-44704000D03*
G04 #@! TO.P,U1,32*
X63754000Y-44704000D03*
G04 #@! TO.P,U1,33*
X66294000Y-44704000D03*
G04 #@! TO.P,U1,34*
G04 #@! TO.N,/VOUT+*
X63754000Y-42164000D03*
G04 #@! TO.P,U1,35*
G04 #@! TO.N,N/C*
X58674000Y-42164000D03*
G04 #@! TO.P,U1,36*
X56134000Y-42164000D03*
G04 #@! TO.P,U1,37*
X53594000Y-42164000D03*
G04 #@! TO.P,U1,13*
G04 #@! TO.N,LED_G*
X35814000Y-29464000D03*
G04 #@! TO.P,U1,12*
G04 #@! TO.N,LED_R*
X38354000Y-29464000D03*
G04 #@! TO.P,U1,11*
G04 #@! TO.N,Net-(U1-Pad11)*
X40894000Y-29464000D03*
G04 #@! TO.P,U1,10*
G04 #@! TO.N,Net-(U1-Pad10)*
X43434000Y-29464000D03*
G04 #@! TO.P,U1,9*
G04 #@! TO.N,N/C*
X45974000Y-29464000D03*
G04 #@! TO.P,U1,8*
X48514000Y-29464000D03*
G04 #@! TO.P,U1,7*
X51054000Y-29464000D03*
G04 #@! TO.P,U1,6*
G04 #@! TO.N,SW_ROT*
X53594000Y-29464000D03*
G04 #@! TO.P,U1,5*
G04 #@! TO.N,N/C*
X56134000Y-29464000D03*
G04 #@! TO.P,U1,4*
X58674000Y-29464000D03*
G04 #@! TO.P,U1,3*
X61214000Y-29464000D03*
G04 #@! TO.P,U1,2*
X63754000Y-29464000D03*
D12*
G04 #@! TO.P,U1,1*
G04 #@! TO.N,GND*
X66294000Y-29464000D03*
D18*
G04 #@! TO.P,U1,38*
G04 #@! TO.N,N/C*
X51054000Y-37084000D03*
G04 #@! TO.P,U1,39*
G04 #@! TO.N,GND*
X48514000Y-37084000D03*
G04 #@! TO.P,U1,40*
G04 #@! TO.N,N/C*
X45974000Y-37084000D03*
G04 #@! TO.P,U1,41*
X43434000Y-37084000D03*
G04 #@! TO.P,U1,42*
X40894000Y-37084000D03*
G04 #@! TO.P,U1,43*
X38354000Y-37084000D03*
G04 #@! TO.P,U1,44*
X35814000Y-37084000D03*
G04 #@! TO.P,U1,45*
X35814000Y-39624000D03*
G04 #@! TO.P,U1,46*
X38354000Y-39624000D03*
G04 #@! TO.P,U1,47*
X40894000Y-39624000D03*
G04 #@! TO.P,U1,48*
X43434000Y-39624000D03*
G04 #@! TO.P,U1,49*
X45974000Y-39624000D03*
G04 #@! TO.P,U1,50*
X48514000Y-39624000D03*
G04 #@! TO.P,U1,51*
X51054000Y-39624000D03*
D20*
G04 #@! TO.P,U1,52*
G04 #@! TO.N,Net-(U1-Pad52)*
X56134000Y-37084000D03*
X59944000Y-37084000D03*
G04 #@! TD*
D21*
G04 #@! TO.P,U2,1*
G04 #@! TO.N,GND*
X44656000Y-50658000D03*
G04 #@! TO.P,U2,2*
G04 #@! TO.N,LED_R*
X42656000Y-50658000D03*
G04 #@! TO.P,U2,3*
G04 #@! TO.N,LED_G*
X40656000Y-50658000D03*
G04 #@! TO.P,U2,4*
G04 #@! TO.N,SW_ROT*
X38656000Y-50658000D03*
G04 #@! TO.P,U2,5*
G04 #@! TO.N,Net-(U1-Pad10)*
X39156000Y-65158000D03*
G04 #@! TO.P,U2,6*
G04 #@! TO.N,GND*
X41656000Y-65158000D03*
G04 #@! TO.P,U2,7*
G04 #@! TO.N,Net-(U1-Pad11)*
X44156000Y-65158000D03*
D22*
G04 #@! TO.P,U2,*
G04 #@! TO.N,*
X47256000Y-57658000D03*
X36056000Y-57658000D03*
G04 #@! TD*
D23*
G04 #@! TO.N,GND*
X33274000Y-37084000D02*
X35052000Y-35306000D01*
X46736000Y-35306000D02*
X48514000Y-37084000D01*
X35052000Y-35306000D02*
X46736000Y-35306000D01*
G04 #@! TO.N,Net-(D3-Pad1)*
X45974000Y-67530000D02*
X50292000Y-63212000D01*
X45974000Y-68580000D02*
X45974000Y-67530000D01*
X50292000Y-53340000D02*
X52832000Y-50800000D01*
X50292000Y-63212000D02*
X50292000Y-53340000D01*
G04 #@! TO.N,PWROFF*
X40894000Y-44704000D02*
X34036000Y-51562000D01*
X34036000Y-67310000D02*
X35306000Y-68580000D01*
X34036000Y-51562000D02*
X34036000Y-67310000D01*
G04 #@! TO.N,Net-(SW2-Pad1)*
X58332001Y-59452001D02*
X59332000Y-60452000D01*
X57874001Y-58994001D02*
X58332001Y-59452001D01*
X57874001Y-45503999D02*
X57874001Y-58994001D01*
X58674000Y-44704000D02*
X57874001Y-45503999D01*
G04 #@! TO.N,Net-(U1-Pad11)*
X40894000Y-29464000D02*
X42418000Y-27940000D01*
X44156000Y-64080370D02*
X44156000Y-65158000D01*
X44156000Y-57514998D02*
X44156000Y-64080370D01*
X54858999Y-46811999D02*
X44156000Y-57514998D01*
X54858999Y-29063997D02*
X54858999Y-46811999D01*
X53735002Y-27940000D02*
X54858999Y-29063997D01*
X42418000Y-27940000D02*
X53735002Y-27940000D01*
G04 #@! TO.N,Net-(U1-Pad10)*
X43434000Y-30595370D02*
X45350630Y-32512000D01*
X43434000Y-29464000D02*
X43434000Y-30595370D01*
X45350630Y-32512000D02*
X49784000Y-32512000D01*
X37568999Y-50136239D02*
X37568999Y-55856999D01*
X38879248Y-48825990D02*
X37568999Y-50136239D01*
X48674012Y-48825990D02*
X38879248Y-48825990D01*
X39156000Y-57444000D02*
X39156000Y-65158000D01*
X37568999Y-55856999D02*
X39156000Y-57444000D01*
X49639001Y-47861001D02*
X48674012Y-48825990D01*
X49639001Y-40164001D02*
X49639001Y-47861001D01*
X49784000Y-40019002D02*
X49639001Y-40164001D01*
X49784000Y-32512000D02*
X49784000Y-40019002D01*
G04 #@! TO.N,SW_ROT*
X38656000Y-50658000D02*
X40038000Y-49276000D01*
X40038000Y-49276000D02*
X51308000Y-49276000D01*
X53594000Y-36068000D02*
X53594000Y-29464000D01*
X52179001Y-37482999D02*
X53594000Y-36068000D01*
X52179001Y-48404999D02*
X52179001Y-37482999D01*
X51308000Y-49276000D02*
X52179001Y-48404999D01*
G04 #@! TD*
M02*
