G04 #@! TF.GenerationSoftware,KiCad,Pcbnew,5.0.2-bee76a0~70~ubuntu18.04.1*
G04 #@! TF.CreationDate,2019-01-08T11:52:29+01:00*
G04 #@! TF.ProjectId,lightmeter,6c696768-746d-4657-9465-722e6b696361,rev?*
G04 #@! TF.SameCoordinates,Original*
G04 #@! TF.FileFunction,Legend,Top*
G04 #@! TF.FilePolarity,Positive*
%FSLAX46Y46*%
G04 Gerber Fmt 4.6, Leading zero omitted, Abs format (unit mm)*
G04 Created by KiCad (PCBNEW 5.0.2-bee76a0~70~ubuntu18.04.1) date mar. 08 janv. 2019 11:52:29 CET*
%MOMM*%
%LPD*%
G01*
G04 APERTURE LIST*
%ADD10C,0.120000*%
%ADD11C,0.150000*%
G04 APERTURE END LIST*
D10*
G04 #@! TO.C,C1*
X65620000Y-69104000D02*
G75*
G03X65620000Y-69104000I-2120000J0D01*
G01*
X61420000Y-69104000D02*
X65580000Y-69104000D01*
X61420000Y-69064000D02*
X65580000Y-69064000D01*
X61421000Y-69024000D02*
X65579000Y-69024000D01*
X61423000Y-68984000D02*
X65577000Y-68984000D01*
X61426000Y-68944000D02*
X65574000Y-68944000D01*
X61429000Y-68904000D02*
X62660000Y-68904000D01*
X64340000Y-68904000D02*
X65571000Y-68904000D01*
X61433000Y-68864000D02*
X62660000Y-68864000D01*
X64340000Y-68864000D02*
X65567000Y-68864000D01*
X61438000Y-68824000D02*
X62660000Y-68824000D01*
X64340000Y-68824000D02*
X65562000Y-68824000D01*
X61444000Y-68784000D02*
X62660000Y-68784000D01*
X64340000Y-68784000D02*
X65556000Y-68784000D01*
X61450000Y-68744000D02*
X62660000Y-68744000D01*
X64340000Y-68744000D02*
X65550000Y-68744000D01*
X61458000Y-68704000D02*
X62660000Y-68704000D01*
X64340000Y-68704000D02*
X65542000Y-68704000D01*
X61466000Y-68664000D02*
X62660000Y-68664000D01*
X64340000Y-68664000D02*
X65534000Y-68664000D01*
X61475000Y-68624000D02*
X62660000Y-68624000D01*
X64340000Y-68624000D02*
X65525000Y-68624000D01*
X61484000Y-68584000D02*
X62660000Y-68584000D01*
X64340000Y-68584000D02*
X65516000Y-68584000D01*
X61495000Y-68544000D02*
X62660000Y-68544000D01*
X64340000Y-68544000D02*
X65505000Y-68544000D01*
X61506000Y-68504000D02*
X62660000Y-68504000D01*
X64340000Y-68504000D02*
X65494000Y-68504000D01*
X61518000Y-68464000D02*
X62660000Y-68464000D01*
X64340000Y-68464000D02*
X65482000Y-68464000D01*
X61532000Y-68424000D02*
X62660000Y-68424000D01*
X64340000Y-68424000D02*
X65468000Y-68424000D01*
X61546000Y-68383000D02*
X62660000Y-68383000D01*
X64340000Y-68383000D02*
X65454000Y-68383000D01*
X61560000Y-68343000D02*
X62660000Y-68343000D01*
X64340000Y-68343000D02*
X65440000Y-68343000D01*
X61576000Y-68303000D02*
X62660000Y-68303000D01*
X64340000Y-68303000D02*
X65424000Y-68303000D01*
X61593000Y-68263000D02*
X62660000Y-68263000D01*
X64340000Y-68263000D02*
X65407000Y-68263000D01*
X61611000Y-68223000D02*
X62660000Y-68223000D01*
X64340000Y-68223000D02*
X65389000Y-68223000D01*
X61630000Y-68183000D02*
X62660000Y-68183000D01*
X64340000Y-68183000D02*
X65370000Y-68183000D01*
X61649000Y-68143000D02*
X62660000Y-68143000D01*
X64340000Y-68143000D02*
X65351000Y-68143000D01*
X61670000Y-68103000D02*
X62660000Y-68103000D01*
X64340000Y-68103000D02*
X65330000Y-68103000D01*
X61692000Y-68063000D02*
X62660000Y-68063000D01*
X64340000Y-68063000D02*
X65308000Y-68063000D01*
X61715000Y-68023000D02*
X62660000Y-68023000D01*
X64340000Y-68023000D02*
X65285000Y-68023000D01*
X61740000Y-67983000D02*
X62660000Y-67983000D01*
X64340000Y-67983000D02*
X65260000Y-67983000D01*
X61765000Y-67943000D02*
X62660000Y-67943000D01*
X64340000Y-67943000D02*
X65235000Y-67943000D01*
X61792000Y-67903000D02*
X62660000Y-67903000D01*
X64340000Y-67903000D02*
X65208000Y-67903000D01*
X61820000Y-67863000D02*
X62660000Y-67863000D01*
X64340000Y-67863000D02*
X65180000Y-67863000D01*
X61850000Y-67823000D02*
X62660000Y-67823000D01*
X64340000Y-67823000D02*
X65150000Y-67823000D01*
X61881000Y-67783000D02*
X62660000Y-67783000D01*
X64340000Y-67783000D02*
X65119000Y-67783000D01*
X61913000Y-67743000D02*
X62660000Y-67743000D01*
X64340000Y-67743000D02*
X65087000Y-67743000D01*
X61948000Y-67703000D02*
X62660000Y-67703000D01*
X64340000Y-67703000D02*
X65052000Y-67703000D01*
X61984000Y-67663000D02*
X62660000Y-67663000D01*
X64340000Y-67663000D02*
X65016000Y-67663000D01*
X62022000Y-67623000D02*
X62660000Y-67623000D01*
X64340000Y-67623000D02*
X64978000Y-67623000D01*
X62062000Y-67583000D02*
X62660000Y-67583000D01*
X64340000Y-67583000D02*
X64938000Y-67583000D01*
X62104000Y-67543000D02*
X62660000Y-67543000D01*
X64340000Y-67543000D02*
X64896000Y-67543000D01*
X62149000Y-67503000D02*
X62660000Y-67503000D01*
X64340000Y-67503000D02*
X64851000Y-67503000D01*
X62196000Y-67463000D02*
X62660000Y-67463000D01*
X64340000Y-67463000D02*
X64804000Y-67463000D01*
X62246000Y-67423000D02*
X62660000Y-67423000D01*
X64340000Y-67423000D02*
X64754000Y-67423000D01*
X62300000Y-67383000D02*
X62660000Y-67383000D01*
X64340000Y-67383000D02*
X64700000Y-67383000D01*
X62358000Y-67343000D02*
X62660000Y-67343000D01*
X64340000Y-67343000D02*
X64642000Y-67343000D01*
X62420000Y-67303000D02*
X62660000Y-67303000D01*
X64340000Y-67303000D02*
X64580000Y-67303000D01*
X62487000Y-67263000D02*
X64513000Y-67263000D01*
X62560000Y-67223000D02*
X64440000Y-67223000D01*
X62641000Y-67183000D02*
X64359000Y-67183000D01*
X62732000Y-67143000D02*
X64268000Y-67143000D01*
X62836000Y-67103000D02*
X64164000Y-67103000D01*
X62963000Y-67063000D02*
X64037000Y-67063000D01*
X63130000Y-67023000D02*
X63870000Y-67023000D01*
X62305000Y-71373801D02*
X62305000Y-70973801D01*
X62105000Y-71173801D02*
X62505000Y-71173801D01*
G04 #@! TO.C,D3*
X47664000Y-67460000D02*
X47664000Y-69700000D01*
X47664000Y-69700000D02*
X51904000Y-69700000D01*
X51904000Y-69700000D02*
X51904000Y-67460000D01*
X51904000Y-67460000D02*
X47664000Y-67460000D01*
X47014000Y-68580000D02*
X47664000Y-68580000D01*
X52554000Y-68580000D02*
X51904000Y-68580000D01*
X48384000Y-67460000D02*
X48384000Y-69700000D01*
X48504000Y-67460000D02*
X48504000Y-69700000D01*
X48264000Y-67460000D02*
X48264000Y-69700000D01*
G04 #@! TO.C,J2*
X56702000Y-16824000D02*
X56702000Y-14164000D01*
X41402000Y-16824000D02*
X56702000Y-16824000D01*
X41402000Y-14164000D02*
X56702000Y-14164000D01*
X41402000Y-16824000D02*
X41402000Y-14164000D01*
X40132000Y-16824000D02*
X38802000Y-16824000D01*
X38802000Y-16824000D02*
X38802000Y-15494000D01*
G04 #@! TO.C,J3*
X59242000Y-21904000D02*
X59242000Y-19244000D01*
X41402000Y-21904000D02*
X59242000Y-21904000D01*
X41402000Y-19244000D02*
X59242000Y-19244000D01*
X41402000Y-21904000D02*
X41402000Y-19244000D01*
X40132000Y-21904000D02*
X38802000Y-21904000D01*
X38802000Y-21904000D02*
X38802000Y-20574000D01*
G04 #@! TO.C,J4*
X58868000Y-16824000D02*
X61528000Y-16824000D01*
X58868000Y-16764000D02*
X58868000Y-16824000D01*
X61528000Y-16764000D02*
X61528000Y-16824000D01*
X58868000Y-16764000D02*
X61528000Y-16764000D01*
X58868000Y-15494000D02*
X58868000Y-14164000D01*
X58868000Y-14164000D02*
X60198000Y-14164000D01*
G04 #@! TO.C,Q1*
X59712000Y-67238000D02*
X56112000Y-67238000D01*
X59750478Y-67249522D02*
G75*
G02X57912000Y-71688000I-1838478J-1838478D01*
G01*
X56073522Y-67249522D02*
G75*
G03X57912000Y-71688000I1838478J-1838478D01*
G01*
G04 #@! TO.C,R1*
X42386000Y-69620000D02*
X42386000Y-69950000D01*
X42386000Y-69950000D02*
X35846000Y-69950000D01*
X35846000Y-69950000D02*
X35846000Y-69620000D01*
X42386000Y-67540000D02*
X42386000Y-67210000D01*
X42386000Y-67210000D02*
X35846000Y-67210000D01*
X35846000Y-67210000D02*
X35846000Y-67540000D01*
G04 #@! TO.C,SW2*
X53832000Y-65952000D02*
X58332000Y-65952000D01*
X52582000Y-61952000D02*
X52582000Y-63452000D01*
X58332000Y-59452000D02*
X53832000Y-59452000D01*
X59582000Y-63452000D02*
X59582000Y-61952000D01*
G04 #@! TO.C,SW3*
X59582000Y-53800000D02*
X59582000Y-52300000D01*
X58332000Y-49800000D02*
X53832000Y-49800000D01*
X52582000Y-52300000D02*
X52582000Y-53800000D01*
X53832000Y-56300000D02*
X58332000Y-56300000D01*
D11*
G04 #@! TO.C,U1*
X67564000Y-33274000D02*
X68834000Y-33274000D01*
X68834000Y-33274000D02*
X68834000Y-40894000D01*
X68834000Y-40894000D02*
X67564000Y-40894000D01*
X56134000Y-32004000D02*
X52324000Y-32004000D01*
X52324000Y-32004000D02*
X52324000Y-34544000D01*
X52324000Y-34544000D02*
X56134000Y-34544000D01*
X56134000Y-34544000D02*
X56134000Y-32004000D01*
X62484000Y-33274000D02*
X62484000Y-40894000D01*
X62484000Y-40894000D02*
X67564000Y-40894000D01*
X62484000Y-33274000D02*
X67564000Y-33274000D01*
X61214000Y-32004000D02*
X58674000Y-32004000D01*
X58674000Y-32004000D02*
X58674000Y-34544000D01*
X58674000Y-34544000D02*
X61214000Y-34544000D01*
X61214000Y-34544000D02*
X61214000Y-32004000D01*
X34544000Y-39624000D02*
X34544000Y-34544000D01*
X34544000Y-34544000D02*
X37084000Y-34544000D01*
X37084000Y-34544000D02*
X37084000Y-39624000D01*
X37084000Y-39624000D02*
X34544000Y-39624000D01*
X40894000Y-32004000D02*
X40894000Y-42164000D01*
X49784000Y-42164000D02*
X49784000Y-32004000D01*
X40894000Y-42164000D02*
X49784000Y-42164000D01*
X40894000Y-32004000D02*
X49784000Y-32004000D01*
X67564000Y-45974000D02*
X32004000Y-45974000D01*
X32004000Y-45974000D02*
X32004000Y-28194000D01*
X32004000Y-28194000D02*
X67564000Y-28194000D01*
X67564000Y-28194000D02*
X67564000Y-45974000D01*
G04 #@! TO.C,C1*
X62063333Y-66143142D02*
X62015714Y-66190761D01*
X61872857Y-66238380D01*
X61777619Y-66238380D01*
X61634761Y-66190761D01*
X61539523Y-66095523D01*
X61491904Y-66000285D01*
X61444285Y-65809809D01*
X61444285Y-65666952D01*
X61491904Y-65476476D01*
X61539523Y-65381238D01*
X61634761Y-65286000D01*
X61777619Y-65238380D01*
X61872857Y-65238380D01*
X62015714Y-65286000D01*
X62063333Y-65333619D01*
X63015714Y-66238380D02*
X62444285Y-66238380D01*
X62730000Y-66238380D02*
X62730000Y-65238380D01*
X62634761Y-65381238D01*
X62539523Y-65476476D01*
X62444285Y-65524095D01*
G04 #@! TO.C,D3*
X49045904Y-69032380D02*
X49045904Y-68032380D01*
X49284000Y-68032380D01*
X49426857Y-68080000D01*
X49522095Y-68175238D01*
X49569714Y-68270476D01*
X49617333Y-68460952D01*
X49617333Y-68603809D01*
X49569714Y-68794285D01*
X49522095Y-68889523D01*
X49426857Y-68984761D01*
X49284000Y-69032380D01*
X49045904Y-69032380D01*
X49950666Y-68032380D02*
X50569714Y-68032380D01*
X50236380Y-68413333D01*
X50379238Y-68413333D01*
X50474476Y-68460952D01*
X50522095Y-68508571D01*
X50569714Y-68603809D01*
X50569714Y-68841904D01*
X50522095Y-68937142D01*
X50474476Y-68984761D01*
X50379238Y-69032380D01*
X50093523Y-69032380D01*
X49998285Y-68984761D01*
X49950666Y-68937142D01*
X44188095Y-69032380D02*
X44188095Y-68032380D01*
X44759523Y-69032380D02*
X44330952Y-68460952D01*
X44759523Y-68032380D02*
X44188095Y-68603809D01*
G04 #@! TO.C,J2*
X37254380Y-15827333D02*
X37968666Y-15827333D01*
X38111523Y-15874952D01*
X38206761Y-15970190D01*
X38254380Y-16113047D01*
X38254380Y-16208285D01*
X37349619Y-15398761D02*
X37302000Y-15351142D01*
X37254380Y-15255904D01*
X37254380Y-15017809D01*
X37302000Y-14922571D01*
X37349619Y-14874952D01*
X37444857Y-14827333D01*
X37540095Y-14827333D01*
X37682952Y-14874952D01*
X38254380Y-15446380D01*
X38254380Y-14827333D01*
X51284571Y-17486380D02*
X51856000Y-17486380D01*
X51570285Y-18486380D02*
X51570285Y-17486380D01*
X52141714Y-18438761D02*
X52284571Y-18486380D01*
X52522666Y-18486380D01*
X52617904Y-18438761D01*
X52665523Y-18391142D01*
X52713142Y-18295904D01*
X52713142Y-18200666D01*
X52665523Y-18105428D01*
X52617904Y-18057809D01*
X52522666Y-18010190D01*
X52332190Y-17962571D01*
X52236952Y-17914952D01*
X52189333Y-17867333D01*
X52141714Y-17772095D01*
X52141714Y-17676857D01*
X52189333Y-17581619D01*
X52236952Y-17534000D01*
X52332190Y-17486380D01*
X52570285Y-17486380D01*
X52713142Y-17534000D01*
X53617904Y-18486380D02*
X53141714Y-18486380D01*
X53141714Y-17486380D01*
X53903619Y-17581619D02*
X53951238Y-17534000D01*
X54046476Y-17486380D01*
X54284571Y-17486380D01*
X54379809Y-17534000D01*
X54427428Y-17581619D01*
X54475047Y-17676857D01*
X54475047Y-17772095D01*
X54427428Y-17914952D01*
X53856000Y-18486380D01*
X54475047Y-18486380D01*
X55379809Y-17486380D02*
X54903619Y-17486380D01*
X54856000Y-17962571D01*
X54903619Y-17914952D01*
X54998857Y-17867333D01*
X55236952Y-17867333D01*
X55332190Y-17914952D01*
X55379809Y-17962571D01*
X55427428Y-18057809D01*
X55427428Y-18295904D01*
X55379809Y-18391142D01*
X55332190Y-18438761D01*
X55236952Y-18486380D01*
X54998857Y-18486380D01*
X54903619Y-18438761D01*
X54856000Y-18391142D01*
X56284571Y-17486380D02*
X56094095Y-17486380D01*
X55998857Y-17534000D01*
X55951238Y-17581619D01*
X55856000Y-17724476D01*
X55808380Y-17914952D01*
X55808380Y-18295904D01*
X55856000Y-18391142D01*
X55903619Y-18438761D01*
X55998857Y-18486380D01*
X56189333Y-18486380D01*
X56284571Y-18438761D01*
X56332190Y-18391142D01*
X56379809Y-18295904D01*
X56379809Y-18057809D01*
X56332190Y-17962571D01*
X56284571Y-17914952D01*
X56189333Y-17867333D01*
X55998857Y-17867333D01*
X55903619Y-17914952D01*
X55856000Y-17962571D01*
X55808380Y-18057809D01*
X57332190Y-18486380D02*
X56760761Y-18486380D01*
X57046476Y-18486380D02*
X57046476Y-17486380D01*
X56951238Y-17629238D01*
X56856000Y-17724476D01*
X56760761Y-17772095D01*
G04 #@! TO.C,J3*
X37254380Y-20907333D02*
X37968666Y-20907333D01*
X38111523Y-20954952D01*
X38206761Y-21050190D01*
X38254380Y-21193047D01*
X38254380Y-21288285D01*
X37254380Y-20526380D02*
X37254380Y-19907333D01*
X37635333Y-20240666D01*
X37635333Y-20097809D01*
X37682952Y-20002571D01*
X37730571Y-19954952D01*
X37825809Y-19907333D01*
X38063904Y-19907333D01*
X38159142Y-19954952D01*
X38206761Y-20002571D01*
X38254380Y-20097809D01*
X38254380Y-20383523D01*
X38206761Y-20478761D01*
X38159142Y-20526380D01*
X52641904Y-23042571D02*
X52784761Y-23090190D01*
X52832380Y-23137809D01*
X52880000Y-23233047D01*
X52880000Y-23375904D01*
X52832380Y-23471142D01*
X52784761Y-23518761D01*
X52689523Y-23566380D01*
X52308571Y-23566380D01*
X52308571Y-22566380D01*
X52641904Y-22566380D01*
X52737142Y-22614000D01*
X52784761Y-22661619D01*
X52832380Y-22756857D01*
X52832380Y-22852095D01*
X52784761Y-22947333D01*
X52737142Y-22994952D01*
X52641904Y-23042571D01*
X52308571Y-23042571D01*
X53737142Y-23566380D02*
X53737142Y-23042571D01*
X53689523Y-22947333D01*
X53594285Y-22899714D01*
X53403809Y-22899714D01*
X53308571Y-22947333D01*
X53737142Y-23518761D02*
X53641904Y-23566380D01*
X53403809Y-23566380D01*
X53308571Y-23518761D01*
X53260952Y-23423523D01*
X53260952Y-23328285D01*
X53308571Y-23233047D01*
X53403809Y-23185428D01*
X53641904Y-23185428D01*
X53737142Y-23137809D01*
X54213333Y-23566380D02*
X54213333Y-22566380D01*
X54213333Y-22947333D02*
X54308571Y-22899714D01*
X54499047Y-22899714D01*
X54594285Y-22947333D01*
X54641904Y-22994952D01*
X54689523Y-23090190D01*
X54689523Y-23375904D01*
X54641904Y-23471142D01*
X54594285Y-23518761D01*
X54499047Y-23566380D01*
X54308571Y-23566380D01*
X54213333Y-23518761D01*
X55022857Y-22899714D02*
X55260952Y-23566380D01*
X55499047Y-22899714D02*
X55260952Y-23566380D01*
X55165714Y-23804476D01*
X55118095Y-23852095D01*
X55022857Y-23899714D01*
X55832380Y-23518761D02*
X55975238Y-23566380D01*
X56213333Y-23566380D01*
X56308571Y-23518761D01*
X56356190Y-23471142D01*
X56403809Y-23375904D01*
X56403809Y-23280666D01*
X56356190Y-23185428D01*
X56308571Y-23137809D01*
X56213333Y-23090190D01*
X56022857Y-23042571D01*
X55927619Y-22994952D01*
X55880000Y-22947333D01*
X55832380Y-22852095D01*
X55832380Y-22756857D01*
X55880000Y-22661619D01*
X55927619Y-22614000D01*
X56022857Y-22566380D01*
X56260952Y-22566380D01*
X56403809Y-22614000D01*
X56832380Y-23566380D02*
X56832380Y-22899714D01*
X56832380Y-22566380D02*
X56784761Y-22614000D01*
X56832380Y-22661619D01*
X56880000Y-22614000D01*
X56832380Y-22566380D01*
X56832380Y-22661619D01*
X57165714Y-22899714D02*
X57546666Y-22899714D01*
X57308571Y-22566380D02*
X57308571Y-23423523D01*
X57356190Y-23518761D01*
X57451428Y-23566380D01*
X57546666Y-23566380D01*
X57737142Y-22899714D02*
X58118095Y-22899714D01*
X57880000Y-22566380D02*
X57880000Y-23423523D01*
X57927619Y-23518761D01*
X58022857Y-23566380D01*
X58118095Y-23566380D01*
X58832380Y-23518761D02*
X58737142Y-23566380D01*
X58546666Y-23566380D01*
X58451428Y-23518761D01*
X58403809Y-23423523D01*
X58403809Y-23042571D01*
X58451428Y-22947333D01*
X58546666Y-22899714D01*
X58737142Y-22899714D01*
X58832380Y-22947333D01*
X58880000Y-23042571D01*
X58880000Y-23137809D01*
X58403809Y-23233047D01*
X59308571Y-23566380D02*
X59308571Y-22899714D01*
X59308571Y-23090190D02*
X59356190Y-22994952D01*
X59403809Y-22947333D01*
X59499047Y-22899714D01*
X59594285Y-22899714D01*
G04 #@! TO.C,J4*
X59864666Y-12616380D02*
X59864666Y-13330666D01*
X59817047Y-13473523D01*
X59721809Y-13568761D01*
X59578952Y-13616380D01*
X59483714Y-13616380D01*
X60769428Y-12949714D02*
X60769428Y-13616380D01*
X60531333Y-12568761D02*
X60293238Y-13283047D01*
X60912285Y-13283047D01*
X57626571Y-18228761D02*
X57769428Y-18276380D01*
X58007523Y-18276380D01*
X58102761Y-18228761D01*
X58150380Y-18181142D01*
X58198000Y-18085904D01*
X58198000Y-17990666D01*
X58150380Y-17895428D01*
X58102761Y-17847809D01*
X58007523Y-17800190D01*
X57817047Y-17752571D01*
X57721809Y-17704952D01*
X57674190Y-17657333D01*
X57626571Y-17562095D01*
X57626571Y-17466857D01*
X57674190Y-17371619D01*
X57721809Y-17324000D01*
X57817047Y-17276380D01*
X58055142Y-17276380D01*
X58198000Y-17324000D01*
X58817047Y-17800190D02*
X58817047Y-18276380D01*
X58483714Y-17276380D02*
X58817047Y-17800190D01*
X59150380Y-17276380D01*
X59436095Y-18228761D02*
X59578952Y-18276380D01*
X59817047Y-18276380D01*
X59912285Y-18228761D01*
X59959904Y-18181142D01*
X60007523Y-18085904D01*
X60007523Y-17990666D01*
X59959904Y-17895428D01*
X59912285Y-17847809D01*
X59817047Y-17800190D01*
X59626571Y-17752571D01*
X59531333Y-17704952D01*
X59483714Y-17657333D01*
X59436095Y-17562095D01*
X59436095Y-17466857D01*
X59483714Y-17371619D01*
X59531333Y-17324000D01*
X59626571Y-17276380D01*
X59864666Y-17276380D01*
X60007523Y-17324000D01*
X60626571Y-17276380D02*
X60817047Y-17276380D01*
X60912285Y-17324000D01*
X61007523Y-17419238D01*
X61055142Y-17609714D01*
X61055142Y-17943047D01*
X61007523Y-18133523D01*
X60912285Y-18228761D01*
X60817047Y-18276380D01*
X60626571Y-18276380D01*
X60531333Y-18228761D01*
X60436095Y-18133523D01*
X60388476Y-17943047D01*
X60388476Y-17609714D01*
X60436095Y-17419238D01*
X60531333Y-17324000D01*
X60626571Y-17276380D01*
X61817047Y-17752571D02*
X61483714Y-17752571D01*
X61483714Y-18276380D02*
X61483714Y-17276380D01*
X61959904Y-17276380D01*
X62674190Y-17752571D02*
X62340857Y-17752571D01*
X62340857Y-18276380D02*
X62340857Y-17276380D01*
X62817047Y-17276380D01*
G04 #@! TO.C,Q1*
X54006761Y-71413619D02*
X53911523Y-71366000D01*
X53816285Y-71270761D01*
X53673428Y-71127904D01*
X53578190Y-71080285D01*
X53482952Y-71080285D01*
X53530571Y-71318380D02*
X53435333Y-71270761D01*
X53340095Y-71175523D01*
X53292476Y-70985047D01*
X53292476Y-70651714D01*
X53340095Y-70461238D01*
X53435333Y-70366000D01*
X53530571Y-70318380D01*
X53721047Y-70318380D01*
X53816285Y-70366000D01*
X53911523Y-70461238D01*
X53959142Y-70651714D01*
X53959142Y-70985047D01*
X53911523Y-71175523D01*
X53816285Y-71270761D01*
X53721047Y-71318380D01*
X53530571Y-71318380D01*
X54911523Y-71318380D02*
X54340095Y-71318380D01*
X54625809Y-71318380D02*
X54625809Y-70318380D01*
X54530571Y-70461238D01*
X54435333Y-70556476D01*
X54340095Y-70604095D01*
G04 #@! TO.C,R1*
X38949333Y-69032380D02*
X38616000Y-68556190D01*
X38377904Y-69032380D02*
X38377904Y-68032380D01*
X38758857Y-68032380D01*
X38854095Y-68080000D01*
X38901714Y-68127619D01*
X38949333Y-68222857D01*
X38949333Y-68365714D01*
X38901714Y-68460952D01*
X38854095Y-68508571D01*
X38758857Y-68556190D01*
X38377904Y-68556190D01*
X39901714Y-69032380D02*
X39330285Y-69032380D01*
X39616000Y-69032380D02*
X39616000Y-68032380D01*
X39520761Y-68175238D01*
X39425523Y-68270476D01*
X39330285Y-68318095D01*
G04 #@! TO.C,SW2*
X62126761Y-63817333D02*
X62174380Y-63674476D01*
X62174380Y-63436380D01*
X62126761Y-63341142D01*
X62079142Y-63293523D01*
X61983904Y-63245904D01*
X61888666Y-63245904D01*
X61793428Y-63293523D01*
X61745809Y-63341142D01*
X61698190Y-63436380D01*
X61650571Y-63626857D01*
X61602952Y-63722095D01*
X61555333Y-63769714D01*
X61460095Y-63817333D01*
X61364857Y-63817333D01*
X61269619Y-63769714D01*
X61222000Y-63722095D01*
X61174380Y-63626857D01*
X61174380Y-63388761D01*
X61222000Y-63245904D01*
X61174380Y-62912571D02*
X62174380Y-62674476D01*
X61460095Y-62484000D01*
X62174380Y-62293523D01*
X61174380Y-62055428D01*
X61269619Y-61722095D02*
X61222000Y-61674476D01*
X61174380Y-61579238D01*
X61174380Y-61341142D01*
X61222000Y-61245904D01*
X61269619Y-61198285D01*
X61364857Y-61150666D01*
X61460095Y-61150666D01*
X61602952Y-61198285D01*
X62174380Y-61769714D01*
X62174380Y-61150666D01*
G04 #@! TO.C,SW3*
X62126761Y-54419333D02*
X62174380Y-54276476D01*
X62174380Y-54038380D01*
X62126761Y-53943142D01*
X62079142Y-53895523D01*
X61983904Y-53847904D01*
X61888666Y-53847904D01*
X61793428Y-53895523D01*
X61745809Y-53943142D01*
X61698190Y-54038380D01*
X61650571Y-54228857D01*
X61602952Y-54324095D01*
X61555333Y-54371714D01*
X61460095Y-54419333D01*
X61364857Y-54419333D01*
X61269619Y-54371714D01*
X61222000Y-54324095D01*
X61174380Y-54228857D01*
X61174380Y-53990761D01*
X61222000Y-53847904D01*
X61174380Y-53514571D02*
X62174380Y-53276476D01*
X61460095Y-53086000D01*
X62174380Y-52895523D01*
X61174380Y-52657428D01*
X61174380Y-52371714D02*
X61174380Y-51752666D01*
X61555333Y-52086000D01*
X61555333Y-51943142D01*
X61602952Y-51847904D01*
X61650571Y-51800285D01*
X61745809Y-51752666D01*
X61983904Y-51752666D01*
X62079142Y-51800285D01*
X62126761Y-51847904D01*
X62174380Y-51943142D01*
X62174380Y-52228857D01*
X62126761Y-52324095D01*
X62079142Y-52371714D01*
G04 #@! TO.C,U1*
X41148095Y-26630380D02*
X41148095Y-27439904D01*
X41195714Y-27535142D01*
X41243333Y-27582761D01*
X41338571Y-27630380D01*
X41529047Y-27630380D01*
X41624285Y-27582761D01*
X41671904Y-27535142D01*
X41719523Y-27439904D01*
X41719523Y-26630380D01*
X42719523Y-27630380D02*
X42148095Y-27630380D01*
X42433809Y-27630380D02*
X42433809Y-26630380D01*
X42338571Y-26773238D01*
X42243333Y-26868476D01*
X42148095Y-26916095D01*
X31734571Y-26630380D02*
X32306000Y-26630380D01*
X32020285Y-27630380D02*
X32020285Y-26630380D01*
X33020285Y-27582761D02*
X32925047Y-27630380D01*
X32734571Y-27630380D01*
X32639333Y-27582761D01*
X32591714Y-27487523D01*
X32591714Y-27106571D01*
X32639333Y-27011333D01*
X32734571Y-26963714D01*
X32925047Y-26963714D01*
X33020285Y-27011333D01*
X33067904Y-27106571D01*
X33067904Y-27201809D01*
X32591714Y-27297047D01*
X33877428Y-27582761D02*
X33782190Y-27630380D01*
X33591714Y-27630380D01*
X33496476Y-27582761D01*
X33448857Y-27487523D01*
X33448857Y-27106571D01*
X33496476Y-27011333D01*
X33591714Y-26963714D01*
X33782190Y-26963714D01*
X33877428Y-27011333D01*
X33925047Y-27106571D01*
X33925047Y-27201809D01*
X33448857Y-27297047D01*
X34353619Y-26963714D02*
X34353619Y-27630380D01*
X34353619Y-27058952D02*
X34401238Y-27011333D01*
X34496476Y-26963714D01*
X34639333Y-26963714D01*
X34734571Y-27011333D01*
X34782190Y-27106571D01*
X34782190Y-27630380D01*
X35210761Y-27582761D02*
X35306000Y-27630380D01*
X35496476Y-27630380D01*
X35591714Y-27582761D01*
X35639333Y-27487523D01*
X35639333Y-27439904D01*
X35591714Y-27344666D01*
X35496476Y-27297047D01*
X35353619Y-27297047D01*
X35258380Y-27249428D01*
X35210761Y-27154190D01*
X35210761Y-27106571D01*
X35258380Y-27011333D01*
X35353619Y-26963714D01*
X35496476Y-26963714D01*
X35591714Y-27011333D01*
X35972666Y-26963714D02*
X36210761Y-27630380D01*
X36448857Y-26963714D02*
X36210761Y-27630380D01*
X36115523Y-27868476D01*
X36067904Y-27916095D01*
X35972666Y-27963714D01*
X36734571Y-26630380D02*
X37353619Y-26630380D01*
X37020285Y-27011333D01*
X37163142Y-27011333D01*
X37258380Y-27058952D01*
X37306000Y-27106571D01*
X37353619Y-27201809D01*
X37353619Y-27439904D01*
X37306000Y-27535142D01*
X37258380Y-27582761D01*
X37163142Y-27630380D01*
X36877428Y-27630380D01*
X36782190Y-27582761D01*
X36734571Y-27535142D01*
X37782190Y-27535142D02*
X37829809Y-27582761D01*
X37782190Y-27630380D01*
X37734571Y-27582761D01*
X37782190Y-27535142D01*
X37782190Y-27630380D01*
X38210761Y-26725619D02*
X38258380Y-26678000D01*
X38353619Y-26630380D01*
X38591714Y-26630380D01*
X38686952Y-26678000D01*
X38734571Y-26725619D01*
X38782190Y-26820857D01*
X38782190Y-26916095D01*
X38734571Y-27058952D01*
X38163142Y-27630380D01*
X38782190Y-27630380D01*
X59396380Y-41100190D02*
X59396380Y-40528761D01*
X60396380Y-40814476D02*
X59396380Y-40814476D01*
X59396380Y-40290666D02*
X59396380Y-39671619D01*
X59777333Y-40004952D01*
X59777333Y-39862095D01*
X59824952Y-39766857D01*
X59872571Y-39719238D01*
X59967809Y-39671619D01*
X60205904Y-39671619D01*
X60301142Y-39719238D01*
X60348761Y-39766857D01*
X60396380Y-39862095D01*
X60396380Y-40147809D01*
X60348761Y-40243047D01*
X60301142Y-40290666D01*
X60301142Y-39243047D02*
X60348761Y-39195428D01*
X60396380Y-39243047D01*
X60348761Y-39290666D01*
X60301142Y-39243047D01*
X60396380Y-39243047D01*
X59491619Y-38814476D02*
X59444000Y-38766857D01*
X59396380Y-38671619D01*
X59396380Y-38433523D01*
X59444000Y-38338285D01*
X59491619Y-38290666D01*
X59586857Y-38243047D01*
X59682095Y-38243047D01*
X59824952Y-38290666D01*
X60396380Y-38862095D01*
X60396380Y-38243047D01*
X55586380Y-41100190D02*
X55586380Y-40528761D01*
X56586380Y-40814476D02*
X55586380Y-40814476D01*
X55586380Y-40290666D02*
X55586380Y-39671619D01*
X55967333Y-40004952D01*
X55967333Y-39862095D01*
X56014952Y-39766857D01*
X56062571Y-39719238D01*
X56157809Y-39671619D01*
X56395904Y-39671619D01*
X56491142Y-39719238D01*
X56538761Y-39766857D01*
X56586380Y-39862095D01*
X56586380Y-40147809D01*
X56538761Y-40243047D01*
X56491142Y-40290666D01*
X56491142Y-39243047D02*
X56538761Y-39195428D01*
X56586380Y-39243047D01*
X56538761Y-39290666D01*
X56491142Y-39243047D01*
X56586380Y-39243047D01*
X56586380Y-38243047D02*
X56586380Y-38814476D01*
X56586380Y-38528761D02*
X55586380Y-38528761D01*
X55729238Y-38624000D01*
X55824476Y-38719238D01*
X55872095Y-38814476D01*
G04 #@! TO.C,U2*
X40894095Y-56856380D02*
X40894095Y-57665904D01*
X40941714Y-57761142D01*
X40989333Y-57808761D01*
X41084571Y-57856380D01*
X41275047Y-57856380D01*
X41370285Y-57808761D01*
X41417904Y-57761142D01*
X41465523Y-57665904D01*
X41465523Y-56856380D01*
X41894095Y-56951619D02*
X41941714Y-56904000D01*
X42036952Y-56856380D01*
X42275047Y-56856380D01*
X42370285Y-56904000D01*
X42417904Y-56951619D01*
X42465523Y-57046857D01*
X42465523Y-57142095D01*
X42417904Y-57284952D01*
X41846476Y-57856380D01*
X42465523Y-57856380D01*
G04 #@! TO.C,H1*
X29972095Y-12746380D02*
X29972095Y-11746380D01*
X29972095Y-12222571D02*
X30543523Y-12222571D01*
X30543523Y-12746380D02*
X30543523Y-11746380D01*
X31543523Y-12746380D02*
X30972095Y-12746380D01*
X31257809Y-12746380D02*
X31257809Y-11746380D01*
X31162571Y-11889238D01*
X31067333Y-11984476D01*
X30972095Y-12032095D01*
G04 #@! TO.C,H2*
X67564095Y-75738380D02*
X67564095Y-74738380D01*
X67564095Y-75214571D02*
X68135523Y-75214571D01*
X68135523Y-75738380D02*
X68135523Y-74738380D01*
X68564095Y-74833619D02*
X68611714Y-74786000D01*
X68706952Y-74738380D01*
X68945047Y-74738380D01*
X69040285Y-74786000D01*
X69087904Y-74833619D01*
X69135523Y-74928857D01*
X69135523Y-75024095D01*
X69087904Y-75166952D01*
X68516476Y-75738380D01*
X69135523Y-75738380D01*
G04 #@! TO.C,H3*
X67564095Y-12746380D02*
X67564095Y-11746380D01*
X67564095Y-12222571D02*
X68135523Y-12222571D01*
X68135523Y-12746380D02*
X68135523Y-11746380D01*
X68516476Y-11746380D02*
X69135523Y-11746380D01*
X68802190Y-12127333D01*
X68945047Y-12127333D01*
X69040285Y-12174952D01*
X69087904Y-12222571D01*
X69135523Y-12317809D01*
X69135523Y-12555904D01*
X69087904Y-12651142D01*
X69040285Y-12698761D01*
X68945047Y-12746380D01*
X68659333Y-12746380D01*
X68564095Y-12698761D01*
X68516476Y-12651142D01*
G04 #@! TO.C,H4*
X67056095Y-20112380D02*
X67056095Y-19112380D01*
X67056095Y-19588571D02*
X67627523Y-19588571D01*
X67627523Y-20112380D02*
X67627523Y-19112380D01*
X68532285Y-19445714D02*
X68532285Y-20112380D01*
X68294190Y-19064761D02*
X68056095Y-19779047D01*
X68675142Y-19779047D01*
G04 #@! TO.C,H5*
X29972095Y-75738380D02*
X29972095Y-74738380D01*
X29972095Y-75214571D02*
X30543523Y-75214571D01*
X30543523Y-75738380D02*
X30543523Y-74738380D01*
X31495904Y-74738380D02*
X31019714Y-74738380D01*
X30972095Y-75214571D01*
X31019714Y-75166952D01*
X31114952Y-75119333D01*
X31353047Y-75119333D01*
X31448285Y-75166952D01*
X31495904Y-75214571D01*
X31543523Y-75309809D01*
X31543523Y-75547904D01*
X31495904Y-75643142D01*
X31448285Y-75690761D01*
X31353047Y-75738380D01*
X31114952Y-75738380D01*
X31019714Y-75690761D01*
X30972095Y-75643142D01*
G04 #@! TO.C,H6*
X30734095Y-19858380D02*
X30734095Y-18858380D01*
X30734095Y-19334571D02*
X31305523Y-19334571D01*
X31305523Y-19858380D02*
X31305523Y-18858380D01*
X32210285Y-18858380D02*
X32019809Y-18858380D01*
X31924571Y-18906000D01*
X31876952Y-18953619D01*
X31781714Y-19096476D01*
X31734095Y-19286952D01*
X31734095Y-19667904D01*
X31781714Y-19763142D01*
X31829333Y-19810761D01*
X31924571Y-19858380D01*
X32115047Y-19858380D01*
X32210285Y-19810761D01*
X32257904Y-19763142D01*
X32305523Y-19667904D01*
X32305523Y-19429809D01*
X32257904Y-19334571D01*
X32210285Y-19286952D01*
X32115047Y-19239333D01*
X31924571Y-19239333D01*
X31829333Y-19286952D01*
X31781714Y-19334571D01*
X31734095Y-19429809D01*
G04 #@! TD*
M02*
