G04 #@! TF.GenerationSoftware,KiCad,Pcbnew,5.0.2-bee76a0~70~ubuntu18.04.1*
G04 #@! TF.CreationDate,2019-01-08T11:52:29+01:00*
G04 #@! TF.ProjectId,lightmeter,6c696768-746d-4657-9465-722e6b696361,rev?*
G04 #@! TF.SameCoordinates,Original*
G04 #@! TF.FileFunction,Copper,L1,Top*
G04 #@! TF.FilePolarity,Positive*
%FSLAX46Y46*%
G04 Gerber Fmt 4.6, Leading zero omitted, Abs format (unit mm)*
G04 Created by KiCad (PCBNEW 5.0.2-bee76a0~70~ubuntu18.04.1) date mar. 08 janv. 2019 11:52:29 CET*
%MOMM*%
%LPD*%
G01*
G04 APERTURE LIST*
G04 #@! TA.AperFunction,ComponentPad*
%ADD10R,1.200000X1.200000*%
G04 #@! TD*
G04 #@! TA.AperFunction,ComponentPad*
%ADD11C,1.200000*%
G04 #@! TD*
G04 #@! TA.AperFunction,ComponentPad*
%ADD12R,1.600000X1.600000*%
G04 #@! TD*
G04 #@! TA.AperFunction,ComponentPad*
%ADD13O,1.600000X1.600000*%
G04 #@! TD*
G04 #@! TA.AperFunction,ComponentPad*
%ADD14R,1.700000X1.700000*%
G04 #@! TD*
G04 #@! TA.AperFunction,ComponentPad*
%ADD15O,1.700000X1.700000*%
G04 #@! TD*
G04 #@! TA.AperFunction,ComponentPad*
%ADD16O,1.050000X1.500000*%
G04 #@! TD*
G04 #@! TA.AperFunction,ComponentPad*
%ADD17R,1.050000X1.500000*%
G04 #@! TD*
G04 #@! TA.AperFunction,ComponentPad*
%ADD18C,1.600000*%
G04 #@! TD*
G04 #@! TA.AperFunction,ComponentPad*
%ADD19C,2.000000*%
G04 #@! TD*
G04 #@! TA.AperFunction,ComponentPad*
%ADD20C,1.900000*%
G04 #@! TD*
G04 #@! TA.AperFunction,ComponentPad*
%ADD21C,1.524000*%
G04 #@! TD*
G04 #@! TA.AperFunction,ComponentPad*
%ADD22C,2.524000*%
G04 #@! TD*
G04 #@! TA.AperFunction,Conductor*
%ADD23C,0.250000*%
G04 #@! TD*
G04 APERTURE END LIST*
D10*
G04 #@! TO.P,C1,1*
G04 #@! TO.N,Net-(C1-Pad1)*
X63500000Y-70104000D03*
D11*
G04 #@! TO.P,C1,2*
G04 #@! TO.N,GND*
X63500000Y-68104000D03*
G04 #@! TD*
D12*
G04 #@! TO.P,D3,1*
G04 #@! TO.N,Net-(D3-Pad1)*
X45974000Y-68580000D03*
D13*
G04 #@! TO.P,D3,2*
G04 #@! TO.N,Net-(C1-Pad1)*
X53594000Y-68580000D03*
G04 #@! TD*
D14*
G04 #@! TO.P,J2,1*
G04 #@! TO.N,Vpu*
X40132000Y-15494000D03*
D15*
G04 #@! TO.P,J2,2*
G04 #@! TO.N,GND*
X42672000Y-15494000D03*
G04 #@! TO.P,J2,3*
G04 #@! TO.N,N/C*
X45212000Y-15494000D03*
G04 #@! TO.P,J2,4*
X47752000Y-15494000D03*
G04 #@! TO.P,J2,5*
X50292000Y-15494000D03*
G04 #@! TO.P,J2,6*
G04 #@! TO.N,SDA*
X52832000Y-15494000D03*
G04 #@! TO.P,J2,7*
G04 #@! TO.N,SCL*
X55372000Y-15494000D03*
G04 #@! TD*
D14*
G04 #@! TO.P,J3,1*
G04 #@! TO.N,GND*
X40132000Y-20574000D03*
D15*
G04 #@! TO.P,J3,2*
G04 #@! TO.N,Vpu*
X42672000Y-20574000D03*
G04 #@! TO.P,J3,3*
G04 #@! TO.N,SDA*
X45212000Y-20574000D03*
G04 #@! TO.P,J3,4*
G04 #@! TO.N,SCL*
X47752000Y-20574000D03*
G04 #@! TO.P,J3,5*
G04 #@! TO.N,N/C*
X50292000Y-20574000D03*
G04 #@! TO.P,J3,6*
X52832000Y-20574000D03*
G04 #@! TO.P,J3,7*
G04 #@! TO.N,/VOUT+*
X55372000Y-20574000D03*
G04 #@! TO.P,J3,8*
G04 #@! TO.N,N/C*
X57912000Y-20574000D03*
G04 #@! TD*
D14*
G04 #@! TO.P,J4,1*
G04 #@! TO.N,Net-(C1-Pad1)*
X60198000Y-15494000D03*
G04 #@! TD*
D16*
G04 #@! TO.P,Q1,2*
G04 #@! TO.N,Net-(Q1-Pad2)*
X57912000Y-69088000D03*
G04 #@! TO.P,Q1,3*
G04 #@! TO.N,Net-(C1-Pad1)*
X56642000Y-69088000D03*
D17*
G04 #@! TO.P,Q1,1*
G04 #@! TO.N,GND*
X59182000Y-69088000D03*
G04 #@! TD*
D18*
G04 #@! TO.P,R1,1*
G04 #@! TO.N,Net-(Q1-Pad2)*
X42926000Y-68580000D03*
D13*
G04 #@! TO.P,R1,2*
G04 #@! TO.N,PWROFF*
X35306000Y-68580000D03*
G04 #@! TD*
D19*
G04 #@! TO.P,SW2,2*
G04 #@! TO.N,GND*
X52832000Y-64952000D03*
G04 #@! TO.P,SW2,1*
G04 #@! TO.N,Net-(SW2-Pad1)*
X52832000Y-60452000D03*
G04 #@! TO.P,SW2,2*
G04 #@! TO.N,GND*
X59332000Y-64952000D03*
G04 #@! TO.P,SW2,1*
G04 #@! TO.N,Net-(SW2-Pad1)*
X59332000Y-60452000D03*
G04 #@! TD*
G04 #@! TO.P,SW3,1*
G04 #@! TO.N,Net-(D3-Pad1)*
X59332000Y-50800000D03*
G04 #@! TO.P,SW3,2*
G04 #@! TO.N,GND*
X59332000Y-55300000D03*
G04 #@! TO.P,SW3,1*
G04 #@! TO.N,Net-(D3-Pad1)*
X52832000Y-50800000D03*
G04 #@! TO.P,SW3,2*
G04 #@! TO.N,GND*
X52832000Y-55300000D03*
G04 #@! TD*
D18*
G04 #@! TO.P,U1,17*
G04 #@! TO.N,GND*
X33274000Y-37084000D03*
G04 #@! TO.P,U1,18*
G04 #@! TO.N,N/C*
X33274000Y-39624000D03*
G04 #@! TO.P,U1,19*
X33274000Y-42164000D03*
G04 #@! TO.P,U1,20*
X33274000Y-44704000D03*
G04 #@! TO.P,U1,16*
G04 #@! TO.N,Vpu*
X33274000Y-34544000D03*
G04 #@! TO.P,U1,15*
G04 #@! TO.N,N/C*
X33274000Y-32004000D03*
G04 #@! TO.P,U1,14*
X33274000Y-29464000D03*
G04 #@! TO.P,U1,21*
X35814000Y-44704000D03*
G04 #@! TO.P,U1,22*
X38354000Y-44704000D03*
G04 #@! TO.P,U1,23*
G04 #@! TO.N,PWROFF*
X40894000Y-44704000D03*
G04 #@! TO.P,U1,24*
G04 #@! TO.N,N/C*
X43434000Y-44704000D03*
G04 #@! TO.P,U1,25*
G04 #@! TO.N,SDA*
X45974000Y-44704000D03*
G04 #@! TO.P,U1,26*
G04 #@! TO.N,SCL*
X48514000Y-44704000D03*
G04 #@! TO.P,U1,27*
G04 #@! TO.N,N/C*
X51054000Y-44704000D03*
G04 #@! TO.P,U1,28*
X53594000Y-44704000D03*
G04 #@! TO.P,U1,29*
G04 #@! TO.N,Net-(D3-Pad1)*
X56134000Y-44704000D03*
G04 #@! TO.P,U1,30*
G04 #@! TO.N,Net-(SW2-Pad1)*
X58674000Y-44704000D03*
G04 #@! TO.P,U1,31*
G04 #@! TO.N,N/C*
X61214000Y-44704000D03*
G04 #@! TO.P,U1,32*
X63754000Y-44704000D03*
G04 #@! TO.P,U1,33*
X66294000Y-44704000D03*
G04 #@! TO.P,U1,34*
G04 #@! TO.N,/VOUT+*
X63754000Y-42164000D03*
G04 #@! TO.P,U1,35*
G04 #@! TO.N,N/C*
X58674000Y-42164000D03*
G04 #@! TO.P,U1,36*
X56134000Y-42164000D03*
G04 #@! TO.P,U1,37*
X53594000Y-42164000D03*
G04 #@! TO.P,U1,13*
G04 #@! TO.N,LED_G*
X35814000Y-29464000D03*
G04 #@! TO.P,U1,12*
G04 #@! TO.N,LED_R*
X38354000Y-29464000D03*
G04 #@! TO.P,U1,11*
G04 #@! TO.N,Net-(U1-Pad11)*
X40894000Y-29464000D03*
G04 #@! TO.P,U1,10*
G04 #@! TO.N,Net-(U1-Pad10)*
X43434000Y-29464000D03*
G04 #@! TO.P,U1,9*
G04 #@! TO.N,N/C*
X45974000Y-29464000D03*
G04 #@! TO.P,U1,8*
X48514000Y-29464000D03*
G04 #@! TO.P,U1,7*
X51054000Y-29464000D03*
G04 #@! TO.P,U1,6*
G04 #@! TO.N,SW_ROT*
X53594000Y-29464000D03*
G04 #@! TO.P,U1,5*
G04 #@! TO.N,N/C*
X56134000Y-29464000D03*
G04 #@! TO.P,U1,4*
X58674000Y-29464000D03*
G04 #@! TO.P,U1,3*
X61214000Y-29464000D03*
G04 #@! TO.P,U1,2*
X63754000Y-29464000D03*
D12*
G04 #@! TO.P,U1,1*
G04 #@! TO.N,GND*
X66294000Y-29464000D03*
D18*
G04 #@! TO.P,U1,38*
G04 #@! TO.N,N/C*
X51054000Y-37084000D03*
G04 #@! TO.P,U1,39*
G04 #@! TO.N,GND*
X48514000Y-37084000D03*
G04 #@! TO.P,U1,40*
G04 #@! TO.N,N/C*
X45974000Y-37084000D03*
G04 #@! TO.P,U1,41*
X43434000Y-37084000D03*
G04 #@! TO.P,U1,42*
X40894000Y-37084000D03*
G04 #@! TO.P,U1,43*
X38354000Y-37084000D03*
G04 #@! TO.P,U1,44*
X35814000Y-37084000D03*
G04 #@! TO.P,U1,45*
X35814000Y-39624000D03*
G04 #@! TO.P,U1,46*
X38354000Y-39624000D03*
G04 #@! TO.P,U1,47*
X40894000Y-39624000D03*
G04 #@! TO.P,U1,48*
X43434000Y-39624000D03*
G04 #@! TO.P,U1,49*
X45974000Y-39624000D03*
G04 #@! TO.P,U1,50*
X48514000Y-39624000D03*
G04 #@! TO.P,U1,51*
X51054000Y-39624000D03*
D20*
G04 #@! TO.P,U1,52*
G04 #@! TO.N,Net-(U1-Pad52)*
X56134000Y-37084000D03*
X59944000Y-37084000D03*
G04 #@! TD*
D21*
G04 #@! TO.P,U2,1*
G04 #@! TO.N,GND*
X44656000Y-50658000D03*
G04 #@! TO.P,U2,2*
G04 #@! TO.N,LED_R*
X42656000Y-50658000D03*
G04 #@! TO.P,U2,3*
G04 #@! TO.N,LED_G*
X40656000Y-50658000D03*
G04 #@! TO.P,U2,4*
G04 #@! TO.N,SW_ROT*
X38656000Y-50658000D03*
G04 #@! TO.P,U2,5*
G04 #@! TO.N,Net-(U1-Pad10)*
X39156000Y-65158000D03*
G04 #@! TO.P,U2,6*
G04 #@! TO.N,GND*
X41656000Y-65158000D03*
G04 #@! TO.P,U2,7*
G04 #@! TO.N,Net-(U1-Pad11)*
X44156000Y-65158000D03*
D22*
G04 #@! TO.P,U2,*
G04 #@! TO.N,*
X47256000Y-57658000D03*
X36056000Y-57658000D03*
G04 #@! TD*
D23*
G04 #@! TO.N,Net-(C1-Pad1)*
X53594000Y-69711370D02*
X54864000Y-70981370D01*
X53594000Y-68580000D02*
X53594000Y-69711370D01*
X62650000Y-70104000D02*
X63500000Y-70104000D01*
X61772630Y-70981370D02*
X62650000Y-70104000D01*
X55880000Y-70850000D02*
X55880000Y-70981370D01*
X56642000Y-70088000D02*
X55880000Y-70850000D01*
X56642000Y-69088000D02*
X56642000Y-70088000D01*
X54864000Y-70981370D02*
X55880000Y-70981370D01*
X55880000Y-70981370D02*
X61772630Y-70981370D01*
X64350000Y-70104000D02*
X63500000Y-70104000D01*
X60198000Y-15494000D02*
X60198000Y-21336000D01*
X60198000Y-21336000D02*
X65024000Y-26162000D01*
X65024000Y-26162000D02*
X67818000Y-26162000D01*
X67818000Y-26162000D02*
X69596000Y-27940000D01*
X69596000Y-27940000D02*
X69596000Y-64858000D01*
X69596000Y-64858000D02*
X64350000Y-70104000D01*
G04 #@! TO.N,GND*
X54246213Y-55300000D02*
X59332000Y-55300000D01*
X52832000Y-55300000D02*
X54246213Y-55300000D01*
X52832000Y-55300000D02*
X48190000Y-50658000D01*
X52832000Y-64952000D02*
X59332000Y-64952000D01*
X59332000Y-68938000D02*
X59182000Y-69088000D01*
X59332000Y-64952000D02*
X59332000Y-68938000D01*
X59182000Y-68863000D02*
X59182000Y-69088000D01*
X60150000Y-68088000D02*
X59957000Y-68088000D01*
X59957000Y-68088000D02*
X59182000Y-68863000D01*
X60166000Y-68104000D02*
X60150000Y-68088000D01*
X63500000Y-68104000D02*
X60166000Y-68104000D01*
X41656000Y-66235630D02*
X41968370Y-66548000D01*
X41656000Y-65158000D02*
X41656000Y-66235630D01*
X51236000Y-66548000D02*
X52832000Y-64952000D01*
X41968370Y-66548000D02*
X51236000Y-66548000D01*
X49639001Y-38209001D02*
X49639001Y-49024999D01*
X48514000Y-37084000D02*
X49639001Y-38209001D01*
X48190000Y-50658000D02*
X48006000Y-50658000D01*
X49639001Y-49024999D02*
X48006000Y-50658000D01*
X48006000Y-50658000D02*
X44656000Y-50658000D01*
X66294000Y-34036000D02*
X66294000Y-29464000D01*
X61214000Y-39116000D02*
X66294000Y-34036000D01*
X55626000Y-39116000D02*
X61214000Y-39116000D01*
X49639001Y-38209001D02*
X54719001Y-38209001D01*
X54719001Y-38209001D02*
X55626000Y-39116000D01*
X37084000Y-20574000D02*
X40132000Y-20574000D01*
X42672000Y-14291919D02*
X42096081Y-13716000D01*
X37338000Y-13716000D02*
X35560000Y-15494000D01*
X42096081Y-13716000D02*
X37338000Y-13716000D01*
X42672000Y-15494000D02*
X42672000Y-14291919D01*
X35560000Y-15494000D02*
X35560000Y-19050000D01*
X35560000Y-19050000D02*
X37084000Y-20574000D01*
X59332000Y-55300000D02*
X61722000Y-57690000D01*
X61722000Y-62562000D02*
X59332000Y-64952000D01*
X61722000Y-57690000D02*
X61722000Y-62562000D01*
X31242000Y-35052000D02*
X31496000Y-35306000D01*
X31242000Y-27178000D02*
X31242000Y-35052000D01*
X37084000Y-21336000D02*
X31242000Y-27178000D01*
X31496000Y-35306000D02*
X33274000Y-37084000D01*
X37084000Y-20574000D02*
X37084000Y-21336000D01*
G04 #@! TO.N,Net-(D3-Pad1)*
X56134000Y-47602000D02*
X59332000Y-50800000D01*
X56134000Y-44704000D02*
X56134000Y-47602000D01*
X52832000Y-50800000D02*
X59332000Y-50800000D01*
G04 #@! TO.N,Vpu*
X42672000Y-19134000D02*
X42672000Y-20574000D01*
X40132000Y-15494000D02*
X40132000Y-16594000D01*
X40132000Y-16594000D02*
X42672000Y-19134000D01*
X42672000Y-20574000D02*
X34544000Y-28702000D01*
X34544000Y-33274000D02*
X33274000Y-34544000D01*
X34544000Y-28702000D02*
X34544000Y-33274000D01*
G04 #@! TO.N,SDA*
X45212000Y-20574000D02*
X48006000Y-17780000D01*
X50546000Y-17780000D02*
X52832000Y-15494000D01*
X48006000Y-17780000D02*
X50546000Y-17780000D01*
X45174001Y-43904001D02*
X45974000Y-44704000D01*
X44848999Y-43578999D02*
X45174001Y-43904001D01*
X44848999Y-22139082D02*
X44848999Y-43578999D01*
X45212000Y-21776081D02*
X44848999Y-22139082D01*
X45212000Y-20574000D02*
X45212000Y-21776081D01*
G04 #@! TO.N,SCL*
X47752000Y-20574000D02*
X49784000Y-18542000D01*
X52324000Y-18542000D02*
X55372000Y-15494000D01*
X49784000Y-18542000D02*
X52324000Y-18542000D01*
X47714001Y-43904001D02*
X48514000Y-44704000D01*
X47388999Y-43578999D02*
X47714001Y-43904001D01*
X47388999Y-22139082D02*
X47388999Y-43578999D01*
X47752000Y-21776081D02*
X47388999Y-22139082D01*
X47752000Y-20574000D02*
X47752000Y-21776081D01*
G04 #@! TO.N,/VOUT+*
X55372000Y-21776081D02*
X57658000Y-24062081D01*
X55372000Y-20574000D02*
X55372000Y-21776081D01*
X57658000Y-24062081D02*
X57658000Y-24130000D01*
X57658000Y-24130000D02*
X60706000Y-27178000D01*
X60706000Y-27178000D02*
X67056000Y-27178000D01*
X67056000Y-27178000D02*
X67818000Y-27940000D01*
X67818000Y-27940000D02*
X67818000Y-39370000D01*
X65024000Y-42164000D02*
X63754000Y-42164000D01*
X67818000Y-39370000D02*
X65024000Y-42164000D01*
G04 #@! TO.N,Net-(Q1-Pad2)*
X42926000Y-68580000D02*
X44704000Y-70358000D01*
X44704000Y-70358000D02*
X49530000Y-70358000D01*
X49530000Y-70358000D02*
X53086000Y-66802000D01*
X57912000Y-68863000D02*
X57912000Y-69088000D01*
X55851000Y-66802000D02*
X57912000Y-68863000D01*
X53086000Y-66802000D02*
X55851000Y-66802000D01*
G04 #@! TO.N,Net-(SW2-Pad1)*
X52832000Y-60452000D02*
X59332000Y-60452000D01*
G04 #@! TO.N,LED_G*
X37228999Y-36833997D02*
X37228999Y-47230999D01*
X35814000Y-35418998D02*
X37228999Y-36833997D01*
X39894001Y-49896001D02*
X40656000Y-50658000D01*
X37228999Y-47230999D02*
X39894001Y-49896001D01*
X35814000Y-29464000D02*
X35814000Y-35418998D01*
G04 #@! TO.N,LED_R*
X39768999Y-47770999D02*
X42656000Y-50658000D01*
X39768999Y-36833997D02*
X39768999Y-47770999D01*
X38354000Y-29464000D02*
X38354000Y-35418998D01*
X38354000Y-35418998D02*
X39768999Y-36833997D01*
G04 #@! TO.N,Net-(U1-Pad52)*
X56134000Y-37084000D02*
X59944000Y-37084000D01*
G04 #@! TD*
M02*
