M48
;DRILL file {KiCad 5.0.2-bee76a0~70~ubuntu18.04.1} date mar. 08 janv. 2019 14:18:47 CET
;FORMAT={-:-/ absolute / inch / decimal}
FMAT,2
INCH,TZ
T1C0.0197
T2C0.0236
T3C0.0295
T4C0.0315
T5C0.0394
T6C0.0433
T7C0.0827
T8C0.0866
%
G90
G05
T1
X2.21Y-1.46
X2.36Y-1.46
T2
X2.5Y-2.6813
X2.5Y-2.76
T3
X2.23Y-2.72
X2.28Y-2.72
X2.33Y-2.72
T4
X1.39Y-2.7
X1.69Y-2.7
X1.81Y-2.7
X2.11Y-2.7
T5
X1.58Y-0.81
X1.68Y-0.81
X1.78Y-0.81
X1.88Y-0.81
X1.98Y-0.81
X2.08Y-0.81
X2.18Y-0.81
X2.28Y-0.81
X2.37Y-0.61
X1.58Y-0.61
X1.68Y-0.61
X1.78Y-0.61
X1.88Y-0.61
X1.98Y-0.61
X2.08Y-0.61
X2.18Y-0.61
T6
X1.5219Y-1.9944
X1.5416Y-2.5653
X1.6006Y-1.9944
X1.64Y-2.5653
X1.6794Y-1.9944
X1.7384Y-2.5653
X1.7581Y-1.9944
X1.31Y-1.16
X1.31Y-1.26
X1.31Y-1.36
X1.31Y-1.46
X1.31Y-1.56
X1.31Y-1.66
X1.31Y-1.76
X1.41Y-1.16
X1.41Y-1.46
X1.41Y-1.56
X1.41Y-1.76
X1.51Y-1.16
X1.51Y-1.46
X1.51Y-1.56
X1.51Y-1.76
X1.61Y-1.16
X1.61Y-1.46
X1.61Y-1.56
X1.61Y-1.76
X1.71Y-1.16
X1.71Y-1.46
X1.71Y-1.56
X1.71Y-1.76
X1.81Y-1.16
X1.81Y-1.46
X1.81Y-1.56
X1.81Y-1.76
X1.91Y-1.16
X1.91Y-1.46
X1.91Y-1.56
X1.91Y-1.76
X2.01Y-1.16
X2.01Y-1.46
X2.01Y-1.56
X2.01Y-1.76
X2.11Y-1.16
X2.11Y-1.66
X2.11Y-1.76
X2.21Y-1.16
X2.21Y-1.66
X2.21Y-1.76
X2.31Y-1.16
X2.31Y-1.66
X2.31Y-1.76
X2.41Y-1.16
X2.41Y-1.76
X2.51Y-1.16
X2.51Y-1.66
X2.51Y-1.76
X2.61Y-1.16
X2.61Y-1.76
X2.08Y-2.38
X2.08Y-2.5572
X2.3359Y-2.38
X2.3359Y-2.5572
X2.08Y-2.
X2.08Y-2.1772
X2.3359Y-2.
X2.3359Y-2.1772
T7
X1.4215Y-2.27
X1.8585Y-2.27
T8
X2.67Y-0.9
X2.69Y-0.61
X1.21Y-3.09
X1.24Y-0.89
X1.21Y-0.61
X2.69Y-3.09
T0
M30
